<svg version="1.1" viewBox="0.0 0.0 600.0 371.0" fill="none" stroke="none" stroke-linecap="square" stroke-miterlimit="10" width="600" height="371" xmlns:xlink="http://www.w3.org/1999/xlink" xmlns="http://www.w3.org/2000/svg"><path fill="#ffffff" d="M0 0L600.0 0L600.0 371.0L0 371.0L0 0Z" fill-rule="nonzero"/><path stroke="#cccccc" stroke-width="1.0" stroke-linecap="butt" d="M77.5 88.5L77.5 300.5" fill-rule="nonzero"/><path stroke="#cccccc" stroke-width="1.0" stroke-linecap="butt" d="M149.5 88.5L149.5 300.5" fill-rule="nonzero"/><path stroke="#cccccc" stroke-width="1.0" stroke-linecap="butt" d="M221.5 88.5L221.5 300.5" fill-rule="nonzero"/><path stroke="#cccccc" stroke-width="1.0" stroke-linecap="butt" d="M293.5 88.5L293.5 300.5" fill-rule="nonzero"/><path stroke="#cccccc" stroke-width="1.0" stroke-linecap="butt" d="M365.5 88.5L365.5 300.5" fill-rule="nonzero"/><path stroke="#cccccc" stroke-width="1.0" stroke-linecap="butt" d="M437.5 88.5L437.5 300.5" fill-rule="nonzero"/><path stroke="#cccccc" stroke-width="1.0" stroke-linecap="butt" d="M509.5 88.5L509.5 300.5" fill-rule="nonzero"/><path stroke="#cccccc" stroke-width="1.0" stroke-linecap="butt" d="M581.5 88.5L581.5 300.5" fill-rule="nonzero"/><path stroke="#333333" stroke-width="1.0" stroke-linecap="butt" d="M77.5 300.5L581.5 300.5" fill-rule="nonzero"/><path stroke="#cccccc" stroke-width="1.0" stroke-linecap="butt" d="M77.5 247.5L581.5 247.5" fill-rule="nonzero"/><path stroke="#cccccc" stroke-width="1.0" stroke-linecap="butt" d="M77.5 194.5L581.5 194.5" fill-rule="nonzero"/><path stroke="#cccccc" stroke-width="1.0" stroke-linecap="butt" d="M77.5 141.5L581.5 141.5" fill-rule="nonzero"/><path stroke="#cccccc" stroke-width="1.0" stroke-linecap="butt" d="M77.5 88.5L581.5 88.5" fill-rule="nonzero"/><clipPath id="id_0"><path d="M77.55 88.28333L581.45 88.28333L581.45 300.45L77.55 300.45L77.55 88.28333Z" clip-rule="nonzero"/></clipPath><path stroke="#4285f4" stroke-width="2.0" stroke-linecap="butt" clip-path="url(#id_0)" d="M77.55 300.43674L293.50714 299.7366L437.47858 288.81372L509.4643 255.79555L545.45715 207.88327L581.45 119.761444" fill-rule="nonzero"/><path stroke="#ea4335" stroke-width="2.0" stroke-linecap="butt" clip-path="url(#id_0)" d="M77.55 299.27554L293.50714 298.68668L437.47858 297.02225L509.4643 292.49487L545.45715 286.8436L581.45 276.21207" fill-rule="nonzero"/><path fill="#000000" fill-opacity="0.0" clip-path="url(#id_0)" d="M80.55 300.43674C80.55 302.0936 79.206856 303.43674 77.55 303.43674C75.89314 303.43674 74.55 302.0936 74.55 300.43674C74.55 298.77988 75.89314 297.43674 77.55 297.43674C79.206856 297.43674 80.55 298.77988 80.55 300.43674Z" fill-rule="nonzero"/><path fill="#000000" fill-opacity="0.0" clip-path="url(#id_0)" d="M296.50714 299.7366C296.50714 301.39343 295.164 302.7366 293.50714 302.7366C291.85028 302.7366 290.50714 301.39343 290.50714 299.7366C290.50714 298.07974 291.85028 296.7366 293.50714 296.7366C295.164 296.7366 296.50714 298.07974 296.50714 299.7366Z" fill-rule="nonzero"/><path fill="#000000" fill-opacity="0.0" clip-path="url(#id_0)" d="M440.47858 288.81372C440.47858 290.47058 439.13544 291.81372 437.47858 291.81372C435.82172 291.81372 434.47858 290.47058 434.47858 288.81372C434.47858 287.15686 435.82172 285.81372 437.47858 285.81372C439.13544 285.81372 440.47858 287.15686 440.47858 288.81372Z" fill-rule="nonzero"/><path fill="#000000" fill-opacity="0.0" clip-path="url(#id_0)" d="M512.4643 255.79555C512.4643 257.4524 511.12115 258.79553 509.4643 258.79553C507.80743 258.79553 506.4643 257.4524 506.4643 255.79555C506.4643 254.13869 507.80743 252.79555 509.4643 252.79555C511.12115 252.79555 512.4643 254.13869 512.4643 255.79555Z" fill-rule="nonzero"/><path fill="#000000" fill-opacity="0.0" clip-path="url(#id_0)" d="M548.45715 207.88327C548.45715 209.54013 547.114 210.88327 545.45715 210.88327C543.8003 210.88327 542.45715 209.54013 542.45715 207.88327C542.45715 206.22643 543.8003 204.88327 545.45715 204.88327C547.114 204.88327 548.45715 206.22643 548.45715 207.88327Z" fill-rule="nonzero"/><path fill="#000000" fill-opacity="0.0" clip-path="url(#id_0)" d="M584.45 119.761444C584.45 121.4183 583.1069 122.761444 581.45 122.761444C579.79315 122.761444 578.45 121.4183 578.45 119.761444C578.45 118.10458 579.79315 116.761444 581.45 116.761444C583.1069 116.761444 584.45 118.10458 584.45 119.761444Z" fill-rule="nonzero"/><path fill="#000000" fill-opacity="0.0" clip-path="url(#id_0)" d="M80.55 299.27554C80.55 300.9324 79.206856 302.27554 77.55 302.27554C75.89314 302.27554 74.55 300.9324 74.55 299.27554C74.55 297.61868 75.89314 296.27554 77.55 296.27554C79.206856 296.27554 80.55 297.61868 80.55 299.27554Z" fill-rule="nonzero"/><path fill="#000000" fill-opacity="0.0" clip-path="url(#id_0)" d="M296.50714 298.68668C296.50714 300.34354 295.164 301.68668 293.50714 301.68668C291.85028 301.68668 290.50714 300.34354 290.50714 298.68668C290.50714 297.02982 291.85028 295.68668 293.50714 295.68668C295.164 295.68668 296.50714 297.02982 296.50714 298.68668Z" fill-rule="nonzero"/><path fill="#000000" fill-opacity="0.0" clip-path="url(#id_0)" d="M440.47858 297.02225C440.47858 298.67908 439.13544 300.02225 437.47858 300.02225C435.82172 300.02225 434.47858 298.67908 434.47858 297.02225C434.47858 295.3654 435.82172 294.02225 437.47858 294.02225C439.13544 294.02225 440.47858 295.3654 440.47858 297.02225Z" fill-rule="nonzero"/><path fill="#000000" fill-opacity="0.0" clip-path="url(#id_0)" d="M512.4643 292.49487C512.4643 294.1517 511.12115 295.49487 509.4643 295.49487C507.80743 295.49487 506.4643 294.1517 506.4643 292.49487C506.4643 290.838 507.80743 289.49487 509.4643 289.49487C511.12115 289.49487 512.4643 290.838 512.4643 292.49487Z" fill-rule="nonzero"/><path fill="#000000" fill-opacity="0.0" clip-path="url(#id_0)" d="M548.45715 286.8436C548.45715 288.50046 547.114 289.8436 545.45715 289.8436C543.8003 289.8436 542.45715 288.50046 542.45715 286.8436C542.45715 285.18674 543.8003 283.8436 545.45715 283.8436C547.114 283.8436 548.45715 285.18674 548.45715 286.8436Z" fill-rule="nonzero"/><path fill="#000000" fill-opacity="0.0" clip-path="url(#id_0)" d="M584.45 276.21207C584.45 277.86893 583.1069 279.21207 581.45 279.21207C579.79315 279.21207 578.45 277.86893 578.45 276.21207C578.45 274.55524 579.79315 273.21207 581.45 273.21207C583.1069 273.21207 584.45 274.55524 584.45 276.21207Z" fill-rule="nonzero"/><path fill="#000000" d="M288.26562 349.45L288.26562 340.85626L289.32812 340.85626L289.32812 349.45L288.26562 349.45ZM290.90625 346.34064Q290.90625 344.60626 291.85938 343.77814Q292.65625 343.09064 293.8125 343.09064Q295.09375 343.09064 295.90625 343.9344Q296.73438 344.7625 296.73438 346.2469Q296.73438 347.45 296.375 348.1375Q296.01562 348.825 295.3125 349.21564Q294.625 349.59064 293.8125 349.59064Q292.51562 349.59064 291.70312 348.7625Q290.90625 347.91876 290.90625 346.34064ZM291.98438 346.34064Q291.98438 347.52814 292.5 348.1219Q293.03125 348.71564 293.8125 348.71564Q294.60938 348.71564 295.125 348.1219Q295.64062 347.52814 295.64062 346.3094Q295.64062 345.15314 295.10938 344.5594Q294.59375 343.96564 293.8125 343.96564Q293.03125 343.96564 292.5 344.5594Q291.98438 345.1375 291.98438 346.34064ZM298.09375 349.96564L299.125 350.1219Q299.1875 350.59064 299.48438 350.8094Q299.875 351.10626 300.54688 351.10626Q301.28125 351.10626 301.67188 350.8094Q302.07812 350.5125 302.21875 349.9969Q302.3125 349.66876 302.29688 348.6375Q301.60938 349.45 300.57812 349.45Q299.29688 349.45 298.59375 348.52814Q297.89062 347.59064 297.89062 346.3094Q297.89062 345.41876 298.20312 344.66876Q298.53125 343.90314 299.14062 343.4969Q299.75 343.09064 300.57812 343.09064Q301.6875 343.09064 302.40625 343.98126L302.40625 343.23126L303.375 343.23126L303.375 348.60626Q303.375 350.0594 303.07812 350.66876Q302.78125 351.27814 302.14062 351.6219Q301.5 351.98126 300.5625 351.98126Q299.45312 351.98126 298.76562 351.48126Q298.07812 350.98126 298.09375 349.96564ZM298.96875 346.23126Q298.96875 347.45 299.45312 348.0125Q299.9375 348.575 300.67188 348.575Q301.40625 348.575 301.89062 348.0125Q302.39062 347.45 302.39062 346.2625Q302.39062 345.1219 301.875 344.54376Q301.375 343.96564 300.65625 343.96564Q299.95312 343.96564 299.45312 344.54376Q298.96875 345.10626 298.96875 346.23126ZM310.54688 348.4344L310.54688 349.45L304.85938 349.45Q304.85938 349.075 304.98438 348.71564Q305.20312 348.1375 305.67188 347.575Q306.15625 347.0125 307.0625 346.27814Q308.46875 345.1219 308.95312 344.45Q309.45312 343.77814 309.45312 343.1844Q309.45312 342.5594 309.0 342.1375Q308.54688 341.7 307.82812 341.7Q307.0625 341.7 306.60938 342.15314Q306.15625 342.60626 306.14062 343.41876L305.0625 343.3094Q305.17188 342.09064 305.89062 341.46564Q306.625 340.825 307.85938 340.825Q309.09375 340.825 309.8125 341.5125Q310.53125 342.2 310.53125 343.21564Q310.53125 343.73126 310.3125 344.23126Q310.10938 344.71564 309.60938 345.27814Q309.125 345.825 308.0 346.77814Q307.04688 347.575 306.76562 347.8719Q306.5 348.15314 306.32812 348.4344L310.54688 348.4344ZM314.3125 351.98126Q313.4375 350.8719 312.82812 349.40314Q312.23438 347.91876 312.23438 346.34064Q312.23438 344.95 312.67188 343.66876Q313.20312 342.1844 314.3125 340.71564L315.0625 340.71564Q314.35938 341.9344 314.125 342.45Q313.76562 343.2625 313.5625 344.1375Q313.3125 345.23126 313.3125 346.34064Q313.3125 349.16876 315.0625 351.98126L314.3125 351.98126ZM320.35938 348.6844Q319.76562 349.1844 319.21875 349.3875Q318.6875 349.59064 318.0625 349.59064Q317.03125 349.59064 316.48438 349.09064Q315.9375 348.59064 315.9375 347.8094Q315.9375 347.35626 316.14062 346.98126Q316.34375 346.59064 316.6875 346.3719Q317.03125 346.1375 317.45312 346.02814Q317.75 345.9344 318.39062 345.85626Q319.65625 345.71564 320.26562 345.4969Q320.26562 345.27814 320.26562 345.23126Q320.26562 344.575 319.96875 344.3094Q319.5625 343.96564 318.76562 343.96564Q318.03125 343.96564 317.67188 344.23126Q317.3125 344.48126 317.14062 345.1375L316.10938 344.9969Q316.25 344.34064 316.57812 343.9344Q316.90625 343.52814 317.51562 343.3094Q318.125 343.09064 318.92188 343.09064Q319.71875 343.09064 320.21875 343.27814Q320.71875 343.46564 320.95312 343.7469Q321.1875 344.02814 321.28125 344.46564Q321.32812 344.73126 321.32812 345.4344L321.32812 346.84064Q321.32812 348.3094 321.39062 348.7Q321.46875 349.09064 321.67188 349.45L320.5625 349.45Q320.40625 349.1219 320.35938 348.6844ZM320.26562 346.325Q319.6875 346.5594 318.54688 346.73126Q317.89062 346.825 317.625 346.95Q317.35938 347.0594 317.20312 347.27814Q317.0625 347.4969 317.0625 347.77814Q317.0625 348.2 317.375 348.48126Q317.70312 348.7625 318.3125 348.7625Q318.92188 348.7625 319.39062 348.4969Q319.875 348.23126 320.09375 347.7625Q320.26562 347.40314 320.26562 346.71564L320.26562 346.325ZM323.28125 349.45L323.28125 343.23126L324.23438 343.23126L324.23438 344.16876Q324.59375 343.5125 324.89062 343.3094Q325.20312 343.09064 325.57812 343.09064Q326.10938 343.09064 326.65625 343.41876L326.29688 344.40314Q325.90625 344.16876 325.53125 344.16876Q325.17188 344.16876 324.89062 344.3875Q324.625 344.59064 324.51562 344.96564Q324.32812 345.52814 324.32812 346.1844L324.32812 349.45L323.28125 349.45ZM327.28125 349.45L327.28125 343.23126L328.23438 343.23126L328.23438 344.16876Q328.59375 343.5125 328.89062 343.3094Q329.20312 343.09064 329.57812 343.09064Q330.10938 343.09064 330.65625 343.41876L330.29688 344.40314Q329.90625 344.16876 329.53125 344.16876Q329.17188 344.16876 328.89062 344.3875Q328.625 344.59064 328.51562 344.96564Q328.32812 345.52814 328.32812 346.1844L328.32812 349.45L327.28125 349.45ZM335.35938 348.6844Q334.76562 349.1844 334.21875 349.3875Q333.6875 349.59064 333.0625 349.59064Q332.03125 349.59064 331.48438 349.09064Q330.9375 348.59064 330.9375 347.8094Q330.9375 347.35626 331.14062 346.98126Q331.34375 346.59064 331.6875 346.3719Q332.03125 346.1375 332.45312 346.02814Q332.75 345.9344 333.39062 345.85626Q334.65625 345.71564 335.26562 345.4969Q335.26562 345.27814 335.26562 345.23126Q335.26562 344.575 334.96875 344.3094Q334.5625 343.96564 333.76562 343.96564Q333.03125 343.96564 332.67188 344.23126Q332.3125 344.48126 332.14062 345.1375L331.10938 344.9969Q331.25 344.34064 331.57812 343.9344Q331.90625 343.52814 332.51562 343.3094Q333.125 343.09064 333.92188 343.09064Q334.71875 343.09064 335.21875 343.27814Q335.71875 343.46564 335.95312 343.7469Q336.1875 344.02814 336.28125 344.46564Q336.32812 344.73126 336.32812 345.4344L336.32812 346.84064Q336.32812 348.3094 336.39062 348.7Q336.46875 349.09064 336.67188 349.45L335.5625 349.45Q335.40625 349.1219 335.35938 348.6844ZM335.26562 346.325Q334.6875 346.5594 333.54688 346.73126Q332.89062 346.825 332.625 346.95Q332.35938 347.0594 332.20312 347.27814Q332.0625 347.4969 332.0625 347.77814Q332.0625 348.2 332.375 348.48126Q332.70312 348.7625 333.3125 348.7625Q333.92188 348.7625 334.39062 348.4969Q334.875 348.23126 335.09375 347.7625Q335.26562 347.40314 335.26562 346.71564L335.26562 346.325ZM338.25 351.84064L338.125 350.85626Q338.46875 350.95 338.73438 350.95Q339.07812 350.95 339.28125 350.825Q339.5 350.71564 339.64062 350.5125Q339.73438 350.34064 339.96875 349.71564Q339.98438 349.6375 340.0625 349.46564L337.6875 343.23126L338.82812 343.23126L340.125 346.825Q340.375 347.5125 340.57812 348.27814Q340.76562 347.54376 341.01562 346.85626L342.34375 343.23126L343.39062 343.23126L341.03125 349.5594Q340.64062 350.575 340.4375 350.96564Q340.15625 351.4969 339.78125 351.73126Q339.42188 351.98126 338.92188 351.98126Q338.625 351.98126 338.25 351.84064ZM345.875 347.59064L346.90625 347.4344Q347.0 348.0594 347.39062 348.3875Q347.79688 348.71564 348.53125 348.71564Q349.25 348.71564 349.59375 348.4344Q349.95312 348.1375 349.95312 347.73126Q349.95312 347.3719 349.64062 347.16876Q349.42188 347.02814 348.5625 346.8094Q347.40625 346.5125 346.95312 346.3094Q346.51562 346.09064 346.28125 345.71564Q346.04688 345.34064 346.04688 344.8719Q346.04688 344.46564 346.23438 344.10626Q346.42188 343.7469 346.75 343.5125Q347.0 343.34064 347.42188 343.21564Q347.84375 343.09064 348.34375 343.09064Q349.0625 343.09064 349.60938 343.3094Q350.17188 343.5125 350.4375 343.8719Q350.70312 344.23126 350.79688 344.825L349.76562 344.96564Q349.70312 344.4969 349.35938 344.23126Q349.03125 343.95 348.40625 343.95Q347.6875 343.95 347.375 344.2Q347.0625 344.4344 347.0625 344.7625Q347.0625 344.96564 347.1875 345.1219Q347.32812 345.29376 347.59375 345.40314Q347.75 345.46564 348.53125 345.66876Q349.65625 345.98126 350.09375 346.16876Q350.53125 346.35626 350.78125 346.71564Q351.03125 347.075 351.03125 347.6219Q351.03125 348.15314 350.71875 348.6219Q350.42188 349.075 349.84375 349.34064Q349.26562 349.59064 348.53125 349.59064Q347.3125 349.59064 346.67188 349.09064Q346.04688 348.575 345.875 347.59064ZM353.29688 342.075L353.29688 340.85626L354.35938 340.85626L354.35938 342.075L353.29688 342.075ZM353.29688 349.45L353.29688 343.23126L354.35938 343.23126L354.35938 349.45L353.29688 349.45ZM355.73438 349.45L355.73438 348.59064L359.70312 344.04376Q359.01562 344.075 358.5 344.075L355.96875 344.075L355.96875 343.23126L361.0625 343.23126L361.0625 343.91876L357.6875 347.8719L357.03125 348.59064Q357.75 348.54376 358.35938 348.54376L361.25 348.54376L361.25 349.45L355.73438 349.45ZM365.54688 347.45L366.64062 347.575Q366.39062 348.52814 365.6875 349.0594Q364.98438 349.59064 363.90625 349.59064Q362.54688 349.59064 361.73438 348.7469Q360.9375 347.90314 360.9375 346.3875Q360.9375 344.825 361.75 343.96564Q362.5625 343.09064 363.84375 343.09064Q365.09375 343.09064 365.875 343.9344Q366.67188 344.77814 366.67188 346.325Q366.67188 346.41876 366.67188 346.60626L362.03125 346.60626Q362.09375 347.6375 362.60938 348.1844Q363.125 348.71564 363.90625 348.71564Q364.48438 348.71564 364.89062 348.41876Q365.3125 348.10626 365.54688 347.45ZM362.09375 345.7469L365.5625 345.7469Q365.5 344.95 365.17188 344.5594Q364.65625 343.95 363.85938 343.95Q363.125 343.95 362.625 344.4344Q362.14062 344.91876 362.09375 345.7469ZM368.98438 351.98126L368.23438 351.98126Q369.98438 349.16876 369.98438 346.34064Q369.98438 345.2469 369.73438 344.15314Q369.53125 343.27814 369.17188 342.46564Q368.9375 341.95 368.23438 340.71564L368.98438 340.71564Q370.07812 342.1844 370.60938 343.66876Q371.0625 344.95 371.0625 346.34064Q371.0625 347.91876 370.45312 349.40314Q369.84375 350.8719 368.98438 351.98126Z" fill-rule="nonzero"/><path fill="#000000" d="M29.550013 257.7573L21.971888 257.7573L21.971888 260.58542L20.956263 260.58542L20.956263 253.77292L21.971888 253.77292L21.971888 256.61667L29.550013 256.61667L29.550013 257.7573ZM22.175013 253.0698L20.956263 253.0698L20.956263 252.0073L22.175013 252.0073L22.175013 253.0698ZM29.550013 253.0698L23.331263 253.0698L23.331263 252.0073L29.550013 252.0073L29.550013 253.0698ZM29.550013 250.0698L23.331263 250.0698L23.331263 249.1323L24.206263 249.1323Q23.737513 248.83542 23.471888 248.35104Q23.190638 247.86667 23.190638 247.24167Q23.190638 246.55417 23.471888 246.11667Q23.753138 245.66354 24.268763 245.49167Q23.190638 244.74167 23.190638 243.5698Q23.190638 242.6323 23.706263 242.14792Q24.206263 241.64792 25.284388 241.64792L29.550013 241.64792L29.550013 242.6948L25.628138 242.6948Q25.003138 242.6948 24.721888 242.80417Q24.440638 242.89792 24.268763 243.16354Q24.096888 243.42917 24.096888 243.80417Q24.096888 244.46042 24.534388 244.89792Q24.971888 245.3198 25.940638 245.3198L29.550013 245.3198L29.550013 246.3823L25.503138 246.3823Q24.800013 246.3823 24.456263 246.64792Q24.096888 246.89792 24.096888 247.47604Q24.096888 247.92917 24.331263 248.30417Q24.565638 248.67917 25.018763 248.85104Q25.471888 249.02292 26.315638 249.02292L29.550013 249.02292L29.550013 250.0698ZM27.550013 234.8198L27.675013 233.72604Q28.628138 233.97604 29.159388 234.67917Q29.690638 235.3823 29.690638 236.46042Q29.690638 237.8198 28.846888 238.6323Q28.003138 239.42917 26.487513 239.42917Q24.925013 239.42917 24.065638 238.61667Q23.190638 237.80417 23.190638 236.52292Q23.190638 235.27292 24.034388 234.49167Q24.878138 233.6948 26.425013 233.6948Q26.518763 233.6948 26.706263 233.6948L26.706263 238.33542Q27.737513 238.27292 28.284388 237.7573Q28.815638 237.24167 28.815638 236.46042Q28.815638 235.8823 28.518763 235.47604Q28.206263 235.05417 27.550013 234.8198ZM25.846888 238.27292L25.846888 234.80417Q25.050013 234.86667 24.659388 235.1948Q24.050013 235.71042 24.050013 236.5073Q24.050013 237.24167 24.534388 237.74167Q25.018763 238.22604 25.846888 238.27292ZM28.612513 226.77292L29.534388 226.61667Q29.628138 227.0698 29.628138 227.41354Q29.628138 227.99167 29.456263 228.30417Q29.268763 228.61667 28.971888 228.7573Q28.675013 228.8823 27.721888 228.8823L24.143763 228.8823L24.143763 229.64792L23.331263 229.64792L23.331263 228.8823L21.784388 228.8823L21.159388 227.83542L23.331263 227.83542L23.331263 226.77292L24.143763 226.77292L24.143763 227.83542L27.784388 227.83542Q28.237513 227.83542 28.362513 227.78854Q28.487513 227.72604 28.565638 227.60104Q28.643763 227.47604 28.643763 227.24167Q28.643763 227.05417 28.612513 226.77292ZM26.440638 226.46042Q24.706263 226.46042 23.878138 225.5073Q23.190638 224.71042 23.190638 223.55417Q23.190638 222.27292 24.034388 221.46042Q24.862513 220.6323 26.346888 220.6323Q27.550013 220.6323 28.237513 220.99167Q28.925013 221.35104 29.315638 222.05417Q29.690638 222.74167 29.690638 223.55417Q29.690638 224.85104 28.862513 225.66354Q28.018763 226.46042 26.440638 226.46042ZM26.440638 225.3823Q27.628138 225.3823 28.221888 224.86667Q28.815638 224.33542 28.815638 223.55417Q28.815638 222.7573 28.221888 222.24167Q27.628138 221.72604 26.409388 221.72604Q25.253138 221.72604 24.659388 222.2573Q24.065638 222.77292 24.065638 223.55417Q24.065638 224.33542 24.659388 224.86667Q25.237513 225.3823 26.440638 225.3823ZM27.268763 212.0073L27.409388 210.97604Q28.471888 211.14792 29.081263 211.85104Q29.690638 212.55417 29.690638 213.5698Q29.690638 214.85104 28.862513 215.6323Q28.018763 216.39792 26.456263 216.39792Q25.456263 216.39792 24.706263 216.0698Q23.940638 215.72604 23.565638 215.05417Q23.190638 214.36667 23.190638 213.55417Q23.190638 212.55417 23.706263 211.91354Q24.206263 211.2573 25.159388 211.0698L25.315638 212.10104Q24.690638 212.24167 24.378138 212.61667Q24.050013 212.99167 24.050013 213.52292Q24.050013 214.3198 24.628138 214.8198Q25.190638 215.3198 26.425013 215.3198Q27.690638 215.3198 28.253138 214.83542Q28.815638 214.35104 28.815638 213.58542Q28.815638 212.96042 28.440638 212.55417Q28.065638 212.1323 27.268763 212.0073ZM26.440638 210.46042Q24.706263 210.46042 23.878138 209.5073Q23.190638 208.71042 23.190638 207.55417Q23.190638 206.27292 24.034388 205.46042Q24.862513 204.6323 26.346888 204.6323Q27.550013 204.6323 28.237513 204.99167Q28.925013 205.35104 29.315638 206.05417Q29.690638 206.74167 29.690638 207.55417Q29.690638 208.85104 28.862513 209.66354Q28.018763 210.46042 26.440638 210.46042ZM26.440638 209.3823Q27.628138 209.3823 28.221888 208.86667Q28.815638 208.33542 28.815638 207.55417Q28.815638 206.7573 28.221888 206.24167Q27.628138 205.72604 26.409388 205.72604Q25.253138 205.72604 24.659388 206.2573Q24.065638 206.77292 24.065638 207.55417Q24.065638 208.33542 24.659388 208.86667Q25.237513 209.3823 26.440638 209.3823ZM29.550013 203.0698L23.331263 203.0698L23.331263 202.1323L24.206263 202.1323Q23.737513 201.83542 23.471888 201.35104Q23.190638 200.86667 23.190638 200.24167Q23.190638 199.55417 23.471888 199.11667Q23.753138 198.66354 24.268763 198.49167Q23.190638 197.74167 23.190638 196.5698Q23.190638 195.6323 23.706263 195.14792Q24.206263 194.64792 25.284388 194.64792L29.550013 194.64792L29.550013 195.6948L25.628138 195.6948Q25.003138 195.6948 24.721888 195.80417Q24.440638 195.89792 24.268763 196.16354Q24.096888 196.42917 24.096888 196.80417Q24.096888 197.46042 24.534388 197.89792Q24.971888 198.3198 25.940638 198.3198L29.550013 198.3198L29.550013 199.3823L25.503138 199.3823Q24.800013 199.3823 24.456263 199.64792Q24.096888 199.89792 24.096888 200.47604Q24.096888 200.92917 24.331263 201.30417Q24.565638 201.67917 25.018763 201.85104Q25.471888 202.02292 26.315638 202.02292L29.550013 202.02292L29.550013 203.0698ZM31.940638 192.0698L23.331263 192.0698L23.331263 191.11667L24.128138 191.11667Q23.659388 190.77292 23.425013 190.35104Q23.190638 189.91354 23.190638 189.30417Q23.190638 188.5073 23.596888 187.89792Q24.003138 187.28854 24.753138 186.99167Q25.503138 186.67917 26.393763 186.67917Q27.346888 186.67917 28.112513 187.02292Q28.878138 187.35104 29.284388 188.0073Q29.690638 188.66354 29.690638 189.3823Q29.690638 189.91354 29.471888 190.33542Q29.237513 190.7573 28.909388 191.02292L31.940638 191.02292L31.940638 192.0698ZM26.471888 191.11667Q27.675013 191.11667 28.253138 190.6323Q28.815638 190.14792 28.815638 189.46042Q28.815638 188.7573 28.221888 188.2573Q27.628138 187.7573 26.378138 187.7573Q25.190638 187.7573 24.612513 188.24167Q24.018763 188.72604 24.018763 189.41354Q24.018763 190.08542 24.643763 190.60104Q25.268763 191.11667 26.471888 191.11667ZM28.784388 181.0073Q29.284388 181.60104 29.487513 182.14792Q29.690638 182.67917 29.690638 183.30417Q29.690638 184.33542 29.190638 184.8823Q28.690638 185.42917 27.909388 185.42917Q27.456263 185.42917 27.081263 185.22604Q26.690638 185.02292 26.471888 184.67917Q26.237513 184.33542 26.128138 183.91354Q26.034388 183.61667 25.956263 182.97604Q25.815638 181.71042 25.596888 181.10104Q25.378138 181.10104 25.331263 181.10104Q24.675013 181.10104 24.409388 181.39792Q24.065638 181.80417 24.065638 182.60104Q24.065638 183.33542 24.331263 183.6948Q24.581263 184.05417 25.237513 184.22604L25.096888 185.2573Q24.440638 185.11667 24.034388 184.78854Q23.628138 184.46042 23.409388 183.85104Q23.190638 183.24167 23.190638 182.4448Q23.190638 181.64792 23.378138 181.14792Q23.565638 180.64792 23.846888 180.41354Q24.128138 180.17917 24.565638 180.08542Q24.831263 180.03854 25.534388 180.03854L26.940638 180.03854Q28.409388 180.03854 28.800013 179.97604Q29.190638 179.89792 29.550013 179.6948L29.550013 180.80417Q29.221888 180.96042 28.784388 181.0073ZM26.425013 181.10104Q26.659388 181.67917 26.831263 182.8198Q26.925013 183.47604 27.050013 183.74167Q27.159388 184.0073 27.378138 184.16354Q27.596888 184.30417 27.878138 184.30417Q28.300013 184.30417 28.581263 183.99167Q28.862513 183.66354 28.862513 183.05417Q28.862513 182.4448 28.596888 181.97604Q28.331263 181.49167 27.862513 181.27292Q27.503138 181.10104 26.815638 181.10104L26.425013 181.10104ZM27.268763 174.0073L27.409388 172.97604Q28.471888 173.14792 29.081263 173.85104Q29.690638 174.55417 29.690638 175.5698Q29.690638 176.85104 28.862513 177.6323Q28.018763 178.39792 26.456263 178.39792Q25.456263 178.39792 24.706263 178.0698Q23.940638 177.72604 23.565638 177.05417Q23.190638 176.36667 23.190638 175.55417Q23.190638 174.55417 23.706263 173.91354Q24.206263 173.2573 25.159388 173.0698L25.315638 174.10104Q24.690638 174.24167 24.378138 174.61667Q24.050013 174.99167 24.050013 175.52292Q24.050013 176.3198 24.628138 176.8198Q25.190638 177.3198 26.425013 177.3198Q27.690638 177.3198 28.253138 176.83542Q28.815638 176.35104 28.815638 175.58542Q28.815638 174.96042 28.440638 174.55417Q28.065638 174.1323 27.268763 174.0073ZM28.612513 169.77292L29.534388 169.61667Q29.628138 170.0698 29.628138 170.41354Q29.628138 170.99167 29.456263 171.30417Q29.268763 171.61667 28.971888 171.7573Q28.675013 171.8823 27.721888 171.8823L24.143763 171.8823L24.143763 172.64792L23.331263 172.64792L23.331263 171.8823L21.784388 171.8823L21.159388 170.83542L23.331263 170.83542L23.331263 169.77292L24.143763 169.77292L24.143763 170.83542L27.784388 170.83542Q28.237513 170.83542 28.362513 170.78854Q28.487513 170.72604 28.565638 170.60104Q28.643763 170.47604 28.643763 170.24167Q28.643763 170.05417 28.612513 169.77292ZM32.08126 164.05417Q30.971888 164.92917 29.503138 165.53854Q28.018763 166.1323 26.440638 166.1323Q25.050013 166.1323 23.768763 165.6948Q22.284388 165.16354 20.815638 164.05417L20.815638 163.30417Q22.034388 164.0073 22.550013 164.24167Q23.362513 164.60104 24.237513 164.80417Q25.331263 165.05417 26.440638 165.05417Q29.268763 165.05417 32.08126 163.30417L32.08126 164.05417ZM29.550013 162.0698L23.331263 162.0698L23.331263 161.1323L24.206263 161.1323Q23.737513 160.83542 23.471888 160.35104Q23.190638 159.86667 23.190638 159.24167Q23.190638 158.55417 23.471888 158.11667Q23.753138 157.66354 24.268763 157.49167Q23.190638 156.74167 23.190638 155.5698Q23.190638 154.6323 23.706263 154.14792Q24.206263 153.64792 25.284388 153.64792L29.550013 153.64792L29.550013 154.6948L25.628138 154.6948Q25.003138 154.6948 24.721888 154.80417Q24.440638 154.89792 24.268763 155.16354Q24.096888 155.42917 24.096888 155.80417Q24.096888 156.46042 24.534388 156.89792Q24.971888 157.3198 25.940638 157.3198L29.550013 157.3198L29.550013 158.3823L25.503138 158.3823Q24.800013 158.3823 24.456263 158.64792Q24.096888 158.89792 24.096888 159.47604Q24.096888 159.92917 24.331263 160.30417Q24.565638 160.67917 25.018763 160.85104Q25.471888 161.02292 26.315638 161.02292L29.550013 161.02292L29.550013 162.0698ZM27.690638 151.49167L27.534388 150.46042Q28.159388 150.36667 28.487513 149.97604Q28.815638 149.5698 28.815638 148.83542Q28.815638 148.11667 28.534388 147.77292Q28.237513 147.41354 27.831263 147.41354Q27.471888 147.41354 27.268763 147.72604Q27.128138 147.9448 26.909388 148.80417Q26.612513 149.96042 26.409388 150.41354Q26.190638 150.85104 25.815638 151.08542Q25.440638 151.3198 24.971888 151.3198Q24.565638 151.3198 24.206263 151.1323Q23.846888 150.9448 23.612513 150.61667Q23.440638 150.36667 23.315638 149.9448Q23.190638 149.52292 23.190638 149.02292Q23.190638 148.30417 23.409388 147.7573Q23.612513 147.1948 23.971888 146.92917Q24.331263 146.66354 24.925013 146.5698L25.065638 147.60104Q24.596888 147.66354 24.331263 148.0073Q24.050013 148.33542 24.050013 148.96042Q24.050013 149.67917 24.300013 149.99167Q24.534388 150.30417 24.862513 150.30417Q25.065638 150.30417 25.221888 150.17917Q25.393763 150.03854 25.503138 149.77292Q25.565638 149.61667 25.768763 148.83542Q26.081263 147.71042 26.268763 147.27292Q26.456263 146.83542 26.815638 146.58542Q27.175013 146.33542 27.721888 146.33542Q28.253138 146.33542 28.721888 146.64792Q29.175013 146.9448 29.440638 147.52292Q29.690638 148.10104 29.690638 148.83542Q29.690638 150.05417 29.190638 150.6948Q28.675013 151.3198 27.690638 151.49167ZM32.08126 143.3823L32.08126 144.1323Q29.268763 142.3823 26.440638 142.3823Q25.346888 142.3823 24.253138 142.6323Q23.378138 142.83542 22.565638 143.1948Q22.050013 143.42917 20.815638 144.1323L20.815638 143.3823Q22.284388 142.28854 23.768763 141.7573Q25.050013 141.30417 26.440638 141.30417Q28.018763 141.30417 29.503138 141.91354Q30.971888 142.52292 32.08126 143.3823Z" fill-rule="nonzero"/><path fill="#000000" d="M65.05 300.21564Q65.05 298.6844 65.3625 297.7625Q65.675 296.825 66.28438 296.325Q66.90938 295.825 67.84688 295.825Q68.53438 295.825 69.05 296.10626Q69.58125 296.3875 69.925 296.91876Q70.26875 297.4344 70.45625 298.1844Q70.64375 298.9344 70.64375 300.21564Q70.64375 301.73126 70.33125 302.65314Q70.03438 303.575 69.40938 304.09064Q68.8 304.59064 67.84688 304.59064Q66.6125 304.59064 65.89375 303.7Q65.05 302.6375 65.05 300.21564ZM66.12813 300.21564Q66.12813 302.325 66.62813 303.02814Q67.12813 303.73126 67.84688 303.73126Q68.58125 303.73126 69.06563 303.02814Q69.56563 302.325 69.56563 300.21564Q69.56563 298.09064 69.06563 297.40314Q68.58125 296.7 67.83125 296.7Q67.1125 296.7 66.675 297.3094Q66.12813 298.09064 66.12813 300.21564Z" fill-rule="nonzero"/><path fill="#000000" d="M62.01875 251.40834L60.971874 251.40834L60.971874 244.68959Q60.58125 245.04897 59.95625 245.42397Q59.346874 245.78334 58.8625 245.95522L58.8625 244.93959Q59.7375 244.51772 60.39375 243.93959Q61.065624 243.34584 61.346874 242.78334L62.01875 242.78334L62.01875 251.40834ZM65.05 247.17397Q65.05 245.64272 65.3625 244.72084Q65.675 243.78334 66.28438 243.28334Q66.90938 242.78334 67.84688 242.78334Q68.53438 242.78334 69.05 243.06459Q69.58125 243.34584 69.925 243.87709Q70.26875 244.39272 70.45625 245.14272Q70.64375 245.89272 70.64375 247.17397Q70.64375 248.68959 70.33125 249.61147Q70.03438 250.53334 69.40938 251.04897Q68.8 251.54897 67.84688 251.54897Q66.6125 251.54897 65.89375 250.65834Q65.05 249.59584 65.05 247.17397ZM66.12813 247.17397Q66.12813 249.28334 66.62813 249.98647Q67.12813 250.68959 67.84688 250.68959Q68.58125 250.68959 69.06563 249.98647Q69.56563 249.28334 69.56563 247.17397Q69.56563 245.04897 69.06563 244.36147Q68.58125 243.65834 67.83125 243.65834Q67.1125 243.65834 66.675 244.26772Q66.12813 245.04897 66.12813 247.17397Z" fill-rule="nonzero"/><path fill="#000000" d="M63.596874 197.35104L63.596874 198.36667L57.909374 198.36667Q57.909374 197.99167 58.034374 197.6323Q58.253124 197.05417 58.721874 196.49167Q59.20625 195.92917 60.1125 195.1948Q61.51875 194.03854 62.003124 193.36667Q62.503124 192.6948 62.503124 192.10104Q62.503124 191.47604 62.05 191.05417Q61.596874 190.61667 60.878124 190.61667Q60.1125 190.61667 59.659374 191.0698Q59.20625 191.52292 59.190624 192.33542L58.1125 192.22604Q58.221874 191.0073 58.940624 190.3823Q59.675 189.74167 60.909374 189.74167Q62.14375 189.74167 62.8625 190.42917Q63.58125 191.11667 63.58125 192.1323Q63.58125 192.64792 63.3625 193.14792Q63.159374 193.6323 62.659374 194.1948Q62.175 194.74167 61.05 195.6948Q60.096874 196.49167 59.815624 196.78854Q59.55 197.0698 59.378124 197.35104L63.596874 197.35104ZM65.05 194.1323Q65.05 192.60104 65.3625 191.67917Q65.675 190.74167 66.28438 190.24167Q66.90938 189.74167 67.84688 189.74167Q68.53438 189.74167 69.05 190.02292Q69.58125 190.30417 69.925 190.83542Q70.26875 191.35104 70.45625 192.10104Q70.64375 192.85104 70.64375 194.1323Q70.64375 195.64792 70.33125 196.5698Q70.03438 197.49167 69.40938 198.0073Q68.8 198.5073 67.84688 198.5073Q66.6125 198.5073 65.89375 197.61667Q65.05 196.55417 65.05 194.1323ZM66.12813 194.1323Q66.12813 196.24167 66.62813 196.9448Q67.12813 197.64792 67.84688 197.64792Q68.58125 197.64792 69.06563 196.9448Q69.56563 196.24167 69.56563 194.1323Q69.56563 192.0073 69.06563 191.3198Q68.58125 190.61667 67.83125 190.61667Q67.1125 190.61667 66.675 191.22604Q66.12813 192.0073 66.12813 194.1323Z" fill-rule="nonzero"/><path fill="#000000" d="M58.05 143.05937L59.1125 142.91875Q59.284374 143.80937 59.721874 144.21562Q60.159374 144.60625 60.784374 144.60625Q61.534374 144.60625 62.05 144.09062Q62.565624 143.575 62.565624 142.80937Q62.565624 142.09062 62.08125 141.62187Q61.6125 141.1375 60.878124 141.1375Q60.58125 141.1375 60.128124 141.2625L60.253124 140.325Q60.3625 140.34062 60.425 140.34062Q61.096874 140.34062 61.628124 139.99687Q62.175 139.6375 62.175 138.90312Q62.175 138.325 61.784374 137.95Q61.39375 137.55937 60.76875 137.55937Q60.159374 137.55937 59.7375 137.95Q59.33125 138.34062 59.221874 139.10625L58.159374 138.91875Q58.346874 137.87187 59.034374 137.29375Q59.721874 136.7 60.7375 136.7Q61.440624 136.7 62.034374 137.0125Q62.628124 137.30937 62.940624 137.825Q63.253124 138.34062 63.253124 138.93437Q63.253124 139.48125 62.95625 139.95Q62.659374 140.40312 62.08125 140.66875Q62.83125 140.84062 63.253124 141.40312Q63.675 141.95 63.675 142.79375Q63.675 143.91875 62.846874 144.7Q62.034374 145.48125 60.784374 145.48125Q59.659374 145.48125 58.909374 144.80937Q58.159374 144.12187 58.05 143.05937ZM65.05 141.09062Q65.05 139.55937 65.3625 138.6375Q65.675 137.7 66.28438 137.2Q66.90938 136.7 67.84688 136.7Q68.53438 136.7 69.05 136.98125Q69.58125 137.2625 69.925 137.79375Q70.26875 138.30937 70.45625 139.05937Q70.64375 139.80937 70.64375 141.09062Q70.64375 142.60625 70.33125 143.52812Q70.03438 144.45 69.40938 144.96562Q68.8 145.46562 67.84688 145.46562Q66.6125 145.46562 65.89375 144.575Q65.05 143.5125 65.05 141.09062ZM66.12813 141.09062Q66.12813 143.2 66.62813 143.90312Q67.12813 144.60625 67.84688 144.60625Q68.58125 144.60625 69.06563 143.90312Q69.56563 143.2 69.56563 141.09062Q69.56563 138.96562 69.06563 138.27812Q68.58125 137.575 67.83125 137.575Q67.1125 137.575 66.675 138.18437Q66.12813 138.96562 66.12813 141.09062Z" fill-rule="nonzero"/><path fill="#000000" d="M61.425 92.28333L61.425 90.22083L57.70625 90.22083L57.70625 89.25208L61.628124 83.68958L62.4875 83.68958L62.4875 89.25208L63.64375 89.25208L63.64375 90.22083L62.4875 90.22083L62.4875 92.28333L61.425 92.28333ZM61.425 89.25208L61.425 85.39271L58.7375 89.25208L61.425 89.25208ZM65.05 88.04896Q65.05 86.51771 65.3625 85.59583Q65.675 84.65833 66.28438 84.15833Q66.90938 83.65833 67.84688 83.65833Q68.53438 83.65833 69.05 83.93958Q69.58125 84.22083 69.925 84.75208Q70.26875 85.26771 70.45625 86.01771Q70.64375 86.76771 70.64375 88.04896Q70.64375 89.56458 70.33125 90.48646Q70.03438 91.40833 69.40938 91.92396Q68.8 92.42396 67.84688 92.42396Q66.6125 92.42396 65.89375 91.53333Q65.05 90.47083 65.05 88.04896ZM66.12813 88.04896Q66.12813 90.15833 66.62813 90.86146Q67.12813 91.56458 67.84688 91.56458Q68.58125 91.56458 69.06563 90.86146Q69.56563 90.15833 69.56563 88.04896Q69.56563 85.92396 69.06563 85.23646Q68.58125 84.53333 67.83125 84.53333Q67.1125 84.53333 66.675 85.14271Q66.12813 85.92396 66.12813 88.04896Z" fill-rule="nonzero"/><path fill="#000000" d="M75.01875 317.45L73.97188 317.45L73.97188 310.73126Q73.58125 311.09064 72.95625 311.46564Q72.34688 311.825 71.8625 311.9969L71.8625 310.98126Q72.7375 310.5594 73.39375 309.98126Q74.06563 309.3875 74.34688 308.825L75.01875 308.825L75.01875 317.45ZM78.05 313.21564Q78.05 311.6844 78.3625 310.7625Q78.675 309.825 79.28438 309.325Q79.90938 308.825 80.84688 308.825Q81.53438 308.825 82.05 309.10626Q82.58125 309.3875 82.925 309.91876Q83.26875 310.4344 83.45625 311.1844Q83.64375 311.9344 83.64375 313.21564Q83.64375 314.73126 83.33125 315.65314Q83.03438 316.575 82.40938 317.09064Q81.8 317.59064 80.84688 317.59064Q79.6125 317.59064 78.89375 316.7Q78.05 315.6375 78.05 313.21564ZM79.12813 313.21564Q79.12813 315.325 79.62813 316.02814Q80.12813 316.73126 80.84688 316.73126Q81.58125 316.73126 82.06563 316.02814Q82.56563 315.325 82.56563 313.21564Q82.56563 311.09064 82.06563 310.40314Q81.58125 309.7 80.83125 309.7Q80.1125 309.7 79.675 310.3094Q79.12813 311.09064 79.12813 313.21564Z" fill-rule="nonzero"/><path fill="#000000" d="M147.00447 317.45L145.9576 317.45L145.9576 310.73126Q145.56697 311.09064 144.94197 311.46564Q144.3326 311.825 143.84822 311.9969L143.84822 310.98126Q144.72322 310.5594 145.37947 309.98126Q146.05135 309.3875 146.3326 308.825L147.00447 308.825L147.00447 317.45ZM155.5826 316.4344L155.5826 317.45L149.8951 317.45Q149.8951 317.075 150.0201 316.71564Q150.23885 316.1375 150.7076 315.575Q151.19197 315.0125 152.09822 314.27814Q153.50447 313.1219 153.98885 312.45Q154.48885 311.77814 154.48885 311.1844Q154.48885 310.5594 154.03572 310.1375Q153.5826 309.7 152.86385 309.7Q152.09822 309.7 151.6451 310.15314Q151.19197 310.60626 151.17635 311.41876L150.09822 311.3094Q150.2076 310.09064 150.92635 309.46564Q151.66072 308.825 152.8951 308.825Q154.12947 308.825 154.84822 309.5125Q155.56697 310.2 155.56697 311.21564Q155.56697 311.73126 155.34822 312.23126Q155.1451 312.71564 154.6451 313.27814Q154.16072 313.825 153.03572 314.77814Q152.0826 315.575 151.80135 315.8719Q151.53572 316.15314 151.36385 316.4344L155.5826 316.4344Z" fill-rule="nonzero"/><path fill="#000000" d="M218.99017 317.45L217.9433 317.45L217.9433 310.73126Q217.55267 311.09064 216.92767 311.46564Q216.3183 311.825 215.83392 311.9969L215.83392 310.98126Q216.70892 310.5594 217.36517 309.98126Q218.03705 309.3875 218.3183 308.825L218.99017 308.825L218.99017 317.45ZM225.39642 317.45L225.39642 315.3875L221.67767 315.3875L221.67767 314.41876L225.59955 308.85626L226.45892 308.85626L226.45892 314.41876L227.61517 314.41876L227.61517 315.3875L226.45892 315.3875L226.45892 317.45L225.39642 317.45ZM225.39642 314.41876L225.39642 310.5594L222.70892 314.41876L225.39642 314.41876Z" fill-rule="nonzero"/><path fill="#000000" d="M290.9759 317.45L289.92902 317.45L289.92902 310.73126Q289.5384 311.09064 288.9134 311.46564Q288.30402 311.825 287.81964 311.9969L287.81964 310.98126Q288.69464 310.5594 289.3509 309.98126Q290.02277 309.3875 290.30402 308.825L290.9759 308.825L290.9759 317.45ZM299.4759 310.96564L298.42902 311.04376Q298.2884 310.41876 298.0384 310.1375Q297.6009 309.6844 296.9759 309.6844Q296.4759 309.6844 296.08527 309.96564Q295.6009 310.34064 295.30402 311.04376Q295.02277 311.73126 295.00714 313.0125Q295.38214 312.4344 295.92902 312.15314Q296.49152 311.8719 297.1009 311.8719Q298.14777 311.8719 298.88214 312.65314Q299.63214 313.4344 299.63214 314.65314Q299.63214 315.46564 299.27277 316.16876Q298.92902 316.85626 298.31964 317.23126Q297.71027 317.59064 296.94464 317.59064Q295.61652 317.59064 294.7884 316.6219Q293.96027 315.65314 293.96027 313.4344Q293.96027 310.9344 294.88214 309.8094Q295.67902 308.825 297.0384 308.825Q298.05402 308.825 298.69464 309.40314Q299.3509 309.96564 299.4759 310.96564ZM295.17902 314.66876Q295.17902 315.21564 295.39777 315.71564Q295.63214 316.2 296.0384 316.46564Q296.46027 316.73126 296.92902 316.73126Q297.58527 316.73126 298.06964 316.2Q298.55402 315.65314 298.55402 314.73126Q298.55402 313.84064 298.06964 313.325Q297.6009 312.8094 296.88214 312.8094Q296.1634 312.8094 295.6634 313.325Q295.17902 313.84064 295.17902 314.66876Z" fill-rule="nonzero"/><path fill="#000000" d="M362.9616 317.45L361.91473 317.45L361.91473 310.73126Q361.5241 311.09064 360.8991 311.46564Q360.28973 311.825 359.80536 311.9969L359.80536 310.98126Q360.68036 310.5594 361.3366 309.98126Q362.00848 309.3875 362.28973 308.825L362.9616 308.825L362.9616 317.45ZM367.61786 312.79376Q366.9616 312.54376 366.63348 312.10626Q366.32098 311.65314 366.32098 311.04376Q366.32098 310.10626 366.99286 309.46564Q367.68036 308.825 368.78973 308.825Q369.91473 308.825 370.60223 309.48126Q371.28973 310.1375 371.28973 311.075Q371.28973 311.66876 370.97723 312.10626Q370.66473 312.54376 370.0241 312.79376Q370.82098 313.04376 371.22723 313.6219Q371.63348 314.2 371.63348 314.9969Q371.63348 316.09064 370.85223 316.84064Q370.0866 317.59064 368.80536 317.59064Q367.53973 317.59064 366.75848 316.84064Q365.97723 316.09064 365.97723 314.96564Q365.97723 314.1219 366.3991 313.5594Q366.8366 312.9969 367.61786 312.79376ZM367.3991 310.9969Q367.3991 311.60626 367.78973 311.9969Q368.19598 312.3875 368.82098 312.3875Q369.43036 312.3875 369.82098 312.0125Q370.2116 311.6219 370.2116 311.0594Q370.2116 310.48126 369.80536 310.09064Q369.3991 309.6844 368.80536 309.6844Q368.19598 309.6844 367.78973 310.075Q367.3991 310.46564 367.3991 310.9969ZM367.07098 314.96564Q367.07098 315.41876 367.2741 315.84064Q367.49286 316.2625 367.91473 316.4969Q368.3366 316.73126 368.82098 316.73126Q369.57098 316.73126 370.05536 316.2469Q370.55536 315.7625 370.55536 315.0125Q370.55536 314.2469 370.05536 313.7469Q369.55536 313.2469 368.78973 313.2469Q368.03973 313.2469 367.55536 313.7469Q367.07098 314.23126 367.07098 314.96564Z" fill-rule="nonzero"/><path fill="#000000" d="M436.52545 316.4344L436.52545 317.45L430.83795 317.45Q430.83795 317.075 430.96295 316.71564Q431.1817 316.1375 431.65045 315.575Q432.13483 315.0125 433.04108 314.27814Q434.44733 313.1219 434.9317 312.45Q435.4317 311.77814 435.4317 311.1844Q435.4317 310.5594 434.97858 310.1375Q434.52545 309.7 433.8067 309.7Q433.04108 309.7 432.58795 310.15314Q432.13483 310.60626 432.1192 311.41876L431.04108 311.3094Q431.15045 310.09064 431.8692 309.46564Q432.60358 308.825 433.83795 308.825Q435.07233 308.825 435.79108 309.5125Q436.50983 310.2 436.50983 311.21564Q436.50983 311.73126 436.29108 312.23126Q436.08795 312.71564 435.58795 313.27814Q435.10358 313.825 433.97858 314.77814Q433.02545 315.575 432.7442 315.8719Q432.47858 316.15314 432.3067 316.4344L436.52545 316.4344ZM437.97858 313.21564Q437.97858 311.6844 438.29108 310.7625Q438.60358 309.825 439.21295 309.325Q439.83795 308.825 440.77545 308.825Q441.46295 308.825 441.97858 309.10626Q442.50983 309.3875 442.85358 309.91876Q443.19733 310.4344 443.38483 311.1844Q443.57233 311.9344 443.57233 313.21564Q443.57233 314.73126 443.25983 315.65314Q442.96295 316.575 442.33795 317.09064Q441.72858 317.59064 440.77545 317.59064Q439.54108 317.59064 438.82233 316.7Q437.97858 315.6375 437.97858 313.21564ZM439.0567 313.21564Q439.0567 315.325 439.5567 316.02814Q440.0567 316.73126 440.77545 316.73126Q441.50983 316.73126 441.9942 316.02814Q442.4942 315.325 442.4942 313.21564Q442.4942 311.09064 441.9942 310.40314Q441.50983 309.7 440.75983 309.7Q440.04108 309.7 439.60358 310.3094Q439.0567 311.09064 439.0567 313.21564Z" fill-rule="nonzero"/><path fill="#000000" d="M508.51117 316.4344L508.51117 317.45L502.82367 317.45Q502.82367 317.075 502.94867 316.71564Q503.16742 316.1375 503.63617 315.575Q504.12054 315.0125 505.0268 314.27814Q506.43304 313.1219 506.91742 312.45Q507.41742 311.77814 507.41742 311.1844Q507.41742 310.5594 506.9643 310.1375Q506.51117 309.7 505.79242 309.7Q505.0268 309.7 504.57367 310.15314Q504.12054 310.60626 504.10492 311.41876L503.0268 311.3094Q503.13617 310.09064 503.85492 309.46564Q504.5893 308.825 505.82367 308.825Q507.05804 308.825 507.7768 309.5125Q508.49554 310.2 508.49554 311.21564Q508.49554 311.73126 508.2768 312.23126Q508.07367 312.71564 507.57367 313.27814Q507.0893 313.825 505.9643 314.77814Q505.01117 315.575 504.72992 315.8719Q504.4643 316.15314 504.29242 316.4344L508.51117 316.4344ZM515.51117 316.4344L515.51117 317.45L509.82367 317.45Q509.82367 317.075 509.94867 316.71564Q510.16742 316.1375 510.63617 315.575Q511.12054 315.0125 512.0268 314.27814Q513.43304 313.1219 513.9174 312.45Q514.4174 311.77814 514.4174 311.1844Q514.4174 310.5594 513.9643 310.1375Q513.51117 309.7 512.7924 309.7Q512.0268 309.7 511.57367 310.15314Q511.12054 310.60626 511.10492 311.41876L510.0268 311.3094Q510.13617 310.09064 510.85492 309.46564Q511.5893 308.825 512.82367 308.825Q514.05804 308.825 514.7768 309.5125Q515.49554 310.2 515.49554 311.21564Q515.49554 311.73126 515.2768 312.23126Q515.07367 312.71564 514.57367 313.27814Q514.0893 313.825 512.9643 314.77814Q512.01117 315.575 511.72992 315.8719Q511.4643 316.15314 511.29242 316.4344L515.51117 316.4344Z" fill-rule="nonzero"/><path fill="#000000" d="M580.4969 316.4344L580.4969 317.45L574.8094 317.45Q574.8094 317.075 574.9344 316.71564Q575.15314 316.1375 575.6219 315.575Q576.10626 315.0125 577.0125 314.27814Q578.41876 313.1219 578.90314 312.45Q579.40314 311.77814 579.40314 311.1844Q579.40314 310.5594 578.95 310.1375Q578.4969 309.7 577.77814 309.7Q577.0125 309.7 576.5594 310.15314Q576.10626 310.60626 576.09064 311.41876L575.0125 311.3094Q575.1219 310.09064 575.84064 309.46564Q576.575 308.825 577.8094 308.825Q579.04376 308.825 579.7625 309.5125Q580.48126 310.2 580.48126 311.21564Q580.48126 311.73126 580.2625 312.23126Q580.0594 312.71564 579.5594 313.27814Q579.075 313.825 577.95 314.77814Q576.9969 315.575 576.71564 315.8719Q576.45 316.15314 576.27814 316.4344L580.4969 316.4344ZM585.325 317.45L585.325 315.3875L581.60626 315.3875L581.60626 314.41876L585.52814 308.85626L586.3875 308.85626L586.3875 314.41876L587.54376 314.41876L587.54376 315.3875L586.3875 315.3875L586.3875 317.45L585.325 317.45ZM585.325 314.41876L585.325 310.5594L582.6375 314.41876L585.325 314.41876Z" fill-rule="nonzero"/><path stroke="#4285f4" stroke-width="4.0" stroke-linecap="butt" d="M237.5 61.916668L249.5 61.916668" fill-rule="nonzero"/><path fill="#1a1a1a" d="M264.5625 62.90104L265.6875 63.197914Q265.32812 64.58854 264.40625 65.322914Q263.48438 66.05729 262.14062 66.05729Q260.75 66.05729 259.875 65.49479Q259.0 64.93229 258.54688 63.86979Q258.09375 62.791664 258.09375 61.55729Q258.09375 60.21354 258.60938 59.21354Q259.125 58.21354 260.0625 57.697914Q261.01562 57.18229 262.15625 57.18229Q263.4375 57.18229 264.3125 57.83854Q265.20312 58.49479 265.54688 59.68229L264.42188 59.947914Q264.125 59.010414 263.54688 58.58854Q262.98438 58.15104 262.125 58.15104Q261.14062 58.15104 260.46875 58.635414Q259.8125 59.104164 259.53125 59.90104Q259.26562 60.697914 259.26562 61.55729Q259.26562 62.65104 259.57812 63.46354Q259.90625 64.27604 260.57812 64.68229Q261.25 65.08854 262.04688 65.08854Q263.0 65.08854 263.65625 64.541664Q264.32812 63.99479 264.5625 62.90104ZM267.42188 65.916664L267.42188 57.322914L270.67188 57.322914Q271.51562 57.322914 271.96875 57.40104Q272.60938 57.510414 273.03125 57.80729Q273.46875 58.104164 273.71875 58.635414Q273.98438 59.166664 273.98438 59.80729Q273.98438 60.90104 273.28125 61.666664Q272.59375 62.416664 270.76562 62.416664L268.5625 62.416664L268.5625 65.916664L267.42188 65.916664ZM268.5625 61.416664L270.78125 61.416664Q271.89062 61.416664 272.34375 61.010414Q272.8125 60.58854 272.8125 59.83854Q272.8125 59.30729 272.53125 58.93229Q272.26562 58.541664 271.82812 58.416664Q271.53125 58.33854 270.76562 58.33854L268.5625 58.33854L268.5625 61.416664ZM281.0625 57.322914L282.20312 57.322914L282.20312 62.291664Q282.20312 63.58854 281.90625 64.354164Q281.60938 65.104164 280.84375 65.58854Q280.07812 66.05729 278.84375 66.05729Q277.64062 66.05729 276.85938 65.65104Q276.09375 65.229164 275.76562 64.447914Q275.4375 63.65104 275.4375 62.291664L275.4375 57.322914L276.57812 57.322914L276.57812 62.27604Q276.57812 63.40104 276.78125 63.93229Q277.0 64.46354 277.5 64.760414Q278.01562 65.041664 278.75 65.041664Q280.0 65.041664 280.53125 64.479164Q281.0625 63.90104 281.0625 62.27604L281.0625 57.322914Z" fill-rule="nonzero"/><path stroke="#ea4335" stroke-width="4.0" stroke-linecap="butt" d="M299.5 61.916668L311.5 61.916668" fill-rule="nonzero"/><path fill="#1a1a1a" d="M320.45312 65.916664L320.45312 57.322914L326.65625 57.322914L326.65625 58.33854L321.59375 58.33854L321.59375 60.96354L326.34375 60.96354L326.34375 61.979164L321.59375 61.979164L321.59375 64.90104L326.85938 64.90104L326.85938 65.916664L320.45312 65.916664ZM328.54688 65.916664L328.54688 60.510414L327.60938 60.510414L327.60938 59.697914L328.54688 59.697914L328.54688 59.02604Q328.54688 58.40104 328.65625 58.104164Q328.8125 57.68229 329.1875 57.43229Q329.57812 57.18229 330.26562 57.18229Q330.71875 57.18229 331.25 57.291664L331.09375 58.197914Q330.76562 58.15104 330.46875 58.15104Q329.98438 58.15104 329.78125 58.354164Q329.59375 58.55729 329.59375 59.11979L329.59375 59.697914L330.8125 59.697914L330.8125 60.510414L329.59375 60.510414L329.59375 65.916664L328.54688 65.916664ZM331.54688 65.916664L331.54688 60.510414L330.60938 60.510414L330.60938 59.697914L331.54688 59.697914L331.54688 59.02604Q331.54688 58.40104 331.65625 58.104164Q331.8125 57.68229 332.1875 57.43229Q332.57812 57.18229 333.26562 57.18229Q333.71875 57.18229 334.25 57.291664L334.09375 58.197914Q333.76562 58.15104 333.46875 58.15104Q332.98438 58.15104 332.78125 58.354164Q332.59375 58.55729 332.59375 59.11979L332.59375 59.697914L333.8125 59.697914L333.8125 60.510414L332.59375 60.510414L332.59375 65.916664L331.54688 65.916664ZM334.29688 58.541664L334.29688 57.322914L335.35938 57.322914L335.35938 58.541664L334.29688 58.541664ZM334.29688 65.916664L334.29688 59.697914L335.35938 59.697914L335.35938 65.916664L334.29688 65.916664ZM341.35938 63.635414L342.39062 63.77604Q342.21875 64.83854 341.51562 65.447914Q340.8125 66.05729 339.79688 66.05729Q338.51562 66.05729 337.73438 65.229164Q336.96875 64.385414 336.96875 62.822914Q336.96875 61.822914 337.29688 61.072914Q337.64062 60.30729 338.3125 59.93229Q339.0 59.55729 339.8125 59.55729Q340.8125 59.55729 341.45312 60.072914Q342.10938 60.572914 342.29688 61.52604L341.26562 61.68229Q341.125 61.05729 340.75 60.74479Q340.375 60.416664 339.84375 60.416664Q339.04688 60.416664 338.54688 60.99479Q338.04688 61.55729 338.04688 62.791664Q338.04688 64.05729 338.53125 64.61979Q339.01562 65.18229 339.78125 65.18229Q340.40625 65.18229 340.8125 64.80729Q341.23438 64.43229 341.35938 63.635414ZM343.29688 58.541664L343.29688 57.322914L344.35938 57.322914L344.35938 58.541664L343.29688 58.541664ZM343.29688 65.916664L343.29688 59.697914L344.35938 59.697914L344.35938 65.916664L343.29688 65.916664ZM350.54688 63.916664L351.64062 64.041664Q351.39062 64.99479 350.6875 65.52604Q349.98438 66.05729 348.90625 66.05729Q347.54688 66.05729 346.73438 65.21354Q345.9375 64.36979 345.9375 62.854164Q345.9375 61.291664 346.75 60.43229Q347.5625 59.55729 348.84375 59.55729Q350.09375 59.55729 350.875 60.40104Q351.67188 61.24479 351.67188 62.791664Q351.67188 62.885414 351.67188 63.072914L347.03125 63.072914Q347.09375 64.104164 347.60938 64.65104Q348.125 65.18229 348.90625 65.18229Q349.48438 65.18229 349.89062 64.885414Q350.3125 64.572914 350.54688 63.916664ZM347.09375 62.21354L350.5625 62.21354Q350.5 61.416664 350.17188 61.02604Q349.65625 60.416664 348.85938 60.416664Q348.125 60.416664 347.625 60.90104Q347.14062 61.385414 347.09375 62.21354ZM353.29688 65.916664L353.29688 59.697914L354.23438 59.697914L354.23438 60.572914Q354.92188 59.55729 356.21875 59.55729Q356.78125 59.55729 357.25 59.760414Q357.73438 59.96354 357.96875 60.291664Q358.20312 60.61979 358.29688 61.05729Q358.34375 61.354164 358.34375 62.08854L358.34375 65.916664L357.29688 65.916664L357.29688 62.135414Q357.29688 61.479164 357.17188 61.166664Q357.04688 60.854164 356.73438 60.666664Q356.42188 60.46354 356.0 60.46354Q355.32812 60.46354 354.82812 60.90104Q354.34375 61.322914 354.34375 62.510414L354.34375 65.916664L353.29688 65.916664ZM362.59375 64.979164L362.75 65.90104Q362.29688 65.99479 361.95312 65.99479Q361.375 65.99479 361.0625 65.822914Q360.75 65.635414 360.60938 65.33854Q360.48438 65.041664 360.48438 64.08854L360.48438 60.510414L359.71875 60.510414L359.71875 59.697914L360.48438 59.697914L360.48438 58.15104L361.53125 57.52604L361.53125 59.697914L362.59375 59.697914L362.59375 60.510414L361.53125 60.510414L361.53125 64.15104Q361.53125 64.604164 361.57812 64.729164Q361.64062 64.854164 361.76562 64.93229Q361.89062 65.010414 362.125 65.010414Q362.3125 65.010414 362.59375 64.979164Z" fill-rule="nonzero"/><path fill="#757575" d="M136.76562 32.534374L138.65625 33.003124Q138.0625 35.346874 136.51562 36.58125Q134.96875 37.8 132.71875 37.8Q130.40625 37.8 128.95312 36.8625Q127.515625 35.909374 126.75 34.128124Q126.0 32.33125 126.0 30.284374Q126.0 28.05 126.84375 26.39375Q127.703125 24.721874 129.28125 23.8625Q130.85938 22.9875 132.75 22.9875Q134.90625 22.9875 136.35938 24.08125Q137.82812 25.175 138.40625 27.159374L136.54688 27.596874Q136.04688 26.034374 135.09375 25.33125Q134.15625 24.6125 132.71875 24.6125Q131.0625 24.6125 129.95312 25.409374Q128.84375 26.190624 128.39062 27.534374Q127.953125 28.8625 127.953125 30.26875Q127.953125 32.096874 128.48438 33.471874Q129.01562 34.83125 130.14062 35.503124Q131.26562 36.175 132.5625 36.175Q134.15625 36.175 135.26562 35.253124Q136.375 34.33125 136.76562 32.534374ZM139.67188 32.3625Q139.67188 29.4875 141.26562 28.096874Q142.60938 26.940624 144.53125 26.940624Q146.67188 26.940624 148.01562 28.346874Q149.375 29.753124 149.375 32.221874Q149.375 34.221874 148.78125 35.378124Q148.1875 36.51875 147.03125 37.159374Q145.89062 37.784374 144.53125 37.784374Q142.34375 37.784374 141.0 36.39375Q139.67188 34.9875 139.67188 32.3625ZM141.46875 32.3625Q141.46875 34.3625 142.32812 35.346874Q143.20312 36.33125 144.53125 36.33125Q145.84375 36.33125 146.70312 35.346874Q147.57812 34.346874 147.57812 32.3Q147.57812 30.378124 146.70312 29.39375Q145.82812 28.39375 144.53125 28.39375Q143.20312 28.39375 142.32812 29.39375Q141.46875 30.378124 141.46875 32.3625ZM151.3125 37.55L151.3125 27.175L152.89062 27.175L152.89062 28.628124Q153.375 27.878124 154.1875 27.409374Q155.0 26.940624 156.03125 26.940624Q157.1875 26.940624 157.92188 27.425Q158.65625 27.89375 158.96875 28.753124Q160.20312 26.940624 162.17188 26.940624Q163.71875 26.940624 164.54688 27.8Q165.375 28.659374 165.375 30.425L165.375 37.55L163.625 37.55L163.625 31.01875Q163.625 29.95625 163.45312 29.503124Q163.28125 29.034374 162.82812 28.753124Q162.39062 28.471874 161.78125 28.471874Q160.6875 28.471874 159.95312 29.20625Q159.23438 29.925 159.23438 31.51875L159.23438 37.55L157.48438 37.55L157.48438 30.815624Q157.48438 29.64375 157.04688 29.065624Q156.625 28.471874 155.64062 28.471874Q154.90625 28.471874 154.26562 28.8625Q153.64062 29.253124 153.35938 30.003124Q153.07812 30.753124 153.07812 32.175L153.07812 37.55L151.3125 37.55ZM167.3125 41.51875L167.3125 27.175L168.92188 27.175L168.92188 28.51875Q169.48438 27.7375 170.1875 27.346874Q170.90625 26.940624 171.92188 26.940624Q173.25 26.940624 174.26562 27.628124Q175.28125 28.315624 175.79688 29.565624Q176.32812 30.8 176.32812 32.284374Q176.32812 33.878124 175.75 35.159374Q175.1875 36.425 174.09375 37.1125Q173.0 37.784374 171.79688 37.784374Q170.92188 37.784374 170.21875 37.409374Q169.53125 37.034374 169.07812 36.471874L169.07812 41.51875L167.3125 41.51875ZM168.90625 32.425Q168.90625 34.425 169.71875 35.378124Q170.53125 36.33125 171.6875 36.33125Q172.85938 36.33125 173.6875 35.346874Q174.53125 34.3625 174.53125 32.26875Q174.53125 30.3 173.70312 29.315624Q172.89062 28.315624 171.76562 28.315624Q170.64062 28.315624 169.76562 29.378124Q168.90625 30.425 168.90625 32.425ZM185.09375 36.26875Q184.10938 37.096874 183.20312 37.440624Q182.29688 37.784374 181.26562 37.784374Q179.5625 37.784374 178.64062 36.95625Q177.71875 36.1125 177.71875 34.815624Q177.71875 34.05 178.0625 33.425Q178.42188 32.8 178.98438 32.425Q179.54688 32.034374 180.25 31.83125Q180.76562 31.70625 181.8125 31.565624Q183.9375 31.315624 184.9375 30.971874Q184.95312 30.6125 184.95312 30.503124Q184.95312 29.440624 184.45312 28.9875Q183.78125 28.39375 182.45312 28.39375Q181.20312 28.39375 180.60938 28.83125Q180.03125 29.26875 179.75 30.378124L178.03125 30.14375Q178.26562 29.034374 178.79688 28.3625Q179.32812 27.675 180.34375 27.315624Q181.35938 26.940624 182.70312 26.940624Q184.03125 26.940624 184.85938 27.253124Q185.6875 27.565624 186.07812 28.05Q186.46875 28.51875 186.625 29.2375Q186.71875 29.690624 186.71875 30.8625L186.71875 33.20625Q186.71875 35.659374 186.82812 36.315624Q186.9375 36.95625 187.28125 37.55L185.4375 37.55Q185.17188 37.003124 185.09375 36.26875ZM184.9375 32.346874Q183.98438 32.7375 182.0625 33.003124Q180.98438 33.159374 180.53125 33.3625Q180.09375 33.55 179.84375 33.925Q179.59375 34.3 179.59375 34.76875Q179.59375 35.471874 180.125 35.940624Q180.65625 36.409374 181.6875 36.409374Q182.70312 36.409374 183.48438 35.971874Q184.28125 35.51875 184.65625 34.753124Q184.9375 34.14375 184.9375 32.9875L184.9375 32.346874ZM196.09375 33.753124L197.8125 33.971874Q197.53125 35.76875 196.35938 36.784374Q195.20312 37.784374 193.5 37.784374Q191.375 37.784374 190.07812 36.39375Q188.78125 35.003124 188.78125 32.409374Q188.78125 30.721874 189.32812 29.471874Q189.89062 28.20625 191.03125 27.58125Q192.17188 26.940624 193.51562 26.940624Q195.20312 26.940624 196.26562 27.8Q197.34375 28.659374 197.65625 30.221874L195.9375 30.4875Q195.70312 29.440624 195.07812 28.925Q194.45312 28.39375 193.57812 28.39375Q192.25 28.39375 191.42188 29.346874Q190.59375 30.3 190.59375 32.346874Q190.59375 34.440624 191.39062 35.39375Q192.1875 36.33125 193.48438 36.33125Q194.51562 36.33125 195.20312 35.70625Q195.90625 35.065624 196.09375 33.753124ZM203.15625 35.971874L203.40625 37.534374Q202.67188 37.690624 202.07812 37.690624Q201.125 37.690624 200.59375 37.39375Q200.07812 37.08125 199.85938 36.596874Q199.64062 36.096874 199.64062 34.51875L199.64062 28.55L198.35938 28.55L198.35938 27.175L199.64062 27.175L199.64062 24.6125L201.39062 23.55L201.39062 27.175L203.15625 27.175L203.15625 28.55L201.39062 28.55L201.39062 34.6125Q201.39062 35.3625 201.48438 35.58125Q201.57812 35.784374 201.78125 35.925Q202.0 36.05 202.39062 36.05Q202.67188 36.05 203.15625 35.971874ZM215.1875 37.55L215.1875 24.925L210.46875 24.925L210.46875 23.2375L221.8125 23.2375L221.8125 24.925L217.07812 24.925L217.07812 37.55L215.1875 37.55ZM223.32812 25.253124L223.32812 23.2375L225.09375 23.2375L225.09375 25.253124L223.32812 25.253124ZM223.32812 37.55L223.32812 27.175L225.09375 27.175L225.09375 37.55L223.32812 37.55ZM227.3125 37.55L227.3125 27.175L228.89062 27.175L228.89062 28.628124Q229.375 27.878124 230.1875 27.409374Q231.0 26.940624 232.03125 26.940624Q233.1875 26.940624 233.92188 27.425Q234.65625 27.89375 234.96875 28.753124Q236.20312 26.940624 238.17188 26.940624Q239.71875 26.940624 240.54688 27.8Q241.375 28.659374 241.375 30.425L241.375 37.55L239.625 37.55L239.625 31.01875Q239.625 29.95625 239.45312 29.503124Q239.28125 29.034374 238.82812 28.753124Q238.39062 28.471874 237.78125 28.471874Q236.6875 28.471874 235.95312 29.20625Q235.23438 29.925 235.23438 31.51875L235.23438 37.55L233.48438 37.55L233.48438 30.815624Q233.48438 29.64375 233.04688 29.065624Q232.625 28.471874 231.64062 28.471874Q230.90625 28.471874 230.26562 28.8625Q229.64062 29.253124 229.35938 30.003124Q229.07812 30.753124 229.07812 32.175L229.07812 37.55L227.3125 37.55ZM250.42188 34.20625L252.23438 34.440624Q251.8125 36.01875 250.64062 36.909374Q249.48438 37.784374 247.67188 37.784374Q245.40625 37.784374 244.0625 36.39375Q242.73438 34.9875 242.73438 32.45625Q242.73438 29.83125 244.07812 28.39375Q245.42188 26.940624 247.57812 26.940624Q249.65625 26.940624 250.96875 28.3625Q252.29688 29.76875 252.29688 32.346874Q252.29688 32.503124 252.28125 32.815624L244.54688 32.815624Q244.64062 34.51875 245.51562 35.425Q246.39062 36.33125 247.6875 36.33125Q248.65625 36.33125 249.32812 35.83125Q250.01562 35.315624 250.42188 34.20625ZM244.64062 31.3625L250.4375 31.3625Q250.32812 30.065624 249.78125 29.409374Q248.9375 28.39375 247.59375 28.39375Q246.39062 28.39375 245.5625 29.20625Q244.73438 30.003124 244.64062 31.3625ZM253.60938 34.45625L255.35938 34.175Q255.5 35.221874 256.17188 35.784374Q256.84375 36.33125 258.04688 36.33125Q259.25 36.33125 259.82812 35.846874Q260.42188 35.346874 260.42188 34.690624Q260.42188 34.096874 259.90625 33.753124Q259.54688 33.51875 258.10938 33.159374Q256.17188 32.659374 255.42188 32.315624Q254.6875 31.95625 254.29688 31.33125Q253.90625 30.690624 253.90625 29.925Q253.90625 29.2375 254.21875 28.64375Q254.54688 28.05 255.09375 27.659374Q255.5 27.3625 256.20312 27.159374Q256.92188 26.940624 257.73438 26.940624Q258.95312 26.940624 259.875 27.3Q260.79688 27.64375 261.23438 28.253124Q261.67188 28.846874 261.84375 29.846874L260.125 30.08125Q260.0 29.284374 259.4375 28.846874Q258.875 28.39375 257.85938 28.39375Q256.64062 28.39375 256.125 28.8Q255.60938 29.190624 255.60938 29.721874Q255.60938 30.065624 255.82812 30.346874Q256.03125 30.628124 256.5 30.815624Q256.76562 30.909374 258.04688 31.253124Q259.92188 31.753124 260.65625 32.08125Q261.39062 32.39375 261.8125 33.003124Q262.23438 33.596874 262.23438 34.503124Q262.23438 35.378124 261.71875 36.159374Q261.20312 36.940624 260.23438 37.3625Q259.26562 37.784374 258.04688 37.784374Q256.03125 37.784374 254.96875 36.940624Q253.90625 36.096874 253.60938 34.45625ZM270.73438 37.55L270.73438 28.55L269.1875 28.55L269.1875 27.175L270.73438 27.175L270.73438 26.08125Q270.73438 25.034374 270.92188 24.51875Q271.17188 23.83125 271.8125 23.409374Q272.45312 22.9875 273.60938 22.9875Q274.35938 22.9875 275.25 23.159374L274.98438 24.690624Q274.4375 24.596874 273.95312 24.596874Q273.15625 24.596874 272.8125 24.940624Q272.48438 25.284374 272.48438 26.221874L272.48438 27.175L274.51562 27.175L274.51562 28.55L272.48438 28.55L272.48438 37.55L270.73438 37.55ZM275.67188 32.3625Q275.67188 29.4875 277.26562 28.096874Q278.60938 26.940624 280.53125 26.940624Q282.67188 26.940624 284.01562 28.346874Q285.375 29.753124 285.375 32.221874Q285.375 34.221874 284.78125 35.378124Q284.1875 36.51875 283.03125 37.159374Q281.89062 37.784374 280.53125 37.784374Q278.34375 37.784374 277.0 36.39375Q275.67188 34.9875 275.67188 32.3625ZM277.46875 32.3625Q277.46875 34.3625 278.32812 35.346874Q279.20312 36.33125 280.53125 36.33125Q281.84375 36.33125 282.70312 35.346874Q283.57812 34.346874 283.57812 32.3Q283.57812 30.378124 282.70312 29.39375Q281.82812 28.39375 280.53125 28.39375Q279.20312 28.39375 278.32812 29.39375Q277.46875 30.378124 277.46875 32.3625ZM287.29688 37.55L287.29688 27.175L288.875 27.175L288.875 28.753124Q289.48438 27.64375 290.0 27.3Q290.51562 26.940624 291.125 26.940624Q292.01562 26.940624 292.9375 27.503124L292.32812 29.14375Q291.6875 28.753124 291.04688 28.753124Q290.46875 28.753124 290.0 29.1125Q289.54688 29.45625 289.34375 30.065624Q289.0625 31.003124 289.0625 32.1125L289.0625 37.55L287.29688 37.55ZM303.20312 37.55L299.25 27.175L301.10938 27.175L303.34375 33.39375Q303.70312 34.39375 304.0 35.471874Q304.23438 34.659374 304.65625 33.503124L306.95312 27.175L308.76562 27.175L304.84375 37.55L303.20312 37.55ZM316.09375 36.26875Q315.10938 37.096874 314.20312 37.440624Q313.29688 37.784374 312.26562 37.784374Q310.5625 37.784374 309.64062 36.95625Q308.71875 36.1125 308.71875 34.815624Q308.71875 34.05 309.0625 33.425Q309.42188 32.8 309.98438 32.425Q310.54688 32.034374 311.25 31.83125Q311.76562 31.70625 312.8125 31.565624Q314.9375 31.315624 315.9375 30.971874Q315.95312 30.6125 315.95312 30.503124Q315.95312 29.440624 315.45312 28.9875Q314.78125 28.39375 313.45312 28.39375Q312.20312 28.39375 311.60938 28.83125Q311.03125 29.26875 310.75 30.378124L309.03125 30.14375Q309.26562 29.034374 309.79688 28.3625Q310.32812 27.675 311.34375 27.315624Q312.35938 26.940624 313.70312 26.940624Q315.03125 26.940624 315.85938 27.253124Q316.6875 27.565624 317.07812 28.05Q317.46875 28.51875 317.625 29.2375Q317.71875 29.690624 317.71875 30.8625L317.71875 33.20625Q317.71875 35.659374 317.82812 36.315624Q317.9375 36.95625 318.28125 37.55L316.4375 37.55Q316.17188 37.003124 316.09375 36.26875ZM315.9375 32.346874Q314.98438 32.7375 313.0625 33.003124Q311.98438 33.159374 311.53125 33.3625Q311.09375 33.55 310.84375 33.925Q310.59375 34.3 310.59375 34.76875Q310.59375 35.471874 311.125 35.940624Q311.65625 36.409374 312.6875 36.409374Q313.70312 36.409374 314.48438 35.971874Q315.28125 35.51875 315.65625 34.753124Q315.9375 34.14375 315.9375 32.9875L315.9375 32.346874ZM320.29688 37.55L320.29688 27.175L321.875 27.175L321.875 28.753124Q322.48438 27.64375 323.0 27.3Q323.51562 26.940624 324.125 26.940624Q325.01562 26.940624 325.9375 27.503124L325.32812 29.14375Q324.6875 28.753124 324.04688 28.753124Q323.46875 28.753124 323.0 29.1125Q322.54688 29.45625 322.34375 30.065624Q322.0625 31.003124 322.0625 32.1125L322.0625 37.55L320.29688 37.55ZM327.32812 25.253124L327.32812 23.2375L329.09375 23.2375L329.09375 25.253124L327.32812 25.253124ZM327.32812 37.55L327.32812 27.175L329.09375 27.175L329.09375 37.55L327.32812 37.55ZM330.67188 32.3625Q330.67188 29.4875 332.26562 28.096874Q333.60938 26.940624 335.53125 26.940624Q337.67188 26.940624 339.01562 28.346874Q340.375 29.753124 340.375 32.221874Q340.375 34.221874 339.78125 35.378124Q339.1875 36.51875 338.03125 37.159374Q336.89062 37.784374 335.53125 37.784374Q333.34375 37.784374 332.0 36.39375Q330.67188 34.9875 330.67188 32.3625ZM332.46875 32.3625Q332.46875 34.3625 333.32812 35.346874Q334.20312 36.33125 335.53125 36.33125Q336.84375 36.33125 337.70312 35.346874Q338.57812 34.346874 338.57812 32.3Q338.57812 30.378124 337.70312 29.39375Q336.82812 28.39375 335.53125 28.39375Q334.20312 28.39375 333.32812 29.39375Q332.46875 30.378124 332.46875 32.3625ZM349.10938 37.55L349.10938 36.01875Q347.90625 37.784374 345.82812 37.784374Q344.90625 37.784374 344.10938 37.440624Q343.3125 37.08125 342.92188 36.55Q342.54688 36.01875 342.39062 35.2375Q342.28125 34.721874 342.28125 33.596874L342.28125 27.175L344.03125 27.175L344.03125 32.925Q344.03125 34.3 344.14062 34.784374Q344.3125 35.471874 344.84375 35.878124Q345.39062 36.26875 346.17188 36.26875Q346.96875 36.26875 347.65625 35.8625Q348.35938 35.45625 348.64062 34.76875Q348.9375 34.065624 348.9375 32.7375L348.9375 27.175L350.6875 27.175L350.6875 37.55L349.10938 37.55ZM351.60938 34.45625L353.35938 34.175Q353.5 35.221874 354.17188 35.784374Q354.84375 36.33125 356.04688 36.33125Q357.25 36.33125 357.82812 35.846874Q358.42188 35.346874 358.42188 34.690624Q358.42188 34.096874 357.90625 33.753124Q357.54688 33.51875 356.10938 33.159374Q354.17188 32.659374 353.42188 32.315624Q352.6875 31.95625 352.29688 31.33125Q351.90625 30.690624 351.90625 29.925Q351.90625 29.2375 352.21875 28.64375Q352.54688 28.05 353.09375 27.659374Q353.5 27.3625 354.20312 27.159374Q354.92188 26.940624 355.73438 26.940624Q356.95312 26.940624 357.875 27.3Q358.79688 27.64375 359.23438 28.253124Q359.67188 28.846874 359.84375 29.846874L358.125 30.08125Q358.0 29.284374 357.4375 28.846874Q356.875 28.39375 355.85938 28.39375Q354.64062 28.39375 354.125 28.8Q353.60938 29.190624 353.60938 29.721874Q353.60938 30.065624 353.82812 30.346874Q354.03125 30.628124 354.5 30.815624Q354.76562 30.909374 356.04688 31.253124Q357.92188 31.753124 358.65625 32.08125Q359.39062 32.39375 359.8125 33.003124Q360.23438 33.596874 360.23438 34.503124Q360.23438 35.378124 359.71875 36.159374Q359.20312 36.940624 358.23438 37.3625Q357.26562 37.784374 356.04688 37.784374Q354.03125 37.784374 352.96875 36.940624Q351.90625 36.096874 351.60938 34.45625ZM361.64062 33.253124L361.64062 31.4875L367.03125 31.4875L367.03125 33.253124L361.64062 33.253124ZM368.60938 34.45625L370.35938 34.175Q370.5 35.221874 371.17188 35.784374Q371.84375 36.33125 373.04688 36.33125Q374.25 36.33125 374.82812 35.846874Q375.42188 35.346874 375.42188 34.690624Q375.42188 34.096874 374.90625 33.753124Q374.54688 33.51875 373.10938 33.159374Q371.17188 32.659374 370.42188 32.315624Q369.6875 31.95625 369.29688 31.33125Q368.90625 30.690624 368.90625 29.925Q368.90625 29.2375 369.21875 28.64375Q369.54688 28.05 370.09375 27.659374Q370.5 27.3625 371.20312 27.159374Q371.92188 26.940624 372.73438 26.940624Q373.95312 26.940624 374.875 27.3Q375.79688 27.64375 376.23438 28.253124Q376.67188 28.846874 376.84375 29.846874L375.125 30.08125Q375.0 29.284374 374.4375 28.846874Q373.875 28.39375 372.85938 28.39375Q371.64062 28.39375 371.125 28.8Q370.60938 29.190624 370.60938 29.721874Q370.60938 30.065624 370.82812 30.346874Q371.03125 30.628124 371.5 30.815624Q371.76562 30.909374 373.04688 31.253124Q374.92188 31.753124 375.65625 32.08125Q376.39062 32.39375 376.8125 33.003124Q377.23438 33.596874 377.23438 34.503124Q377.23438 35.378124 376.71875 36.159374Q376.20312 36.940624 375.23438 37.3625Q374.26562 37.784374 373.04688 37.784374Q371.03125 37.784374 369.96875 36.940624Q368.90625 36.096874 368.60938 34.45625ZM379.32812 25.253124L379.32812 23.2375L381.09375 23.2375L381.09375 25.253124L379.32812 25.253124ZM379.32812 37.55L379.32812 27.175L381.09375 27.175L381.09375 37.55L379.32812 37.55ZM382.39062 37.55L382.39062 36.128124L389.0 28.55Q387.875 28.596874 387.01562 28.596874L382.78125 28.596874L382.78125 27.175L391.26562 27.175L391.26562 28.346874L385.64062 34.925L384.5625 36.128124Q385.73438 36.034374 386.78125 36.034374L391.57812 36.034374L391.57812 37.55L382.39062 37.55ZM399.42188 34.20625L401.23438 34.440624Q400.8125 36.01875 399.64062 36.909374Q398.48438 37.784374 396.67188 37.784374Q394.40625 37.784374 393.0625 36.39375Q391.73438 34.9875 391.73438 32.45625Q391.73438 29.83125 393.07812 28.39375Q394.42188 26.940624 396.57812 26.940624Q398.65625 26.940624 399.96875 28.3625Q401.29688 29.76875 401.29688 32.346874Q401.29688 32.503124 401.28125 32.815624L393.54688 32.815624Q393.64062 34.51875 394.51562 35.425Q395.39062 36.33125 396.6875 36.33125Q397.65625 36.33125 398.32812 35.83125Q399.01562 35.315624 399.42188 34.20625ZM393.64062 31.3625L399.4375 31.3625Q399.32812 30.065624 398.78125 29.409374Q397.9375 28.39375 396.59375 28.39375Q395.39062 28.39375 394.5625 29.20625Q393.73438 30.003124 393.64062 31.3625ZM410.04688 37.55L410.04688 36.2375Q409.0625 37.784374 407.14062 37.784374Q405.90625 37.784374 404.85938 37.096874Q403.82812 36.409374 403.25 35.190624Q402.6875 33.971874 402.6875 32.378124Q402.6875 30.815624 403.20312 29.55Q403.71875 28.284374 404.75 27.6125Q405.79688 26.940624 407.0625 26.940624Q408.0 26.940624 408.73438 27.346874Q409.46875 27.7375 409.9375 28.3625L409.9375 23.2375L411.67188 23.2375L411.67188 37.55L410.04688 37.55ZM404.48438 32.378124Q404.48438 34.3625 405.32812 35.346874Q406.17188 36.33125 407.3125 36.33125Q408.46875 36.33125 409.26562 35.39375Q410.07812 34.45625 410.07812 32.51875Q410.07812 30.39375 409.25 29.39375Q408.4375 28.39375 407.23438 28.39375Q406.0625 28.39375 405.26562 29.3625Q404.48438 30.315624 404.48438 32.378124ZM427.09375 36.26875Q426.10938 37.096874 425.20312 37.440624Q424.29688 37.784374 423.26562 37.784374Q421.5625 37.784374 420.64062 36.95625Q419.71875 36.1125 419.71875 34.815624Q419.71875 34.05 420.0625 33.425Q420.42188 32.8 420.98438 32.425Q421.54688 32.034374 422.25 31.83125Q422.76562 31.70625 423.8125 31.565624Q425.9375 31.315624 426.9375 30.971874Q426.95312 30.6125 426.95312 30.503124Q426.95312 29.440624 426.45312 28.9875Q425.78125 28.39375 424.45312 28.39375Q423.20312 28.39375 422.60938 28.83125Q422.03125 29.26875 421.75 30.378124L420.03125 30.14375Q420.26562 29.034374 420.79688 28.3625Q421.32812 27.675 422.34375 27.315624Q423.35938 26.940624 424.70312 26.940624Q426.03125 26.940624 426.85938 27.253124Q427.6875 27.565624 428.07812 28.05Q428.46875 28.51875 428.625 29.2375Q428.71875 29.690624 428.71875 30.8625L428.71875 33.20625Q428.71875 35.659374 428.82812 36.315624Q428.9375 36.95625 429.28125 37.55L427.4375 37.55Q427.17188 37.003124 427.09375 36.26875ZM426.9375 32.346874Q425.98438 32.7375 424.0625 33.003124Q422.98438 33.159374 422.53125 33.3625Q422.09375 33.55 421.84375 33.925Q421.59375 34.3 421.59375 34.76875Q421.59375 35.471874 422.125 35.940624Q422.65625 36.409374 423.6875 36.409374Q424.70312 36.409374 425.48438 35.971874Q426.28125 35.51875 426.65625 34.753124Q426.9375 34.14375 426.9375 32.9875L426.9375 32.346874ZM431.29688 37.55L431.29688 27.175L432.875 27.175L432.875 28.753124Q433.48438 27.64375 434.0 27.3Q434.51562 26.940624 435.125 26.940624Q436.01562 26.940624 436.9375 27.503124L436.32812 29.14375Q435.6875 28.753124 435.04688 28.753124Q434.46875 28.753124 434.0 29.1125Q433.54688 29.45625 433.34375 30.065624Q433.0625 31.003124 433.0625 32.1125L433.0625 37.55L431.29688 37.55ZM438.29688 37.55L438.29688 27.175L439.875 27.175L439.875 28.753124Q440.48438 27.64375 441.0 27.3Q441.51562 26.940624 442.125 26.940624Q443.01562 26.940624 443.9375 27.503124L443.32812 29.14375Q442.6875 28.753124 442.04688 28.753124Q441.46875 28.753124 441.0 29.1125Q440.54688 29.45625 440.34375 30.065624Q440.0625 31.003124 440.0625 32.1125L440.0625 37.55L438.29688 37.55ZM452.09375 36.26875Q451.10938 37.096874 450.20312 37.440624Q449.29688 37.784374 448.26562 37.784374Q446.5625 37.784374 445.64062 36.95625Q444.71875 36.1125 444.71875 34.815624Q444.71875 34.05 445.0625 33.425Q445.42188 32.8 445.98438 32.425Q446.54688 32.034374 447.25 31.83125Q447.76562 31.70625 448.8125 31.565624Q450.9375 31.315624 451.9375 30.971874Q451.95312 30.6125 451.95312 30.503124Q451.95312 29.440624 451.45312 28.9875Q450.78125 28.39375 449.45312 28.39375Q448.20312 28.39375 447.60938 28.83125Q447.03125 29.26875 446.75 30.378124L445.03125 30.14375Q445.26562 29.034374 445.79688 28.3625Q446.32812 27.675 447.34375 27.315624Q448.35938 26.940624 449.70312 26.940624Q451.03125 26.940624 451.85938 27.253124Q452.6875 27.565624 453.07812 28.05Q453.46875 28.51875 453.625 29.2375Q453.71875 29.690624 453.71875 30.8625L453.71875 33.20625Q453.71875 35.659374 453.82812 36.315624Q453.9375 36.95625 454.28125 37.55L452.4375 37.55Q452.17188 37.003124 452.09375 36.26875ZM451.9375 32.346874Q450.98438 32.7375 449.0625 33.003124Q447.98438 33.159374 447.53125 33.3625Q447.09375 33.55 446.84375 33.925Q446.59375 34.3 446.59375 34.76875Q446.59375 35.471874 447.125 35.940624Q447.65625 36.409374 448.6875 36.409374Q449.70312 36.409374 450.48438 35.971874Q451.28125 35.51875 451.65625 34.753124Q451.9375 34.14375 451.9375 32.9875L451.9375 32.346874ZM456.23438 41.55L456.04688 39.89375Q456.625 40.05 457.04688 40.05Q457.64062 40.05 457.98438 39.846874Q458.34375 39.659374 458.5625 39.315624Q458.73438 39.05 459.10938 38.003124Q459.15625 37.846874 459.26562 37.565624L455.32812 27.175L457.21875 27.175L459.375 33.190624Q459.79688 34.33125 460.125 35.58125Q460.4375 34.378124 460.84375 33.221874L463.0625 27.175L464.82812 27.175L460.875 37.721874Q460.25 39.440624 459.89062 40.08125Q459.42188 40.95625 458.8125 41.346874Q458.21875 41.753124 457.375 41.753124Q456.85938 41.753124 456.23438 41.55ZM465.60938 34.45625L467.35938 34.175Q467.5 35.221874 468.17188 35.784374Q468.84375 36.33125 470.04688 36.33125Q471.25 36.33125 471.82812 35.846874Q472.42188 35.346874 472.42188 34.690624Q472.42188 34.096874 471.90625 33.753124Q471.54688 33.51875 470.10938 33.159374Q468.17188 32.659374 467.42188 32.315624Q466.6875 31.95625 466.29688 31.33125Q465.90625 30.690624 465.90625 29.925Q465.90625 29.2375 466.21875 28.64375Q466.54688 28.05 467.09375 27.659374Q467.5 27.3625 468.20312 27.159374Q468.92188 26.940624 469.73438 26.940624Q470.95312 26.940624 471.875 27.3Q472.79688 27.64375 473.23438 28.253124Q473.67188 28.846874 473.84375 29.846874L472.125 30.08125Q472.0 29.284374 471.4375 28.846874Q470.875 28.39375 469.85938 28.39375Q468.64062 28.39375 468.125 28.8Q467.60938 29.190624 467.60938 29.721874Q467.60938 30.065624 467.82812 30.346874Q468.03125 30.628124 468.5 30.815624Q468.76562 30.909374 470.04688 31.253124Q471.92188 31.753124 472.65625 32.08125Q473.39062 32.39375 473.8125 33.003124Q474.23438 33.596874 474.23438 34.503124Q474.23438 35.378124 473.71875 36.159374Q473.20312 36.940624 472.23438 37.3625Q471.26562 37.784374 470.04688 37.784374Q468.03125 37.784374 466.96875 36.940624Q465.90625 36.096874 465.60938 34.45625Z" fill-rule="nonzero"/></svg>