<svg version="1.1" viewBox="0.0 0.0 600.0 371.0" fill="none" stroke="none" stroke-linecap="square" stroke-miterlimit="10" width="600" height="371" xmlns:xlink="http://www.w3.org/1999/xlink" xmlns="http://www.w3.org/2000/svg"><path fill="#ffffff" d="M0 0L600.0 0L600.0 371.0L0 371.0L0 0Z" fill-rule="nonzero"/><path stroke="#cccccc" stroke-width="1.0" stroke-linecap="butt" d="M77.5 88.5L77.5 300.5" fill-rule="nonzero"/><path stroke="#cccccc" stroke-width="1.0" stroke-linecap="butt" d="M149.5 88.5L149.5 300.5" fill-rule="nonzero"/><path stroke="#cccccc" stroke-width="1.0" stroke-linecap="butt" d="M221.5 88.5L221.5 300.5" fill-rule="nonzero"/><path stroke="#cccccc" stroke-width="1.0" stroke-linecap="butt" d="M293.5 88.5L293.5 300.5" fill-rule="nonzero"/><path stroke="#cccccc" stroke-width="1.0" stroke-linecap="butt" d="M365.5 88.5L365.5 300.5" fill-rule="nonzero"/><path stroke="#cccccc" stroke-width="1.0" stroke-linecap="butt" d="M437.5 88.5L437.5 300.5" fill-rule="nonzero"/><path stroke="#cccccc" stroke-width="1.0" stroke-linecap="butt" d="M509.5 88.5L509.5 300.5" fill-rule="nonzero"/><path stroke="#cccccc" stroke-width="1.0" stroke-linecap="butt" d="M581.5 88.5L581.5 300.5" fill-rule="nonzero"/><path stroke="#333333" stroke-width="1.0" stroke-linecap="butt" d="M77.5 300.5L581.5 300.5" fill-rule="nonzero"/><path stroke="#cccccc" stroke-width="1.0" stroke-linecap="butt" d="M77.5 247.5L581.5 247.5" fill-rule="nonzero"/><path stroke="#cccccc" stroke-width="1.0" stroke-linecap="butt" d="M77.5 194.5L581.5 194.5" fill-rule="nonzero"/><path stroke="#cccccc" stroke-width="1.0" stroke-linecap="butt" d="M77.5 141.5L581.5 141.5" fill-rule="nonzero"/><path stroke="#cccccc" stroke-width="1.0" stroke-linecap="butt" d="M77.5 88.5L581.5 88.5" fill-rule="nonzero"/><clipPath id="id_0"><path d="M77.55 88.28333L581.45 88.28333L581.45 300.45L77.55 300.45L77.55 88.28333Z" clip-rule="nonzero"/></clipPath><path stroke="#4285f4" stroke-width="2.0" stroke-linecap="butt" clip-path="url(#id_0)" d="M77.55 300.44257L293.50714 300.04953L437.47858 294.2054L509.4643 277.06445L545.45715 250.9181L581.45 207.40971" fill-rule="nonzero"/><path stroke="#ea4335" stroke-width="2.0" stroke-linecap="butt" clip-path="url(#id_0)" d="M77.55 298.891L293.50714 298.47302L437.47858 289.48257L509.4643 258.83084L545.45715 214.98131L581.45 122.92538" fill-rule="nonzero"/><path stroke="#fbbc04" stroke-width="2.0" stroke-linecap="butt" clip-path="url(#id_0)" d="M77.55 298.95062L293.50714 297.66827L437.47858 295.97552L509.4643 289.14597L545.45715 282.0141L581.45 267.3346" fill-rule="nonzero"/><path stroke="#34a853" stroke-width="2.0" stroke-linecap="butt" clip-path="url(#id_0)" d="M77.55 299.51477L293.50714 299.50818L437.47858 297.30655L509.4643 296.06537L545.45715 294.44696L581.45 291.34772" fill-rule="nonzero"/><path fill="#000000" fill-opacity="0.0" clip-path="url(#id_0)" d="M80.55 300.44257C80.55 302.09943 79.206856 303.44257 77.55 303.44257C75.89314 303.44257 74.55 302.09943 74.55 300.44257C74.55 298.7857 75.89314 297.44257 77.55 297.44257C79.206856 297.44257 80.55 298.7857 80.55 300.44257Z" fill-rule="nonzero"/><path fill="#000000" fill-opacity="0.0" clip-path="url(#id_0)" d="M296.50714 300.04953C296.50714 301.7064 295.164 303.04953 293.50714 303.04953C291.85028 303.04953 290.50714 301.7064 290.50714 300.04953C290.50714 298.39267 291.85028 297.04953 293.50714 297.04953C295.164 297.04953 296.50714 298.39267 296.50714 300.04953Z" fill-rule="nonzero"/><path fill="#000000" fill-opacity="0.0" clip-path="url(#id_0)" d="M440.47858 294.2054C440.47858 295.86224 439.13544 297.2054 437.47858 297.2054C435.82172 297.2054 434.47858 295.86224 434.47858 294.2054C434.47858 292.54855 435.82172 291.2054 437.47858 291.2054C439.13544 291.2054 440.47858 292.54855 440.47858 294.2054Z" fill-rule="nonzero"/><path fill="#000000" fill-opacity="0.0" clip-path="url(#id_0)" d="M512.4643 277.06445C512.4643 278.7213 511.12115 280.06445 509.4643 280.06445C507.80743 280.06445 506.4643 278.7213 506.4643 277.06445C506.4643 275.4076 507.80743 274.06445 509.4643 274.06445C511.12115 274.06445 512.4643 275.4076 512.4643 277.06445Z" fill-rule="nonzero"/><path fill="#000000" fill-opacity="0.0" clip-path="url(#id_0)" d="M548.45715 250.9181C548.45715 252.57495 547.114 253.9181 545.45715 253.9181C543.8003 253.9181 542.45715 252.57495 542.45715 250.9181C542.45715 249.26125 543.8003 247.9181 545.45715 247.9181C547.114 247.9181 548.45715 249.26125 548.45715 250.9181Z" fill-rule="nonzero"/><path fill="#000000" fill-opacity="0.0" clip-path="url(#id_0)" d="M584.45 207.40971C584.45 209.06657 583.1069 210.40971 581.45 210.40971C579.79315 210.40971 578.45 209.06657 578.45 207.40971C578.45 205.75287 579.79315 204.40971 581.45 204.40971C583.1069 204.40971 584.45 205.75287 584.45 207.40971Z" fill-rule="nonzero"/><path fill="#000000" fill-opacity="0.0" clip-path="url(#id_0)" d="M80.55 298.891C80.55 300.54785 79.206856 301.891 77.55 301.891C75.89314 301.891 74.55 300.54785 74.55 298.891C74.55 297.23413 75.89314 295.891 77.55 295.891C79.206856 295.891 80.55 297.23413 80.55 298.891Z" fill-rule="nonzero"/><path fill="#000000" fill-opacity="0.0" clip-path="url(#id_0)" d="M296.50714 298.47302C296.50714 300.12988 295.164 301.47302 293.50714 301.47302C291.85028 301.47302 290.50714 300.12988 290.50714 298.47302C290.50714 296.81616 291.85028 295.47302 293.50714 295.47302C295.164 295.47302 296.50714 296.81616 296.50714 298.47302Z" fill-rule="nonzero"/><path fill="#000000" fill-opacity="0.0" clip-path="url(#id_0)" d="M440.47858 289.48257C440.47858 291.13943 439.13544 292.48257 437.47858 292.48257C435.82172 292.48257 434.47858 291.13943 434.47858 289.48257C434.47858 287.8257 435.82172 286.48257 437.47858 286.48257C439.13544 286.48257 440.47858 287.8257 440.47858 289.48257Z" fill-rule="nonzero"/><path fill="#000000" fill-opacity="0.0" clip-path="url(#id_0)" d="M512.4643 258.83084C512.4643 260.4877 511.12115 261.83084 509.4643 261.83084C507.80743 261.83084 506.4643 260.4877 506.4643 258.83084C506.4643 257.174 507.80743 255.83086 509.4643 255.83086C511.12115 255.83086 512.4643 257.174 512.4643 258.83084Z" fill-rule="nonzero"/><path fill="#000000" fill-opacity="0.0" clip-path="url(#id_0)" d="M548.45715 214.98131C548.45715 216.63817 547.114 217.98131 545.45715 217.98131C543.8003 217.98131 542.45715 216.63817 542.45715 214.98131C542.45715 213.32446 543.8003 211.98131 545.45715 211.98131C547.114 211.98131 548.45715 213.32446 548.45715 214.98131Z" fill-rule="nonzero"/><path fill="#000000" fill-opacity="0.0" clip-path="url(#id_0)" d="M584.45 122.92538C584.45 124.58223 583.1069 125.92538 581.45 125.92538C579.79315 125.92538 578.45 124.58223 578.45 122.92538C578.45 121.268524 579.79315 119.92538 581.45 119.92538C583.1069 119.92538 584.45 121.268524 584.45 122.92538Z" fill-rule="nonzero"/><path fill="#000000" fill-opacity="0.0" clip-path="url(#id_0)" d="M80.55 298.95062C80.55 300.60748 79.206856 301.95062 77.55 301.95062C75.89314 301.95062 74.55 300.60748 74.55 298.95062C74.55 297.29376 75.89314 295.95062 77.55 295.95062C79.206856 295.95062 80.55 297.29376 80.55 298.95062Z" fill-rule="nonzero"/><path fill="#000000" fill-opacity="0.0" clip-path="url(#id_0)" d="M296.50714 297.66827C296.50714 299.32513 295.164 300.66827 293.50714 300.66827C291.85028 300.66827 290.50714 299.32513 290.50714 297.66827C290.50714 296.0114 291.85028 294.66827 293.50714 294.66827C295.164 294.66827 296.50714 296.0114 296.50714 297.66827Z" fill-rule="nonzero"/><path fill="#000000" fill-opacity="0.0" clip-path="url(#id_0)" d="M440.47858 295.97552C440.47858 297.63235 439.13544 298.97552 437.47858 298.97552C435.82172 298.97552 434.47858 297.63235 434.47858 295.97552C434.47858 294.31866 435.82172 292.97552 437.47858 292.97552C439.13544 292.97552 440.47858 294.31866 440.47858 295.97552Z" fill-rule="nonzero"/><path fill="#000000" fill-opacity="0.0" clip-path="url(#id_0)" d="M512.4643 289.14597C512.4643 290.80283 511.12115 292.14597 509.4643 292.14597C507.80743 292.14597 506.4643 290.80283 506.4643 289.14597C506.4643 287.4891 507.80743 286.14597 509.4643 286.14597C511.12115 286.14597 512.4643 287.4891 512.4643 289.14597Z" fill-rule="nonzero"/><path fill="#000000" fill-opacity="0.0" clip-path="url(#id_0)" d="M548.45715 282.0141C548.45715 283.67096 547.114 285.0141 545.45715 285.0141C543.8003 285.0141 542.45715 283.67096 542.45715 282.0141C542.45715 280.35724 543.8003 279.0141 545.45715 279.0141C547.114 279.0141 548.45715 280.35724 548.45715 282.0141Z" fill-rule="nonzero"/><path fill="#000000" fill-opacity="0.0" clip-path="url(#id_0)" d="M584.45 267.3346C584.45 268.99146 583.1069 270.3346 581.45 270.3346C579.79315 270.3346 578.45 268.99146 578.45 267.3346C578.45 265.67773 579.79315 264.3346 581.45 264.3346C583.1069 264.3346 584.45 265.67773 584.45 267.3346Z" fill-rule="nonzero"/><path fill="#000000" fill-opacity="0.0" clip-path="url(#id_0)" d="M80.55 299.51477C80.55 301.17163 79.206856 302.51477 77.55 302.51477C75.89314 302.51477 74.55 301.17163 74.55 299.51477C74.55 297.8579 75.89314 296.51477 77.55 296.51477C79.206856 296.51477 80.55 297.8579 80.55 299.51477Z" fill-rule="nonzero"/><path fill="#000000" fill-opacity="0.0" clip-path="url(#id_0)" d="M296.50714 299.50818C296.50714 301.16504 295.164 302.50818 293.50714 302.50818C291.85028 302.50818 290.50714 301.16504 290.50714 299.50818C290.50714 297.85135 291.85028 296.50818 293.50714 296.50818C295.164 296.50818 296.50714 297.85135 296.50714 299.50818Z" fill-rule="nonzero"/><path fill="#000000" fill-opacity="0.0" clip-path="url(#id_0)" d="M440.47858 297.30655C440.47858 298.96338 439.13544 300.30655 437.47858 300.30655C435.82172 300.30655 434.47858 298.96338 434.47858 297.30655C434.47858 295.6497 435.82172 294.30655 437.47858 294.30655C439.13544 294.30655 440.47858 295.6497 440.47858 297.30655Z" fill-rule="nonzero"/><path fill="#000000" fill-opacity="0.0" clip-path="url(#id_0)" d="M512.4643 296.06537C512.4643 297.72223 511.12115 299.06537 509.4643 299.06537C507.80743 299.06537 506.4643 297.72223 506.4643 296.06537C506.4643 294.4085 507.80743 293.06537 509.4643 293.06537C511.12115 293.06537 512.4643 294.4085 512.4643 296.06537Z" fill-rule="nonzero"/><path fill="#000000" fill-opacity="0.0" clip-path="url(#id_0)" d="M548.45715 294.44696C548.45715 296.10382 547.114 297.44696 545.45715 297.44696C543.8003 297.44696 542.45715 296.10382 542.45715 294.44696C542.45715 292.7901 543.8003 291.44696 545.45715 291.44696C547.114 291.44696 548.45715 292.7901 548.45715 294.44696Z" fill-rule="nonzero"/><path fill="#000000" fill-opacity="0.0" clip-path="url(#id_0)" d="M584.45 291.34772C584.45 293.00458 583.1069 294.34772 581.45 294.34772C579.79315 294.34772 578.45 293.00458 578.45 291.34772C578.45 289.6909 579.79315 288.34772 581.45 288.34772C583.1069 288.34772 584.45 289.6909 584.45 291.34772Z" fill-rule="nonzero"/><path fill="#000000" d="M288.26562 349.45L288.26562 340.85626L289.32812 340.85626L289.32812 349.45L288.26562 349.45ZM290.90625 346.34064Q290.90625 344.60626 291.85938 343.77814Q292.65625 343.09064 293.8125 343.09064Q295.09375 343.09064 295.90625 343.9344Q296.73438 344.7625 296.73438 346.2469Q296.73438 347.45 296.375 348.1375Q296.01562 348.825 295.3125 349.21564Q294.625 349.59064 293.8125 349.59064Q292.51562 349.59064 291.70312 348.7625Q290.90625 347.91876 290.90625 346.34064ZM291.98438 346.34064Q291.98438 347.52814 292.5 348.1219Q293.03125 348.71564 293.8125 348.71564Q294.60938 348.71564 295.125 348.1219Q295.64062 347.52814 295.64062 346.3094Q295.64062 345.15314 295.10938 344.5594Q294.59375 343.96564 293.8125 343.96564Q293.03125 343.96564 292.5 344.5594Q291.98438 345.1375 291.98438 346.34064ZM298.09375 349.96564L299.125 350.1219Q299.1875 350.59064 299.48438 350.8094Q299.875 351.10626 300.54688 351.10626Q301.28125 351.10626 301.67188 350.8094Q302.07812 350.5125 302.21875 349.9969Q302.3125 349.66876 302.29688 348.6375Q301.60938 349.45 300.57812 349.45Q299.29688 349.45 298.59375 348.52814Q297.89062 347.59064 297.89062 346.3094Q297.89062 345.41876 298.20312 344.66876Q298.53125 343.90314 299.14062 343.4969Q299.75 343.09064 300.57812 343.09064Q301.6875 343.09064 302.40625 343.98126L302.40625 343.23126L303.375 343.23126L303.375 348.60626Q303.375 350.0594 303.07812 350.66876Q302.78125 351.27814 302.14062 351.6219Q301.5 351.98126 300.5625 351.98126Q299.45312 351.98126 298.76562 351.48126Q298.07812 350.98126 298.09375 349.96564ZM298.96875 346.23126Q298.96875 347.45 299.45312 348.0125Q299.9375 348.575 300.67188 348.575Q301.40625 348.575 301.89062 348.0125Q302.39062 347.45 302.39062 346.2625Q302.39062 345.1219 301.875 344.54376Q301.375 343.96564 300.65625 343.96564Q299.95312 343.96564 299.45312 344.54376Q298.96875 345.10626 298.96875 346.23126ZM310.54688 348.4344L310.54688 349.45L304.85938 349.45Q304.85938 349.075 304.98438 348.71564Q305.20312 348.1375 305.67188 347.575Q306.15625 347.0125 307.0625 346.27814Q308.46875 345.1219 308.95312 344.45Q309.45312 343.77814 309.45312 343.1844Q309.45312 342.5594 309.0 342.1375Q308.54688 341.7 307.82812 341.7Q307.0625 341.7 306.60938 342.15314Q306.15625 342.60626 306.14062 343.41876L305.0625 343.3094Q305.17188 342.09064 305.89062 341.46564Q306.625 340.825 307.85938 340.825Q309.09375 340.825 309.8125 341.5125Q310.53125 342.2 310.53125 343.21564Q310.53125 343.73126 310.3125 344.23126Q310.10938 344.71564 309.60938 345.27814Q309.125 345.825 308.0 346.77814Q307.04688 347.575 306.76562 347.8719Q306.5 348.15314 306.32812 348.4344L310.54688 348.4344ZM314.3125 351.98126Q313.4375 350.8719 312.82812 349.40314Q312.23438 347.91876 312.23438 346.34064Q312.23438 344.95 312.67188 343.66876Q313.20312 342.1844 314.3125 340.71564L315.0625 340.71564Q314.35938 341.9344 314.125 342.45Q313.76562 343.2625 313.5625 344.1375Q313.3125 345.23126 313.3125 346.34064Q313.3125 349.16876 315.0625 351.98126L314.3125 351.98126ZM320.35938 348.6844Q319.76562 349.1844 319.21875 349.3875Q318.6875 349.59064 318.0625 349.59064Q317.03125 349.59064 316.48438 349.09064Q315.9375 348.59064 315.9375 347.8094Q315.9375 347.35626 316.14062 346.98126Q316.34375 346.59064 316.6875 346.3719Q317.03125 346.1375 317.45312 346.02814Q317.75 345.9344 318.39062 345.85626Q319.65625 345.71564 320.26562 345.4969Q320.26562 345.27814 320.26562 345.23126Q320.26562 344.575 319.96875 344.3094Q319.5625 343.96564 318.76562 343.96564Q318.03125 343.96564 317.67188 344.23126Q317.3125 344.48126 317.14062 345.1375L316.10938 344.9969Q316.25 344.34064 316.57812 343.9344Q316.90625 343.52814 317.51562 343.3094Q318.125 343.09064 318.92188 343.09064Q319.71875 343.09064 320.21875 343.27814Q320.71875 343.46564 320.95312 343.7469Q321.1875 344.02814 321.28125 344.46564Q321.32812 344.73126 321.32812 345.4344L321.32812 346.84064Q321.32812 348.3094 321.39062 348.7Q321.46875 349.09064 321.67188 349.45L320.5625 349.45Q320.40625 349.1219 320.35938 348.6844ZM320.26562 346.325Q319.6875 346.5594 318.54688 346.73126Q317.89062 346.825 317.625 346.95Q317.35938 347.0594 317.20312 347.27814Q317.0625 347.4969 317.0625 347.77814Q317.0625 348.2 317.375 348.48126Q317.70312 348.7625 318.3125 348.7625Q318.92188 348.7625 319.39062 348.4969Q319.875 348.23126 320.09375 347.7625Q320.26562 347.40314 320.26562 346.71564L320.26562 346.325ZM323.28125 349.45L323.28125 343.23126L324.23438 343.23126L324.23438 344.16876Q324.59375 343.5125 324.89062 343.3094Q325.20312 343.09064 325.57812 343.09064Q326.10938 343.09064 326.65625 343.41876L326.29688 344.40314Q325.90625 344.16876 325.53125 344.16876Q325.17188 344.16876 324.89062 344.3875Q324.625 344.59064 324.51562 344.96564Q324.32812 345.52814 324.32812 346.1844L324.32812 349.45L323.28125 349.45ZM327.28125 349.45L327.28125 343.23126L328.23438 343.23126L328.23438 344.16876Q328.59375 343.5125 328.89062 343.3094Q329.20312 343.09064 329.57812 343.09064Q330.10938 343.09064 330.65625 343.41876L330.29688 344.40314Q329.90625 344.16876 329.53125 344.16876Q329.17188 344.16876 328.89062 344.3875Q328.625 344.59064 328.51562 344.96564Q328.32812 345.52814 328.32812 346.1844L328.32812 349.45L327.28125 349.45ZM335.35938 348.6844Q334.76562 349.1844 334.21875 349.3875Q333.6875 349.59064 333.0625 349.59064Q332.03125 349.59064 331.48438 349.09064Q330.9375 348.59064 330.9375 347.8094Q330.9375 347.35626 331.14062 346.98126Q331.34375 346.59064 331.6875 346.3719Q332.03125 346.1375 332.45312 346.02814Q332.75 345.9344 333.39062 345.85626Q334.65625 345.71564 335.26562 345.4969Q335.26562 345.27814 335.26562 345.23126Q335.26562 344.575 334.96875 344.3094Q334.5625 343.96564 333.76562 343.96564Q333.03125 343.96564 332.67188 344.23126Q332.3125 344.48126 332.14062 345.1375L331.10938 344.9969Q331.25 344.34064 331.57812 343.9344Q331.90625 343.52814 332.51562 343.3094Q333.125 343.09064 333.92188 343.09064Q334.71875 343.09064 335.21875 343.27814Q335.71875 343.46564 335.95312 343.7469Q336.1875 344.02814 336.28125 344.46564Q336.32812 344.73126 336.32812 345.4344L336.32812 346.84064Q336.32812 348.3094 336.39062 348.7Q336.46875 349.09064 336.67188 349.45L335.5625 349.45Q335.40625 349.1219 335.35938 348.6844ZM335.26562 346.325Q334.6875 346.5594 333.54688 346.73126Q332.89062 346.825 332.625 346.95Q332.35938 347.0594 332.20312 347.27814Q332.0625 347.4969 332.0625 347.77814Q332.0625 348.2 332.375 348.48126Q332.70312 348.7625 333.3125 348.7625Q333.92188 348.7625 334.39062 348.4969Q334.875 348.23126 335.09375 347.7625Q335.26562 347.40314 335.26562 346.71564L335.26562 346.325ZM338.25 351.84064L338.125 350.85626Q338.46875 350.95 338.73438 350.95Q339.07812 350.95 339.28125 350.825Q339.5 350.71564 339.64062 350.5125Q339.73438 350.34064 339.96875 349.71564Q339.98438 349.6375 340.0625 349.46564L337.6875 343.23126L338.82812 343.23126L340.125 346.825Q340.375 347.5125 340.57812 348.27814Q340.76562 347.54376 341.01562 346.85626L342.34375 343.23126L343.39062 343.23126L341.03125 349.5594Q340.64062 350.575 340.4375 350.96564Q340.15625 351.4969 339.78125 351.73126Q339.42188 351.98126 338.92188 351.98126Q338.625 351.98126 338.25 351.84064ZM345.875 347.59064L346.90625 347.4344Q347.0 348.0594 347.39062 348.3875Q347.79688 348.71564 348.53125 348.71564Q349.25 348.71564 349.59375 348.4344Q349.95312 348.1375 349.95312 347.73126Q349.95312 347.3719 349.64062 347.16876Q349.42188 347.02814 348.5625 346.8094Q347.40625 346.5125 346.95312 346.3094Q346.51562 346.09064 346.28125 345.71564Q346.04688 345.34064 346.04688 344.8719Q346.04688 344.46564 346.23438 344.10626Q346.42188 343.7469 346.75 343.5125Q347.0 343.34064 347.42188 343.21564Q347.84375 343.09064 348.34375 343.09064Q349.0625 343.09064 349.60938 343.3094Q350.17188 343.5125 350.4375 343.8719Q350.70312 344.23126 350.79688 344.825L349.76562 344.96564Q349.70312 344.4969 349.35938 344.23126Q349.03125 343.95 348.40625 343.95Q347.6875 343.95 347.375 344.2Q347.0625 344.4344 347.0625 344.7625Q347.0625 344.96564 347.1875 345.1219Q347.32812 345.29376 347.59375 345.40314Q347.75 345.46564 348.53125 345.66876Q349.65625 345.98126 350.09375 346.16876Q350.53125 346.35626 350.78125 346.71564Q351.03125 347.075 351.03125 347.6219Q351.03125 348.15314 350.71875 348.6219Q350.42188 349.075 349.84375 349.34064Q349.26562 349.59064 348.53125 349.59064Q347.3125 349.59064 346.67188 349.09064Q346.04688 348.575 345.875 347.59064ZM353.29688 342.075L353.29688 340.85626L354.35938 340.85626L354.35938 342.075L353.29688 342.075ZM353.29688 349.45L353.29688 343.23126L354.35938 343.23126L354.35938 349.45L353.29688 349.45ZM355.73438 349.45L355.73438 348.59064L359.70312 344.04376Q359.01562 344.075 358.5 344.075L355.96875 344.075L355.96875 343.23126L361.0625 343.23126L361.0625 343.91876L357.6875 347.8719L357.03125 348.59064Q357.75 348.54376 358.35938 348.54376L361.25 348.54376L361.25 349.45L355.73438 349.45ZM365.54688 347.45L366.64062 347.575Q366.39062 348.52814 365.6875 349.0594Q364.98438 349.59064 363.90625 349.59064Q362.54688 349.59064 361.73438 348.7469Q360.9375 347.90314 360.9375 346.3875Q360.9375 344.825 361.75 343.96564Q362.5625 343.09064 363.84375 343.09064Q365.09375 343.09064 365.875 343.9344Q366.67188 344.77814 366.67188 346.325Q366.67188 346.41876 366.67188 346.60626L362.03125 346.60626Q362.09375 347.6375 362.60938 348.1844Q363.125 348.71564 363.90625 348.71564Q364.48438 348.71564 364.89062 348.41876Q365.3125 348.10626 365.54688 347.45ZM362.09375 345.7469L365.5625 345.7469Q365.5 344.95 365.17188 344.5594Q364.65625 343.95 363.85938 343.95Q363.125 343.95 362.625 344.4344Q362.14062 344.91876 362.09375 345.7469ZM368.98438 351.98126L368.23438 351.98126Q369.98438 349.16876 369.98438 346.34064Q369.98438 345.2469 369.73438 344.15314Q369.53125 343.27814 369.17188 342.46564Q368.9375 341.95 368.23438 340.71564L368.98438 340.71564Q370.07812 342.1844 370.60938 343.66876Q371.0625 344.95 371.0625 346.34064Q371.0625 347.91876 370.45312 349.40314Q369.84375 350.8719 368.98438 351.98126Z" fill-rule="nonzero"/><path fill="#000000" d="M29.550013 247.7573L21.971888 247.7573L21.971888 250.58542L20.956263 250.58542L20.956263 243.77292L21.971888 243.77292L21.971888 246.61667L29.550013 246.61667L29.550013 247.7573ZM22.175013 243.0698L20.956263 243.0698L20.956263 242.0073L22.175013 242.0073L22.175013 243.0698ZM29.550013 243.0698L23.331263 243.0698L23.331263 242.0073L29.550013 242.0073L29.550013 243.0698ZM29.550013 240.0698L23.331263 240.0698L23.331263 239.1323L24.206263 239.1323Q23.737513 238.83542 23.471888 238.35104Q23.190638 237.86667 23.190638 237.24167Q23.190638 236.55417 23.471888 236.11667Q23.753138 235.66354 24.268763 235.49167Q23.190638 234.74167 23.190638 233.5698Q23.190638 232.6323 23.706263 232.14792Q24.206263 231.64792 25.284388 231.64792L29.550013 231.64792L29.550013 232.6948L25.628138 232.6948Q25.003138 232.6948 24.721888 232.80417Q24.440638 232.89792 24.268763 233.16354Q24.096888 233.42917 24.096888 233.80417Q24.096888 234.46042 24.534388 234.89792Q24.971888 235.3198 25.940638 235.3198L29.550013 235.3198L29.550013 236.3823L25.503138 236.3823Q24.800013 236.3823 24.456263 236.64792Q24.096888 236.89792 24.096888 237.47604Q24.096888 237.92917 24.331263 238.30417Q24.565638 238.67917 25.018763 238.85104Q25.471888 239.02292 26.315638 239.02292L29.550013 239.02292L29.550013 240.0698ZM27.550013 224.8198L27.675013 223.72604Q28.628138 223.97604 29.159388 224.67917Q29.690638 225.3823 29.690638 226.46042Q29.690638 227.8198 28.846888 228.6323Q28.003138 229.42917 26.487513 229.42917Q24.925013 229.42917 24.065638 228.61667Q23.190638 227.80417 23.190638 226.52292Q23.190638 225.27292 24.034388 224.49167Q24.878138 223.6948 26.425013 223.6948Q26.518763 223.6948 26.706263 223.6948L26.706263 228.33542Q27.737513 228.27292 28.284388 227.7573Q28.815638 227.24167 28.815638 226.46042Q28.815638 225.8823 28.518763 225.47604Q28.206263 225.05417 27.550013 224.8198ZM25.846888 228.27292L25.846888 224.80417Q25.050013 224.86667 24.659388 225.1948Q24.050013 225.71042 24.050013 226.5073Q24.050013 227.24167 24.534388 227.74167Q25.018763 228.22604 25.846888 228.27292ZM28.612513 216.77292L29.534388 216.61667Q29.628138 217.0698 29.628138 217.41354Q29.628138 217.99167 29.456263 218.30417Q29.268763 218.61667 28.971888 218.7573Q28.675013 218.8823 27.721888 218.8823L24.143763 218.8823L24.143763 219.64792L23.331263 219.64792L23.331263 218.8823L21.784388 218.8823L21.159388 217.83542L23.331263 217.83542L23.331263 216.77292L24.143763 216.77292L24.143763 217.83542L27.784388 217.83542Q28.237513 217.83542 28.362513 217.78854Q28.487513 217.72604 28.565638 217.60104Q28.643763 217.47604 28.643763 217.24167Q28.643763 217.05417 28.612513 216.77292ZM26.440638 216.46042Q24.706263 216.46042 23.878138 215.5073Q23.190638 214.71042 23.190638 213.55417Q23.190638 212.27292 24.034388 211.46042Q24.862513 210.6323 26.346888 210.6323Q27.550013 210.6323 28.237513 210.99167Q28.925013 211.35104 29.315638 212.05417Q29.690638 212.74167 29.690638 213.55417Q29.690638 214.85104 28.862513 215.66354Q28.018763 216.46042 26.440638 216.46042ZM26.440638 215.3823Q27.628138 215.3823 28.221888 214.86667Q28.815638 214.33542 28.815638 213.55417Q28.815638 212.7573 28.221888 212.24167Q27.628138 211.72604 26.409388 211.72604Q25.253138 211.72604 24.659388 212.2573Q24.065638 212.77292 24.065638 213.55417Q24.065638 214.33542 24.659388 214.86667Q25.237513 215.3823 26.440638 215.3823ZM27.690638 206.49167L27.534388 205.46042Q28.159388 205.36667 28.487513 204.97604Q28.815638 204.5698 28.815638 203.83542Q28.815638 203.11667 28.534388 202.77292Q28.237513 202.41354 27.831263 202.41354Q27.471888 202.41354 27.268763 202.72604Q27.128138 202.9448 26.909388 203.80417Q26.612513 204.96042 26.409388 205.41354Q26.190638 205.85104 25.815638 206.08542Q25.440638 206.3198 24.971888 206.3198Q24.565638 206.3198 24.206263 206.1323Q23.846888 205.9448 23.612513 205.61667Q23.440638 205.36667 23.315638 204.9448Q23.190638 204.52292 23.190638 204.02292Q23.190638 203.30417 23.409388 202.7573Q23.612513 202.1948 23.971888 201.92917Q24.331263 201.66354 24.925013 201.5698L25.065638 202.60104Q24.596888 202.66354 24.331263 203.0073Q24.050013 203.33542 24.050013 203.96042Q24.050013 204.67917 24.300013 204.99167Q24.534388 205.30417 24.862513 205.30417Q25.065638 205.30417 25.221888 205.17917Q25.393763 205.03854 25.503138 204.77292Q25.565638 204.61667 25.768763 203.83542Q26.081263 202.71042 26.268763 202.27292Q26.456263 201.83542 26.815638 201.58542Q27.175013 201.33542 27.721888 201.33542Q28.253138 201.33542 28.721888 201.64792Q29.175013 201.9448 29.440638 202.52292Q29.690638 203.10104 29.690638 203.83542Q29.690638 205.05417 29.190638 205.6948Q28.675013 206.3198 27.690638 206.49167ZM27.268763 195.0073L27.409388 193.97604Q28.471888 194.14792 29.081263 194.85104Q29.690638 195.55417 29.690638 196.5698Q29.690638 197.85104 28.862513 198.6323Q28.018763 199.39792 26.456263 199.39792Q25.456263 199.39792 24.706263 199.0698Q23.940638 198.72604 23.565638 198.05417Q23.190638 197.36667 23.190638 196.55417Q23.190638 195.55417 23.706263 194.91354Q24.206263 194.2573 25.159388 194.0698L25.315638 195.10104Q24.690638 195.24167 24.378138 195.61667Q24.050013 195.99167 24.050013 196.52292Q24.050013 197.3198 24.628138 197.8198Q25.190638 198.3198 26.425013 198.3198Q27.690638 198.3198 28.253138 197.83542Q28.815638 197.35104 28.815638 196.58542Q28.815638 195.96042 28.440638 195.55417Q28.065638 195.1323 27.268763 195.0073ZM28.784388 189.0073Q29.284388 189.60104 29.487513 190.14792Q29.690638 190.67917 29.690638 191.30417Q29.690638 192.33542 29.190638 192.8823Q28.690638 193.42917 27.909388 193.42917Q27.456263 193.42917 27.081263 193.22604Q26.690638 193.02292 26.471888 192.67917Q26.237513 192.33542 26.128138 191.91354Q26.034388 191.61667 25.956263 190.97604Q25.815638 189.71042 25.596888 189.10104Q25.378138 189.10104 25.331263 189.10104Q24.675013 189.10104 24.409388 189.39792Q24.065638 189.80417 24.065638 190.60104Q24.065638 191.33542 24.331263 191.6948Q24.581263 192.05417 25.237513 192.22604L25.096888 193.2573Q24.440638 193.11667 24.034388 192.78854Q23.628138 192.46042 23.409388 191.85104Q23.190638 191.24167 23.190638 190.4448Q23.190638 189.64792 23.378138 189.14792Q23.565638 188.64792 23.846888 188.41354Q24.128138 188.17917 24.565638 188.08542Q24.831263 188.03854 25.534388 188.03854L26.940638 188.03854Q28.409388 188.03854 28.800013 187.97604Q29.190638 187.89792 29.550013 187.6948L29.550013 188.80417Q29.221888 188.96042 28.784388 189.0073ZM26.425013 189.10104Q26.659388 189.67917 26.831263 190.8198Q26.925013 191.47604 27.050013 191.74167Q27.159388 192.0073 27.378138 192.16354Q27.596888 192.30417 27.878138 192.30417Q28.300013 192.30417 28.581263 191.99167Q28.862513 191.66354 28.862513 191.05417Q28.862513 190.4448 28.596888 189.97604Q28.331263 189.49167 27.862513 189.27292Q27.503138 189.10104 26.815638 189.10104L26.425013 189.10104ZM29.550013 186.0698L23.331263 186.0698L23.331263 185.1323L24.206263 185.1323Q23.190638 184.4448 23.190638 183.14792Q23.190638 182.58542 23.393763 182.11667Q23.596888 181.6323 23.925013 181.39792Q24.253138 181.16354 24.690638 181.0698Q24.987513 181.02292 25.721888 181.02292L29.550013 181.02292L29.550013 182.0698L25.768763 182.0698Q25.112513 182.0698 24.800013 182.1948Q24.487513 182.3198 24.300013 182.6323Q24.096888 182.9448 24.096888 183.36667Q24.096888 184.03854 24.534388 184.53854Q24.956263 185.02292 26.143763 185.02292L29.550013 185.02292L29.550013 186.0698ZM32.08126 174.05417Q30.971888 174.92917 29.503138 175.53854Q28.018763 176.1323 26.440638 176.1323Q25.050013 176.1323 23.768763 175.6948Q22.284388 175.16354 20.815638 174.05417L20.815638 173.30417Q22.034388 174.0073 22.550013 174.24167Q23.362513 174.60104 24.237513 174.80417Q25.331263 175.05417 26.440638 175.05417Q29.268763 175.05417 32.08126 173.30417L32.08126 174.05417ZM29.550013 172.0698L23.331263 172.0698L23.331263 171.1323L24.206263 171.1323Q23.737513 170.83542 23.471888 170.35104Q23.190638 169.86667 23.190638 169.24167Q23.190638 168.55417 23.471888 168.11667Q23.753138 167.66354 24.268763 167.49167Q23.190638 166.74167 23.190638 165.5698Q23.190638 164.6323 23.706263 164.14792Q24.206263 163.64792 25.284388 163.64792L29.550013 163.64792L29.550013 164.6948L25.628138 164.6948Q25.003138 164.6948 24.721888 164.80417Q24.440638 164.89792 24.268763 165.16354Q24.096888 165.42917 24.096888 165.80417Q24.096888 166.46042 24.534388 166.89792Q24.971888 167.3198 25.940638 167.3198L29.550013 167.3198L29.550013 168.3823L25.503138 168.3823Q24.800013 168.3823 24.456263 168.64792Q24.096888 168.89792 24.096888 169.47604Q24.096888 169.92917 24.331263 170.30417Q24.565638 170.67917 25.018763 170.85104Q25.471888 171.02292 26.315638 171.02292L29.550013 171.02292L29.550013 172.0698ZM27.690638 161.49167L27.534388 160.46042Q28.159388 160.36667 28.487513 159.97604Q28.815638 159.5698 28.815638 158.83542Q28.815638 158.11667 28.534388 157.77292Q28.237513 157.41354 27.831263 157.41354Q27.471888 157.41354 27.268763 157.72604Q27.128138 157.9448 26.909388 158.80417Q26.612513 159.96042 26.409388 160.41354Q26.190638 160.85104 25.815638 161.08542Q25.440638 161.3198 24.971888 161.3198Q24.565638 161.3198 24.206263 161.1323Q23.846888 160.9448 23.612513 160.61667Q23.440638 160.36667 23.315638 159.9448Q23.190638 159.52292 23.190638 159.02292Q23.190638 158.30417 23.409388 157.7573Q23.612513 157.1948 23.971888 156.92917Q24.331263 156.66354 24.925013 156.5698L25.065638 157.60104Q24.596888 157.66354 24.331263 158.0073Q24.050013 158.33542 24.050013 158.96042Q24.050013 159.67917 24.300013 159.99167Q24.534388 160.30417 24.862513 160.30417Q25.065638 160.30417 25.221888 160.17917Q25.393763 160.03854 25.503138 159.77292Q25.565638 159.61667 25.768763 158.83542Q26.081263 157.71042 26.268763 157.27292Q26.456263 156.83542 26.815638 156.58542Q27.175013 156.33542 27.721888 156.33542Q28.253138 156.33542 28.721888 156.64792Q29.175013 156.9448 29.440638 157.52292Q29.690638 158.10104 29.690638 158.83542Q29.690638 160.05417 29.190638 160.6948Q28.675013 161.3198 27.690638 161.49167ZM32.08126 153.3823L32.08126 154.1323Q29.268763 152.3823 26.440638 152.3823Q25.346888 152.3823 24.253138 152.6323Q23.378138 152.83542 22.565638 153.1948Q22.050013 153.42917 20.815638 154.1323L20.815638 153.3823Q22.284388 152.28854 23.768763 151.7573Q25.050013 151.30417 26.440638 151.30417Q28.018763 151.30417 29.503138 151.91354Q30.971888 152.52292 32.08126 153.3823Z" fill-rule="nonzero"/><path fill="#000000" d="M65.05 300.21564Q65.05 298.6844 65.3625 297.7625Q65.675 296.825 66.28438 296.325Q66.90938 295.825 67.84688 295.825Q68.53438 295.825 69.05 296.10626Q69.58125 296.3875 69.925 296.91876Q70.26875 297.4344 70.45625 298.1844Q70.64375 298.9344 70.64375 300.21564Q70.64375 301.73126 70.33125 302.65314Q70.03438 303.575 69.40938 304.09064Q68.8 304.59064 67.84688 304.59064Q66.6125 304.59064 65.89375 303.7Q65.05 302.6375 65.05 300.21564ZM66.12813 300.21564Q66.12813 302.325 66.62813 303.02814Q67.12813 303.73126 67.84688 303.73126Q68.58125 303.73126 69.06563 303.02814Q69.56563 302.325 69.56563 300.21564Q69.56563 298.09064 69.06563 297.40314Q68.58125 296.7 67.83125 296.7Q67.1125 296.7 66.675 297.3094Q66.12813 298.09064 66.12813 300.21564Z" fill-rule="nonzero"/><path fill="#000000" d="M65.05 249.15834L66.15938 249.06459Q66.28438 249.87709 66.72188 250.28334Q67.175 250.68959 67.81563 250.68959Q68.56563 250.68959 69.09688 250.11147Q69.62813 249.53334 69.62813 248.59584Q69.62813 247.68959 69.1125 247.17397Q68.6125 246.64272 67.78438 246.64272Q67.28438 246.64272 66.8625 246.87709Q66.45625 247.11147 66.22188 247.47084L65.2375 247.34584L66.06563 242.93959L70.34688 242.93959L70.34688 243.93959L66.90938 243.93959L66.45625 246.25209Q67.22188 245.70522 68.06563 245.70522Q69.19063 245.70522 69.95625 246.48647Q70.7375 247.26772 70.7375 248.50209Q70.7375 249.65834 70.06563 250.51772Q69.2375 251.54897 67.81563 251.54897Q66.64375 251.54897 65.89375 250.89272Q65.15938 250.23647 65.05 249.15834Z" fill-rule="nonzero"/><path fill="#000000" d="M62.01875 198.36667L60.971874 198.36667L60.971874 191.64792Q60.58125 192.0073 59.95625 192.3823Q59.346874 192.74167 58.8625 192.91354L58.8625 191.89792Q59.7375 191.47604 60.39375 190.89792Q61.065624 190.30417 61.346874 189.74167L62.01875 189.74167L62.01875 198.36667ZM65.05 194.1323Q65.05 192.60104 65.3625 191.67917Q65.675 190.74167 66.28438 190.24167Q66.90938 189.74167 67.84688 189.74167Q68.53438 189.74167 69.05 190.02292Q69.58125 190.30417 69.925 190.83542Q70.26875 191.35104 70.45625 192.10104Q70.64375 192.85104 70.64375 194.1323Q70.64375 195.64792 70.33125 196.5698Q70.03438 197.49167 69.40938 198.0073Q68.8 198.5073 67.84688 198.5073Q66.6125 198.5073 65.89375 197.61667Q65.05 196.55417 65.05 194.1323ZM66.12813 194.1323Q66.12813 196.24167 66.62813 196.9448Q67.12813 197.64792 67.84688 197.64792Q68.58125 197.64792 69.06563 196.9448Q69.56563 196.24167 69.56563 194.1323Q69.56563 192.0073 69.06563 191.3198Q68.58125 190.61667 67.83125 190.61667Q67.1125 190.61667 66.675 191.22604Q66.12813 192.0073 66.12813 194.1323Z" fill-rule="nonzero"/><path fill="#000000" d="M62.01875 145.325L60.971874 145.325L60.971874 138.60625Q60.58125 138.96562 59.95625 139.34062Q59.346874 139.7 58.8625 139.87187L58.8625 138.85625Q59.7375 138.43437 60.39375 137.85625Q61.065624 137.2625 61.346874 136.7L62.01875 136.7L62.01875 145.325ZM65.05 143.075L66.15938 142.98125Q66.28438 143.79375 66.72188 144.2Q67.175 144.60625 67.81563 144.60625Q68.56563 144.60625 69.09688 144.02812Q69.62813 143.45 69.62813 142.5125Q69.62813 141.60625 69.1125 141.09062Q68.6125 140.55937 67.78438 140.55937Q67.28438 140.55937 66.8625 140.79375Q66.45625 141.02812 66.22188 141.3875L65.2375 141.2625L66.06563 136.85625L70.34688 136.85625L70.34688 137.85625L66.90938 137.85625L66.45625 140.16875Q67.22188 139.62187 68.06563 139.62187Q69.19063 139.62187 69.95625 140.40312Q70.7375 141.18437 70.7375 142.41875Q70.7375 143.575 70.06563 144.43437Q69.2375 145.46562 67.81563 145.46562Q66.64375 145.46562 65.89375 144.80937Q65.15938 144.15312 65.05 143.075Z" fill-rule="nonzero"/><path fill="#000000" d="M63.596874 91.26771L63.596874 92.28333L57.909374 92.28333Q57.909374 91.90833 58.034374 91.54896Q58.253124 90.97083 58.721874 90.40833Q59.20625 89.84583 60.1125 89.11146Q61.51875 87.95521 62.003124 87.28333Q62.503124 86.61146 62.503124 86.01771Q62.503124 85.39271 62.05 84.97083Q61.596874 84.53333 60.878124 84.53333Q60.1125 84.53333 59.659374 84.98646Q59.20625 85.43958 59.190624 86.25208L58.1125 86.14271Q58.221874 84.92396 58.940624 84.29896Q59.675 83.65833 60.909374 83.65833Q62.14375 83.65833 62.8625 84.34583Q63.58125 85.03333 63.58125 86.04896Q63.58125 86.56458 63.3625 87.06458Q63.159374 87.54896 62.659374 88.11146Q62.175 88.65833 61.05 89.61146Q60.096874 90.40833 59.815624 90.70521Q59.55 90.98646 59.378124 91.26771L63.596874 91.26771ZM65.05 88.04896Q65.05 86.51771 65.3625 85.59583Q65.675 84.65833 66.28438 84.15833Q66.90938 83.65833 67.84688 83.65833Q68.53438 83.65833 69.05 83.93958Q69.58125 84.22083 69.925 84.75208Q70.26875 85.26771 70.45625 86.01771Q70.64375 86.76771 70.64375 88.04896Q70.64375 89.56458 70.33125 90.48646Q70.03438 91.40833 69.40938 91.92396Q68.8 92.42396 67.84688 92.42396Q66.6125 92.42396 65.89375 91.53333Q65.05 90.47083 65.05 88.04896ZM66.12813 88.04896Q66.12813 90.15833 66.62813 90.86146Q67.12813 91.56458 67.84688 91.56458Q68.58125 91.56458 69.06563 90.86146Q69.56563 90.15833 69.56563 88.04896Q69.56563 85.92396 69.06563 85.23646Q68.58125 84.53333 67.83125 84.53333Q67.1125 84.53333 66.675 85.14271Q66.12813 85.92396 66.12813 88.04896Z" fill-rule="nonzero"/><path fill="#000000" d="M75.01875 317.45L73.97188 317.45L73.97188 310.73126Q73.58125 311.09064 72.95625 311.46564Q72.34688 311.825 71.8625 311.9969L71.8625 310.98126Q72.7375 310.5594 73.39375 309.98126Q74.06563 309.3875 74.34688 308.825L75.01875 308.825L75.01875 317.45ZM78.05 313.21564Q78.05 311.6844 78.3625 310.7625Q78.675 309.825 79.28438 309.325Q79.90938 308.825 80.84688 308.825Q81.53438 308.825 82.05 309.10626Q82.58125 309.3875 82.925 309.91876Q83.26875 310.4344 83.45625 311.1844Q83.64375 311.9344 83.64375 313.21564Q83.64375 314.73126 83.33125 315.65314Q83.03438 316.575 82.40938 317.09064Q81.8 317.59064 80.84688 317.59064Q79.6125 317.59064 78.89375 316.7Q78.05 315.6375 78.05 313.21564ZM79.12813 313.21564Q79.12813 315.325 79.62813 316.02814Q80.12813 316.73126 80.84688 316.73126Q81.58125 316.73126 82.06563 316.02814Q82.56563 315.325 82.56563 313.21564Q82.56563 311.09064 82.06563 310.40314Q81.58125 309.7 80.83125 309.7Q80.1125 309.7 79.675 310.3094Q79.12813 311.09064 79.12813 313.21564Z" fill-rule="nonzero"/><path fill="#000000" d="M147.00447 317.45L145.9576 317.45L145.9576 310.73126Q145.56697 311.09064 144.94197 311.46564Q144.3326 311.825 143.84822 311.9969L143.84822 310.98126Q144.72322 310.5594 145.37947 309.98126Q146.05135 309.3875 146.3326 308.825L147.00447 308.825L147.00447 317.45ZM155.5826 316.4344L155.5826 317.45L149.8951 317.45Q149.8951 317.075 150.0201 316.71564Q150.23885 316.1375 150.7076 315.575Q151.19197 315.0125 152.09822 314.27814Q153.50447 313.1219 153.98885 312.45Q154.48885 311.77814 154.48885 311.1844Q154.48885 310.5594 154.03572 310.1375Q153.5826 309.7 152.86385 309.7Q152.09822 309.7 151.6451 310.15314Q151.19197 310.60626 151.17635 311.41876L150.09822 311.3094Q150.2076 310.09064 150.92635 309.46564Q151.66072 308.825 152.8951 308.825Q154.12947 308.825 154.84822 309.5125Q155.56697 310.2 155.56697 311.21564Q155.56697 311.73126 155.34822 312.23126Q155.1451 312.71564 154.6451 313.27814Q154.16072 313.825 153.03572 314.77814Q152.0826 315.575 151.80135 315.8719Q151.53572 316.15314 151.36385 316.4344L155.5826 316.4344Z" fill-rule="nonzero"/><path fill="#000000" d="M218.99017 317.45L217.9433 317.45L217.9433 310.73126Q217.55267 311.09064 216.92767 311.46564Q216.3183 311.825 215.83392 311.9969L215.83392 310.98126Q216.70892 310.5594 217.36517 309.98126Q218.03705 309.3875 218.3183 308.825L218.99017 308.825L218.99017 317.45ZM225.39642 317.45L225.39642 315.3875L221.67767 315.3875L221.67767 314.41876L225.59955 308.85626L226.45892 308.85626L226.45892 314.41876L227.61517 314.41876L227.61517 315.3875L226.45892 315.3875L226.45892 317.45L225.39642 317.45ZM225.39642 314.41876L225.39642 310.5594L222.70892 314.41876L225.39642 314.41876Z" fill-rule="nonzero"/><path fill="#000000" d="M290.9759 317.45L289.92902 317.45L289.92902 310.73126Q289.5384 311.09064 288.9134 311.46564Q288.30402 311.825 287.81964 311.9969L287.81964 310.98126Q288.69464 310.5594 289.3509 309.98126Q290.02277 309.3875 290.30402 308.825L290.9759 308.825L290.9759 317.45ZM299.4759 310.96564L298.42902 311.04376Q298.2884 310.41876 298.0384 310.1375Q297.6009 309.6844 296.9759 309.6844Q296.4759 309.6844 296.08527 309.96564Q295.6009 310.34064 295.30402 311.04376Q295.02277 311.73126 295.00714 313.0125Q295.38214 312.4344 295.92902 312.15314Q296.49152 311.8719 297.1009 311.8719Q298.14777 311.8719 298.88214 312.65314Q299.63214 313.4344 299.63214 314.65314Q299.63214 315.46564 299.27277 316.16876Q298.92902 316.85626 298.31964 317.23126Q297.71027 317.59064 296.94464 317.59064Q295.61652 317.59064 294.7884 316.6219Q293.96027 315.65314 293.96027 313.4344Q293.96027 310.9344 294.88214 309.8094Q295.67902 308.825 297.0384 308.825Q298.05402 308.825 298.69464 309.40314Q299.3509 309.96564 299.4759 310.96564ZM295.17902 314.66876Q295.17902 315.21564 295.39777 315.71564Q295.63214 316.2 296.0384 316.46564Q296.46027 316.73126 296.92902 316.73126Q297.58527 316.73126 298.06964 316.2Q298.55402 315.65314 298.55402 314.73126Q298.55402 313.84064 298.06964 313.325Q297.6009 312.8094 296.88214 312.8094Q296.1634 312.8094 295.6634 313.325Q295.17902 313.84064 295.17902 314.66876Z" fill-rule="nonzero"/><path fill="#000000" d="M362.9616 317.45L361.91473 317.45L361.91473 310.73126Q361.5241 311.09064 360.8991 311.46564Q360.28973 311.825 359.80536 311.9969L359.80536 310.98126Q360.68036 310.5594 361.3366 309.98126Q362.00848 309.3875 362.28973 308.825L362.9616 308.825L362.9616 317.45ZM367.61786 312.79376Q366.9616 312.54376 366.63348 312.10626Q366.32098 311.65314 366.32098 311.04376Q366.32098 310.10626 366.99286 309.46564Q367.68036 308.825 368.78973 308.825Q369.91473 308.825 370.60223 309.48126Q371.28973 310.1375 371.28973 311.075Q371.28973 311.66876 370.97723 312.10626Q370.66473 312.54376 370.0241 312.79376Q370.82098 313.04376 371.22723 313.6219Q371.63348 314.2 371.63348 314.9969Q371.63348 316.09064 370.85223 316.84064Q370.0866 317.59064 368.80536 317.59064Q367.53973 317.59064 366.75848 316.84064Q365.97723 316.09064 365.97723 314.96564Q365.97723 314.1219 366.3991 313.5594Q366.8366 312.9969 367.61786 312.79376ZM367.3991 310.9969Q367.3991 311.60626 367.78973 311.9969Q368.19598 312.3875 368.82098 312.3875Q369.43036 312.3875 369.82098 312.0125Q370.2116 311.6219 370.2116 311.0594Q370.2116 310.48126 369.80536 310.09064Q369.3991 309.6844 368.80536 309.6844Q368.19598 309.6844 367.78973 310.075Q367.3991 310.46564 367.3991 310.9969ZM367.07098 314.96564Q367.07098 315.41876 367.2741 315.84064Q367.49286 316.2625 367.91473 316.4969Q368.3366 316.73126 368.82098 316.73126Q369.57098 316.73126 370.05536 316.2469Q370.55536 315.7625 370.55536 315.0125Q370.55536 314.2469 370.05536 313.7469Q369.55536 313.2469 368.78973 313.2469Q368.03973 313.2469 367.55536 313.7469Q367.07098 314.23126 367.07098 314.96564Z" fill-rule="nonzero"/><path fill="#000000" d="M436.52545 316.4344L436.52545 317.45L430.83795 317.45Q430.83795 317.075 430.96295 316.71564Q431.1817 316.1375 431.65045 315.575Q432.13483 315.0125 433.04108 314.27814Q434.44733 313.1219 434.9317 312.45Q435.4317 311.77814 435.4317 311.1844Q435.4317 310.5594 434.97858 310.1375Q434.52545 309.7 433.8067 309.7Q433.04108 309.7 432.58795 310.15314Q432.13483 310.60626 432.1192 311.41876L431.04108 311.3094Q431.15045 310.09064 431.8692 309.46564Q432.60358 308.825 433.83795 308.825Q435.07233 308.825 435.79108 309.5125Q436.50983 310.2 436.50983 311.21564Q436.50983 311.73126 436.29108 312.23126Q436.08795 312.71564 435.58795 313.27814Q435.10358 313.825 433.97858 314.77814Q433.02545 315.575 432.7442 315.8719Q432.47858 316.15314 432.3067 316.4344L436.52545 316.4344ZM437.97858 313.21564Q437.97858 311.6844 438.29108 310.7625Q438.60358 309.825 439.21295 309.325Q439.83795 308.825 440.77545 308.825Q441.46295 308.825 441.97858 309.10626Q442.50983 309.3875 442.85358 309.91876Q443.19733 310.4344 443.38483 311.1844Q443.57233 311.9344 443.57233 313.21564Q443.57233 314.73126 443.25983 315.65314Q442.96295 316.575 442.33795 317.09064Q441.72858 317.59064 440.77545 317.59064Q439.54108 317.59064 438.82233 316.7Q437.97858 315.6375 437.97858 313.21564ZM439.0567 313.21564Q439.0567 315.325 439.5567 316.02814Q440.0567 316.73126 440.77545 316.73126Q441.50983 316.73126 441.9942 316.02814Q442.4942 315.325 442.4942 313.21564Q442.4942 311.09064 441.9942 310.40314Q441.50983 309.7 440.75983 309.7Q440.04108 309.7 439.60358 310.3094Q439.0567 311.09064 439.0567 313.21564Z" fill-rule="nonzero"/><path fill="#000000" d="M508.51117 316.4344L508.51117 317.45L502.82367 317.45Q502.82367 317.075 502.94867 316.71564Q503.16742 316.1375 503.63617 315.575Q504.12054 315.0125 505.0268 314.27814Q506.43304 313.1219 506.91742 312.45Q507.41742 311.77814 507.41742 311.1844Q507.41742 310.5594 506.9643 310.1375Q506.51117 309.7 505.79242 309.7Q505.0268 309.7 504.57367 310.15314Q504.12054 310.60626 504.10492 311.41876L503.0268 311.3094Q503.13617 310.09064 503.85492 309.46564Q504.5893 308.825 505.82367 308.825Q507.05804 308.825 507.7768 309.5125Q508.49554 310.2 508.49554 311.21564Q508.49554 311.73126 508.2768 312.23126Q508.07367 312.71564 507.57367 313.27814Q507.0893 313.825 505.9643 314.77814Q505.01117 315.575 504.72992 315.8719Q504.4643 316.15314 504.29242 316.4344L508.51117 316.4344ZM515.51117 316.4344L515.51117 317.45L509.82367 317.45Q509.82367 317.075 509.94867 316.71564Q510.16742 316.1375 510.63617 315.575Q511.12054 315.0125 512.0268 314.27814Q513.43304 313.1219 513.9174 312.45Q514.4174 311.77814 514.4174 311.1844Q514.4174 310.5594 513.9643 310.1375Q513.51117 309.7 512.7924 309.7Q512.0268 309.7 511.57367 310.15314Q511.12054 310.60626 511.10492 311.41876L510.0268 311.3094Q510.13617 310.09064 510.85492 309.46564Q511.5893 308.825 512.82367 308.825Q514.05804 308.825 514.7768 309.5125Q515.49554 310.2 515.49554 311.21564Q515.49554 311.73126 515.2768 312.23126Q515.07367 312.71564 514.57367 313.27814Q514.0893 313.825 512.9643 314.77814Q512.01117 315.575 511.72992 315.8719Q511.4643 316.15314 511.29242 316.4344L515.51117 316.4344Z" fill-rule="nonzero"/><path fill="#000000" d="M580.4969 316.4344L580.4969 317.45L574.8094 317.45Q574.8094 317.075 574.9344 316.71564Q575.15314 316.1375 575.6219 315.575Q576.10626 315.0125 577.0125 314.27814Q578.41876 313.1219 578.90314 312.45Q579.40314 311.77814 579.40314 311.1844Q579.40314 310.5594 578.95 310.1375Q578.4969 309.7 577.77814 309.7Q577.0125 309.7 576.5594 310.15314Q576.10626 310.60626 576.09064 311.41876L575.0125 311.3094Q575.1219 310.09064 575.84064 309.46564Q576.575 308.825 577.8094 308.825Q579.04376 308.825 579.7625 309.5125Q580.48126 310.2 580.48126 311.21564Q580.48126 311.73126 580.2625 312.23126Q580.0594 312.71564 579.5594 313.27814Q579.075 313.825 577.95 314.77814Q576.9969 315.575 576.71564 315.8719Q576.45 316.15314 576.27814 316.4344L580.4969 316.4344ZM585.325 317.45L585.325 315.3875L581.60626 315.3875L581.60626 314.41876L585.52814 308.85626L586.3875 308.85626L586.3875 314.41876L587.54376 314.41876L587.54376 315.3875L586.3875 315.3875L586.3875 317.45L585.325 317.45ZM585.325 314.41876L585.325 310.5594L582.6375 314.41876L585.325 314.41876Z" fill-rule="nonzero"/><path stroke="#4285f4" stroke-width="4.0" stroke-linecap="butt" d="M168.5 61.916668L180.5 61.916668" fill-rule="nonzero"/><path fill="#1a1a1a" d="M195.5625 62.90104L196.6875 63.197914Q196.32812 64.58854 195.40625 65.322914Q194.48438 66.05729 193.14062 66.05729Q191.75 66.05729 190.875 65.49479Q190.0 64.93229 189.54688 63.86979Q189.09375 62.791664 189.09375 61.55729Q189.09375 60.21354 189.60938 59.21354Q190.125 58.21354 191.0625 57.697914Q192.01562 57.18229 193.15625 57.18229Q194.4375 57.18229 195.3125 57.83854Q196.20312 58.49479 196.54688 59.68229L195.42188 59.947914Q195.125 59.010414 194.54688 58.58854Q193.98438 58.15104 193.125 58.15104Q192.14062 58.15104 191.46875 58.635414Q190.8125 59.104164 190.53125 59.90104Q190.26562 60.697914 190.26562 61.55729Q190.26562 62.65104 190.57812 63.46354Q190.90625 64.27604 191.57812 64.68229Q192.25 65.08854 193.04688 65.08854Q194.0 65.08854 194.65625 64.541664Q195.32812 63.99479 195.5625 62.90104ZM198.42188 65.916664L198.42188 57.322914L201.67188 57.322914Q202.51562 57.322914 202.96875 57.40104Q203.60938 57.510414 204.03125 57.80729Q204.46875 58.104164 204.71875 58.635414Q204.98438 59.166664 204.98438 59.80729Q204.98438 60.90104 204.28125 61.666664Q203.59375 62.416664 201.76562 62.416664L199.5625 62.416664L199.5625 65.916664L198.42188 65.916664ZM199.5625 61.416664L201.78125 61.416664Q202.89062 61.416664 203.34375 61.010414Q203.8125 60.58854 203.8125 59.83854Q203.8125 59.30729 203.53125 58.93229Q203.26562 58.541664 202.82812 58.416664Q202.53125 58.33854 201.76562 58.33854L199.5625 58.33854L199.5625 61.416664ZM212.0625 57.322914L213.20312 57.322914L213.20312 62.291664Q213.20312 63.58854 212.90625 64.354164Q212.60938 65.104164 211.84375 65.58854Q211.07812 66.05729 209.84375 66.05729Q208.64062 66.05729 207.85938 65.65104Q207.09375 65.229164 206.76562 64.447914Q206.4375 63.65104 206.4375 62.291664L206.4375 57.322914L207.57812 57.322914L207.57812 62.27604Q207.57812 63.40104 207.78125 63.93229Q208.0 64.46354 208.5 64.760414Q209.01562 65.041664 209.75 65.041664Q211.0 65.041664 211.53125 64.479164Q212.0625 63.90104 212.0625 62.27604L212.0625 57.322914Z" fill-rule="nonzero"/><path stroke="#ea4335" stroke-width="4.0" stroke-linecap="butt" d="M230.5 61.916668L242.5 61.916668" fill-rule="nonzero"/><path fill="#1a1a1a" d="M251.42188 65.916664L251.42188 57.322914L252.57812 57.322914L257.09375 64.072914L257.09375 57.322914L258.1875 57.322914L258.1875 65.916664L257.01562 65.916664L252.5 59.166664L252.5 65.916664L251.42188 65.916664ZM264.35938 65.15104Q263.76562 65.65104 263.21875 65.854164Q262.6875 66.05729 262.0625 66.05729Q261.03125 66.05729 260.48438 65.55729Q259.9375 65.05729 259.9375 64.27604Q259.9375 63.822914 260.14062 63.447914Q260.34375 63.05729 260.6875 62.83854Q261.03125 62.604164 261.45312 62.49479Q261.75 62.40104 262.39062 62.322914Q263.65625 62.18229 264.26562 61.96354Q264.26562 61.74479 264.26562 61.697914Q264.26562 61.041664 263.96875 60.77604Q263.5625 60.43229 262.76562 60.43229Q262.03125 60.43229 261.67188 60.697914Q261.3125 60.947914 261.14062 61.604164L260.10938 61.46354Q260.25 60.80729 260.57812 60.40104Q260.90625 59.99479 261.51562 59.77604Q262.125 59.55729 262.92188 59.55729Q263.71875 59.55729 264.21875 59.74479Q264.71875 59.93229 264.95312 60.21354Q265.1875 60.49479 265.28125 60.93229Q265.32812 61.197914 265.32812 61.90104L265.32812 63.30729Q265.32812 64.77604 265.39062 65.166664Q265.46875 65.55729 265.67188 65.916664L264.5625 65.916664Q264.40625 65.58854 264.35938 65.15104ZM264.26562 62.791664Q263.6875 63.02604 262.54688 63.197914Q261.89062 63.291664 261.625 63.416664Q261.35938 63.52604 261.20312 63.74479Q261.0625 63.96354 261.0625 64.24479Q261.0625 64.666664 261.375 64.947914Q261.70312 65.229164 262.3125 65.229164Q262.92188 65.229164 263.39062 64.96354Q263.875 64.697914 264.09375 64.229164Q264.26562 63.86979 264.26562 63.18229L264.26562 62.791664ZM267.29688 58.541664L267.29688 57.322914L268.35938 57.322914L268.35938 58.541664L267.29688 58.541664ZM267.29688 65.916664L267.29688 59.697914L268.35938 59.697914L268.35938 65.916664L267.29688 65.916664ZM272.01562 65.916664L269.65625 59.697914L270.76562 59.697914L272.10938 63.416664Q272.3125 64.02604 272.5 64.666664Q272.64062 64.18229 272.89062 63.49479L274.28125 59.697914L275.35938 59.697914L273.0 65.916664L272.01562 65.916664ZM279.54688 63.916664L280.64062 64.041664Q280.39062 64.99479 279.6875 65.52604Q278.98438 66.05729 277.90625 66.05729Q276.54688 66.05729 275.73438 65.21354Q274.9375 64.36979 274.9375 62.854164Q274.9375 61.291664 275.75 60.43229Q276.5625 59.55729 277.84375 59.55729Q279.09375 59.55729 279.875 60.40104Q280.67188 61.24479 280.67188 62.791664Q280.67188 62.885414 280.67188 63.072914L276.03125 63.072914Q276.09375 64.104164 276.60938 64.65104Q277.125 65.18229 277.90625 65.18229Q278.48438 65.18229 278.89062 64.885414Q279.3125 64.572914 279.54688 63.916664ZM276.09375 62.21354L279.5625 62.21354Q279.5 61.416664 279.17188 61.02604Q278.65625 60.416664 277.85938 60.416664Q277.125 60.416664 276.625 60.90104Q276.14062 61.385414 276.09375 62.21354Z" fill-rule="nonzero"/><path stroke="#fbbc04" stroke-width="4.0" stroke-linecap="butt" d="M297.5 61.916668L309.5 61.916668" fill-rule="nonzero"/><path fill="#1a1a1a" d="M318.45312 65.916664L318.45312 57.322914L324.65625 57.322914L324.65625 58.33854L319.59375 58.33854L319.59375 60.96354L324.34375 60.96354L324.34375 61.979164L319.59375 61.979164L319.59375 64.90104L324.85938 64.90104L324.85938 65.916664L318.45312 65.916664ZM326.54688 65.916664L326.54688 60.510414L325.60938 60.510414L325.60938 59.697914L326.54688 59.697914L326.54688 59.02604Q326.54688 58.40104 326.65625 58.104164Q326.8125 57.68229 327.1875 57.43229Q327.57812 57.18229 328.26562 57.18229Q328.71875 57.18229 329.25 57.291664L329.09375 58.197914Q328.76562 58.15104 328.46875 58.15104Q327.98438 58.15104 327.78125 58.354164Q327.59375 58.55729 327.59375 59.11979L327.59375 59.697914L328.8125 59.697914L328.8125 60.510414L327.59375 60.510414L327.59375 65.916664L326.54688 65.916664ZM329.54688 65.916664L329.54688 60.510414L328.60938 60.510414L328.60938 59.697914L329.54688 59.697914L329.54688 59.02604Q329.54688 58.40104 329.65625 58.104164Q329.8125 57.68229 330.1875 57.43229Q330.57812 57.18229 331.26562 57.18229Q331.71875 57.18229 332.25 57.291664L332.09375 58.197914Q331.76562 58.15104 331.46875 58.15104Q330.98438 58.15104 330.78125 58.354164Q330.59375 58.55729 330.59375 59.11979L330.59375 59.697914L331.8125 59.697914L331.8125 60.510414L330.59375 60.510414L330.59375 65.916664L329.54688 65.916664ZM332.29688 58.541664L332.29688 57.322914L333.35938 57.322914L333.35938 58.541664L332.29688 58.541664ZM332.29688 65.916664L332.29688 59.697914L333.35938 59.697914L333.35938 65.916664L332.29688 65.916664ZM339.35938 63.635414L340.39062 63.77604Q340.21875 64.83854 339.51562 65.447914Q338.8125 66.05729 337.79688 66.05729Q336.51562 66.05729 335.73438 65.229164Q334.96875 64.385414 334.96875 62.822914Q334.96875 61.822914 335.29688 61.072914Q335.64062 60.30729 336.3125 59.93229Q337.0 59.55729 337.8125 59.55729Q338.8125 59.55729 339.45312 60.072914Q340.10938 60.572914 340.29688 61.52604L339.26562 61.68229Q339.125 61.05729 338.75 60.74479Q338.375 60.416664 337.84375 60.416664Q337.04688 60.416664 336.54688 60.99479Q336.04688 61.55729 336.04688 62.791664Q336.04688 64.05729 336.53125 64.61979Q337.01562 65.18229 337.78125 65.18229Q338.40625 65.18229 338.8125 64.80729Q339.23438 64.43229 339.35938 63.635414ZM341.29688 58.541664L341.29688 57.322914L342.35938 57.322914L342.35938 58.541664L341.29688 58.541664ZM341.29688 65.916664L341.29688 59.697914L342.35938 59.697914L342.35938 65.916664L341.29688 65.916664ZM348.54688 63.916664L349.64062 64.041664Q349.39062 64.99479 348.6875 65.52604Q347.98438 66.05729 346.90625 66.05729Q345.54688 66.05729 344.73438 65.21354Q343.9375 64.36979 343.9375 62.854164Q343.9375 61.291664 344.75 60.43229Q345.5625 59.55729 346.84375 59.55729Q348.09375 59.55729 348.875 60.40104Q349.67188 61.24479 349.67188 62.791664Q349.67188 62.885414 349.67188 63.072914L345.03125 63.072914Q345.09375 64.104164 345.60938 64.65104Q346.125 65.18229 346.90625 65.18229Q347.48438 65.18229 347.89062 64.885414Q348.3125 64.572914 348.54688 63.916664ZM345.09375 62.21354L348.5625 62.21354Q348.5 61.416664 348.17188 61.02604Q347.65625 60.416664 346.85938 60.416664Q346.125 60.416664 345.625 60.90104Q345.14062 61.385414 345.09375 62.21354ZM351.29688 65.916664L351.29688 59.697914L352.23438 59.697914L352.23438 60.572914Q352.92188 59.55729 354.21875 59.55729Q354.78125 59.55729 355.25 59.760414Q355.73438 59.96354 355.96875 60.291664Q356.20312 60.61979 356.29688 61.05729Q356.34375 61.354164 356.34375 62.08854L356.34375 65.916664L355.29688 65.916664L355.29688 62.135414Q355.29688 61.479164 355.17188 61.166664Q355.04688 60.854164 354.73438 60.666664Q354.42188 60.46354 354.0 60.46354Q353.32812 60.46354 352.82812 60.90104Q352.34375 61.322914 352.34375 62.510414L352.34375 65.916664L351.29688 65.916664ZM360.59375 64.979164L360.75 65.90104Q360.29688 65.99479 359.95312 65.99479Q359.375 65.99479 359.0625 65.822914Q358.75 65.635414 358.60938 65.33854Q358.48438 65.041664 358.48438 64.08854L358.48438 60.510414L357.71875 60.510414L357.71875 59.697914L358.48438 59.697914L358.48438 58.15104L359.53125 57.52604L359.53125 59.697914L360.59375 59.697914L360.59375 60.510414L359.53125 60.510414L359.53125 64.15104Q359.53125 64.604164 359.57812 64.729164Q359.64062 64.854164 359.76562 64.93229Q359.89062 65.010414 360.125 65.010414Q360.3125 65.010414 360.59375 64.979164Z" fill-rule="nonzero"/><path stroke="#34a853" stroke-width="4.0" stroke-linecap="butt" d="M376.5 61.916668L388.5 61.916668" fill-rule="nonzero"/><path fill="#1a1a1a" d="M399.60938 65.916664L399.60938 58.33854L396.78125 58.33854L396.78125 57.322914L403.59375 57.322914L403.59375 58.33854L400.75 58.33854L400.75 65.916664L399.60938 65.916664ZM404.29688 65.916664L404.29688 57.322914L405.34375 57.322914L405.34375 60.40104Q406.07812 59.55729 407.20312 59.55729Q407.90625 59.55729 408.40625 59.83854Q408.92188 60.104164 409.14062 60.58854Q409.35938 61.05729 409.35938 61.979164L409.35938 65.916664L408.3125 65.916664L408.3125 61.979164Q408.3125 61.18229 407.96875 60.822914Q407.625 60.46354 407.0 60.46354Q406.53125 60.46354 406.10938 60.71354Q405.70312 60.947914 405.51562 61.36979Q405.34375 61.77604 405.34375 62.510414L405.34375 65.916664L404.29688 65.916664ZM411.28125 65.916664L411.28125 59.697914L412.23438 59.697914L412.23438 60.635414Q412.59375 59.979164 412.89062 59.77604Q413.20312 59.55729 413.57812 59.55729Q414.10938 59.55729 414.65625 59.885414L414.29688 60.86979Q413.90625 60.635414 413.53125 60.635414Q413.17188 60.635414 412.89062 60.854164Q412.625 61.05729 412.51562 61.43229Q412.32812 61.99479 412.32812 62.65104L412.32812 65.916664L411.28125 65.916664ZM419.375 65.916664L419.375 64.99479Q418.64062 66.05729 417.39062 66.05729Q416.84375 66.05729 416.35938 65.854164Q415.89062 65.635414 415.65625 65.322914Q415.42188 64.99479 415.32812 64.52604Q415.26562 64.229164 415.26562 63.541664L415.26562 59.697914L416.32812 59.697914L416.32812 63.15104Q416.32812 63.96354 416.39062 64.260414Q416.48438 64.666664 416.79688 64.916664Q417.125 65.15104 417.60938 65.15104Q418.07812 65.15104 418.48438 64.916664Q418.90625 64.666664 419.07812 64.24479Q419.26562 63.822914 419.26562 63.02604L419.26562 59.697914L420.3125 59.697914L420.3125 65.916664L419.375 65.916664ZM421.875 64.05729L422.90625 63.90104Q423.0 64.52604 423.39062 64.854164Q423.79688 65.18229 424.53125 65.18229Q425.25 65.18229 425.59375 64.90104Q425.95312 64.604164 425.95312 64.197914Q425.95312 63.83854 425.64062 63.635414Q425.42188 63.49479 424.5625 63.27604Q423.40625 62.979164 422.95312 62.77604Q422.51562 62.55729 422.28125 62.18229Q422.04688 61.80729 422.04688 61.33854Q422.04688 60.93229 422.23438 60.572914Q422.42188 60.21354 422.75 59.979164Q423.0 59.80729 423.42188 59.68229Q423.84375 59.55729 424.34375 59.55729Q425.0625 59.55729 425.60938 59.77604Q426.17188 59.979164 426.4375 60.33854Q426.70312 60.697914 426.79688 61.291664L425.76562 61.43229Q425.70312 60.96354 425.35938 60.697914Q425.03125 60.416664 424.40625 60.416664Q423.6875 60.416664 423.375 60.666664Q423.0625 60.90104 423.0625 61.229164Q423.0625 61.43229 423.1875 61.58854Q423.32812 61.760414 423.59375 61.86979Q423.75 61.93229 424.53125 62.135414Q425.65625 62.447914 426.09375 62.635414Q426.53125 62.822914 426.78125 63.18229Q427.03125 63.541664 427.03125 64.08854Q427.03125 64.61979 426.71875 65.08854Q426.42188 65.541664 425.84375 65.80729Q425.26562 66.05729 424.53125 66.05729Q423.3125 66.05729 422.67188 65.55729Q422.04688 65.041664 421.875 64.05729ZM431.59375 64.979164L431.75 65.90104Q431.29688 65.99479 430.95312 65.99479Q430.375 65.99479 430.0625 65.822914Q429.75 65.635414 429.60938 65.33854Q429.48438 65.041664 429.48438 64.08854L429.48438 60.510414L428.71875 60.510414L428.71875 59.697914L429.48438 59.697914L429.48438 58.15104L430.53125 57.52604L430.53125 59.697914L431.59375 59.697914L431.59375 60.510414L430.53125 60.510414L430.53125 64.15104Q430.53125 64.604164 430.57812 64.729164Q430.64062 64.854164 430.76562 64.93229Q430.89062 65.010414 431.125 65.010414Q431.3125 65.010414 431.59375 64.979164Z" fill-rule="nonzero"/><path fill="#757575" d="M133.04688 37.55L133.04688 23.2375L138.4375 23.2375Q139.875 23.2375 140.625 23.3625Q141.67188 23.55 142.39062 24.05Q143.10938 24.534374 143.53125 25.425Q143.96875 26.315624 143.96875 27.378124Q143.96875 29.20625 142.79688 30.471874Q141.64062 31.721874 138.60938 31.721874L134.9375 31.721874L134.9375 37.55L133.04688 37.55ZM134.9375 30.034374L138.64062 30.034374Q140.46875 30.034374 141.23438 29.3625Q142.01562 28.675 142.01562 27.425Q142.01562 26.534374 141.5625 25.89375Q141.10938 25.253124 140.375 25.05Q139.89062 24.925 138.59375 24.925L134.9375 24.925L134.9375 30.034374ZM145.79688 37.55L145.79688 27.175L147.375 27.175L147.375 28.753124Q147.98438 27.64375 148.5 27.3Q149.01562 26.940624 149.625 26.940624Q150.51562 26.940624 151.4375 27.503124L150.82812 29.14375Q150.1875 28.753124 149.54688 28.753124Q148.96875 28.753124 148.5 29.1125Q148.04688 29.45625 147.84375 30.065624Q147.5625 31.003124 147.5625 32.1125L147.5625 37.55L145.79688 37.55ZM159.92188 34.20625L161.73438 34.440624Q161.3125 36.01875 160.14062 36.909374Q158.98438 37.784374 157.17188 37.784374Q154.90625 37.784374 153.5625 36.39375Q152.23438 34.9875 152.23438 32.45625Q152.23438 29.83125 153.57812 28.39375Q154.92188 26.940624 157.07812 26.940624Q159.15625 26.940624 160.46875 28.3625Q161.79688 29.76875 161.79688 32.346874Q161.79688 32.503124 161.78125 32.815624L154.04688 32.815624Q154.14062 34.51875 155.01562 35.425Q155.89062 36.33125 157.1875 36.33125Q158.15625 36.33125 158.82812 35.83125Q159.51562 35.315624 159.92188 34.20625ZM154.14062 31.3625L159.9375 31.3625Q159.82812 30.065624 159.28125 29.409374Q158.4375 28.39375 157.09375 28.39375Q155.89062 28.39375 155.0625 29.20625Q154.23438 30.003124 154.14062 31.3625ZM163.10938 34.45625L164.85938 34.175Q165.0 35.221874 165.67188 35.784374Q166.34375 36.33125 167.54688 36.33125Q168.75 36.33125 169.32812 35.846874Q169.92188 35.346874 169.92188 34.690624Q169.92188 34.096874 169.40625 33.753124Q169.04688 33.51875 167.60938 33.159374Q165.67188 32.659374 164.92188 32.315624Q164.1875 31.95625 163.79688 31.33125Q163.40625 30.690624 163.40625 29.925Q163.40625 29.2375 163.71875 28.64375Q164.04688 28.05 164.59375 27.659374Q165.0 27.3625 165.70312 27.159374Q166.42188 26.940624 167.23438 26.940624Q168.45312 26.940624 169.375 27.3Q170.29688 27.64375 170.73438 28.253124Q171.17188 28.846874 171.34375 29.846874L169.625 30.08125Q169.5 29.284374 168.9375 28.846874Q168.375 28.39375 167.35938 28.39375Q166.14062 28.39375 165.625 28.8Q165.10938 29.190624 165.10938 29.721874Q165.10938 30.065624 165.32812 30.346874Q165.53125 30.628124 166.0 30.815624Q166.26562 30.909374 167.54688 31.253124Q169.42188 31.753124 170.15625 32.08125Q170.89062 32.39375 171.3125 33.003124Q171.73438 33.596874 171.73438 34.503124Q171.73438 35.378124 171.21875 36.159374Q170.70312 36.940624 169.73438 37.3625Q168.76562 37.784374 167.54688 37.784374Q165.53125 37.784374 164.46875 36.940624Q163.40625 36.096874 163.10938 34.45625ZM180.59375 33.753124L182.3125 33.971874Q182.03125 35.76875 180.85938 36.784374Q179.70312 37.784374 178.0 37.784374Q175.875 37.784374 174.57812 36.39375Q173.28125 35.003124 173.28125 32.409374Q173.28125 30.721874 173.82812 29.471874Q174.39062 28.20625 175.53125 27.58125Q176.67188 26.940624 178.01562 26.940624Q179.70312 26.940624 180.76562 27.8Q181.84375 28.659374 182.15625 30.221874L180.4375 30.4875Q180.20312 29.440624 179.57812 28.925Q178.95312 28.39375 178.07812 28.39375Q176.75 28.39375 175.92188 29.346874Q175.09375 30.3 175.09375 32.346874Q175.09375 34.440624 175.89062 35.39375Q176.6875 36.33125 177.98438 36.33125Q179.01562 36.33125 179.70312 35.70625Q180.40625 35.065624 180.59375 33.753124ZM190.59375 36.26875Q189.60938 37.096874 188.70312 37.440624Q187.79688 37.784374 186.76562 37.784374Q185.0625 37.784374 184.14062 36.95625Q183.21875 36.1125 183.21875 34.815624Q183.21875 34.05 183.5625 33.425Q183.92188 32.8 184.48438 32.425Q185.04688 32.034374 185.75 31.83125Q186.26562 31.70625 187.3125 31.565624Q189.4375 31.315624 190.4375 30.971874Q190.45312 30.6125 190.45312 30.503124Q190.45312 29.440624 189.95312 28.9875Q189.28125 28.39375 187.95312 28.39375Q186.70312 28.39375 186.10938 28.83125Q185.53125 29.26875 185.25 30.378124L183.53125 30.14375Q183.76562 29.034374 184.29688 28.3625Q184.82812 27.675 185.84375 27.315624Q186.85938 26.940624 188.20312 26.940624Q189.53125 26.940624 190.35938 27.253124Q191.1875 27.565624 191.57812 28.05Q191.96875 28.51875 192.125 29.2375Q192.21875 29.690624 192.21875 30.8625L192.21875 33.20625Q192.21875 35.659374 192.32812 36.315624Q192.4375 36.95625 192.78125 37.55L190.9375 37.55Q190.67188 37.003124 190.59375 36.26875ZM190.4375 32.346874Q189.48438 32.7375 187.5625 33.003124Q186.48438 33.159374 186.03125 33.3625Q185.59375 33.55 185.34375 33.925Q185.09375 34.3 185.09375 34.76875Q185.09375 35.471874 185.625 35.940624Q186.15625 36.409374 187.1875 36.409374Q188.20312 36.409374 188.98438 35.971874Q189.78125 35.51875 190.15625 34.753124Q190.4375 34.14375 190.4375 32.9875L190.4375 32.346874ZM194.8125 37.55L194.8125 27.175L196.40625 27.175L196.40625 28.659374Q197.54688 26.940624 199.70312 26.940624Q200.64062 26.940624 201.42188 27.284374Q202.21875 27.6125 202.60938 28.159374Q203.0 28.70625 203.15625 29.45625Q203.25 29.95625 203.25 31.175L203.25 37.55L201.48438 37.55L201.48438 31.2375Q201.48438 30.159374 201.28125 29.628124Q201.07812 29.096874 200.54688 28.784374Q200.03125 28.471874 199.32812 28.471874Q198.20312 28.471874 197.39062 29.190624Q196.57812 29.89375 196.57812 31.878124L196.57812 37.55L194.8125 37.55ZM214.65625 35.971874L214.90625 37.534374Q214.17188 37.690624 213.57812 37.690624Q212.625 37.690624 212.09375 37.39375Q211.57812 37.08125 211.35938 36.596874Q211.14062 36.096874 211.14062 34.51875L211.14062 28.55L209.85938 28.55L209.85938 27.175L211.14062 27.175L211.14062 24.6125L212.89062 23.55L212.89062 27.175L214.65625 27.175L214.65625 28.55L212.89062 28.55L212.89062 34.6125Q212.89062 35.3625 212.98438 35.58125Q213.07812 35.784374 213.28125 35.925Q213.5 36.05 213.89062 36.05Q214.17188 36.05 214.65625 35.971874ZM216.82812 25.253124L216.82812 23.2375L218.59375 23.2375L218.59375 25.253124L216.82812 25.253124ZM216.82812 37.55L216.82812 27.175L218.59375 27.175L218.59375 37.55L216.82812 37.55ZM220.8125 37.55L220.8125 27.175L222.39062 27.175L222.39062 28.628124Q222.875 27.878124 223.6875 27.409374Q224.5 26.940624 225.53125 26.940624Q226.6875 26.940624 227.42188 27.425Q228.15625 27.89375 228.46875 28.753124Q229.70312 26.940624 231.67188 26.940624Q233.21875 26.940624 234.04688 27.8Q234.875 28.659374 234.875 30.425L234.875 37.55L233.125 37.55L233.125 31.01875Q233.125 29.95625 232.95312 29.503124Q232.78125 29.034374 232.32812 28.753124Q231.89062 28.471874 231.28125 28.471874Q230.1875 28.471874 229.45312 29.20625Q228.73438 29.925 228.73438 31.51875L228.73438 37.55L226.98438 37.55L226.98438 30.815624Q226.98438 29.64375 226.54688 29.065624Q226.125 28.471874 225.14062 28.471874Q224.40625 28.471874 223.76562 28.8625Q223.14062 29.253124 222.85938 30.003124Q222.57812 30.753124 222.57812 32.175L222.57812 37.55L220.8125 37.55ZM243.92188 34.20625L245.73438 34.440624Q245.3125 36.01875 244.14062 36.909374Q242.98438 37.784374 241.17188 37.784374Q238.90625 37.784374 237.5625 36.39375Q236.23438 34.9875 236.23438 32.45625Q236.23438 29.83125 237.57812 28.39375Q238.92188 26.940624 241.07812 26.940624Q243.15625 26.940624 244.46875 28.3625Q245.79688 29.76875 245.79688 32.346874Q245.79688 32.503124 245.78125 32.815624L238.04688 32.815624Q238.14062 34.51875 239.01562 35.425Q239.89062 36.33125 241.1875 36.33125Q242.15625 36.33125 242.82812 35.83125Q243.51562 35.315624 243.92188 34.20625ZM238.14062 31.3625L243.9375 31.3625Q243.82812 30.065624 243.28125 29.409374Q242.4375 28.39375 241.09375 28.39375Q239.89062 28.39375 239.0625 29.20625Q238.23438 30.003124 238.14062 31.3625ZM247.10938 34.45625L248.85938 34.175Q249.0 35.221874 249.67188 35.784374Q250.34375 36.33125 251.54688 36.33125Q252.75 36.33125 253.32812 35.846874Q253.92188 35.346874 253.92188 34.690624Q253.92188 34.096874 253.40625 33.753124Q253.04688 33.51875 251.60938 33.159374Q249.67188 32.659374 248.92188 32.315624Q248.1875 31.95625 247.79688 31.33125Q247.40625 30.690624 247.40625 29.925Q247.40625 29.2375 247.71875 28.64375Q248.04688 28.05 248.59375 27.659374Q249.0 27.3625 249.70312 27.159374Q250.42188 26.940624 251.23438 26.940624Q252.45312 26.940624 253.375 27.3Q254.29688 27.64375 254.73438 28.253124Q255.17188 28.846874 255.34375 29.846874L253.625 30.08125Q253.5 29.284374 252.9375 28.846874Q252.375 28.39375 251.35938 28.39375Q250.14062 28.39375 249.625 28.8Q249.10938 29.190624 249.10938 29.721874Q249.10938 30.065624 249.32812 30.346874Q249.53125 30.628124 250.0 30.815624Q250.26562 30.909374 251.54688 31.253124Q253.42188 31.753124 254.15625 32.08125Q254.89062 32.39375 255.3125 33.003124Q255.73438 33.596874 255.73438 34.503124Q255.73438 35.378124 255.21875 36.159374Q254.70312 36.940624 253.73438 37.3625Q252.76562 37.784374 251.54688 37.784374Q249.53125 37.784374 248.46875 36.940624Q247.40625 36.096874 247.10938 34.45625ZM264.23438 37.55L264.23438 28.55L262.6875 28.55L262.6875 27.175L264.23438 27.175L264.23438 26.08125Q264.23438 25.034374 264.42188 24.51875Q264.67188 23.83125 265.3125 23.409374Q265.95312 22.9875 267.10938 22.9875Q267.85938 22.9875 268.75 23.159374L268.48438 24.690624Q267.9375 24.596874 267.45312 24.596874Q266.65625 24.596874 266.3125 24.940624Q265.98438 25.284374 265.98438 26.221874L265.98438 27.175L268.01562 27.175L268.01562 28.55L265.98438 28.55L265.98438 37.55L264.23438 37.55ZM269.17188 32.3625Q269.17188 29.4875 270.76562 28.096874Q272.10938 26.940624 274.03125 26.940624Q276.17188 26.940624 277.51562 28.346874Q278.875 29.753124 278.875 32.221874Q278.875 34.221874 278.28125 35.378124Q277.6875 36.51875 276.53125 37.159374Q275.39062 37.784374 274.03125 37.784374Q271.84375 37.784374 270.5 36.39375Q269.17188 34.9875 269.17188 32.3625ZM270.96875 32.3625Q270.96875 34.3625 271.82812 35.346874Q272.70312 36.33125 274.03125 36.33125Q275.34375 36.33125 276.20312 35.346874Q277.07812 34.346874 277.07812 32.3Q277.07812 30.378124 276.20312 29.39375Q275.32812 28.39375 274.03125 28.39375Q272.70312 28.39375 271.82812 29.39375Q270.96875 30.378124 270.96875 32.3625ZM280.79688 37.55L280.79688 27.175L282.375 27.175L282.375 28.753124Q282.98438 27.64375 283.5 27.3Q284.01562 26.940624 284.625 26.940624Q285.51562 26.940624 286.4375 27.503124L285.82812 29.14375Q285.1875 28.753124 284.54688 28.753124Q283.96875 28.753124 283.5 29.1125Q283.04688 29.45625 282.84375 30.065624Q282.5625 31.003124 282.5625 32.1125L282.5625 37.55L280.79688 37.55ZM296.70312 37.55L292.75 27.175L294.60938 27.175L296.84375 33.39375Q297.20312 34.39375 297.5 35.471874Q297.73438 34.659374 298.15625 33.503124L300.45312 27.175L302.26562 27.175L298.34375 37.55L296.70312 37.55ZM309.59375 36.26875Q308.60938 37.096874 307.70312 37.440624Q306.79688 37.784374 305.76562 37.784374Q304.0625 37.784374 303.14062 36.95625Q302.21875 36.1125 302.21875 34.815624Q302.21875 34.05 302.5625 33.425Q302.92188 32.8 303.48438 32.425Q304.04688 32.034374 304.75 31.83125Q305.26562 31.70625 306.3125 31.565624Q308.4375 31.315624 309.4375 30.971874Q309.45312 30.6125 309.45312 30.503124Q309.45312 29.440624 308.95312 28.9875Q308.28125 28.39375 306.95312 28.39375Q305.70312 28.39375 305.10938 28.83125Q304.53125 29.26875 304.25 30.378124L302.53125 30.14375Q302.76562 29.034374 303.29688 28.3625Q303.82812 27.675 304.84375 27.315624Q305.85938 26.940624 307.20312 26.940624Q308.53125 26.940624 309.35938 27.253124Q310.1875 27.565624 310.57812 28.05Q310.96875 28.51875 311.125 29.2375Q311.21875 29.690624 311.21875 30.8625L311.21875 33.20625Q311.21875 35.659374 311.32812 36.315624Q311.4375 36.95625 311.78125 37.55L309.9375 37.55Q309.67188 37.003124 309.59375 36.26875ZM309.4375 32.346874Q308.48438 32.7375 306.5625 33.003124Q305.48438 33.159374 305.03125 33.3625Q304.59375 33.55 304.34375 33.925Q304.09375 34.3 304.09375 34.76875Q304.09375 35.471874 304.625 35.940624Q305.15625 36.409374 306.1875 36.409374Q307.20312 36.409374 307.98438 35.971874Q308.78125 35.51875 309.15625 34.753124Q309.4375 34.14375 309.4375 32.9875L309.4375 32.346874ZM313.79688 37.55L313.79688 27.175L315.375 27.175L315.375 28.753124Q315.98438 27.64375 316.5 27.3Q317.01562 26.940624 317.625 26.940624Q318.51562 26.940624 319.4375 27.503124L318.82812 29.14375Q318.1875 28.753124 317.54688 28.753124Q316.96875 28.753124 316.5 29.1125Q316.04688 29.45625 315.84375 30.065624Q315.5625 31.003124 315.5625 32.1125L315.5625 37.55L313.79688 37.55ZM320.82812 25.253124L320.82812 23.2375L322.59375 23.2375L322.59375 25.253124L320.82812 25.253124ZM320.82812 37.55L320.82812 27.175L322.59375 27.175L322.59375 37.55L320.82812 37.55ZM324.17188 32.3625Q324.17188 29.4875 325.76562 28.096874Q327.10938 26.940624 329.03125 26.940624Q331.17188 26.940624 332.51562 28.346874Q333.875 29.753124 333.875 32.221874Q333.875 34.221874 333.28125 35.378124Q332.6875 36.51875 331.53125 37.159374Q330.39062 37.784374 329.03125 37.784374Q326.84375 37.784374 325.5 36.39375Q324.17188 34.9875 324.17188 32.3625ZM325.96875 32.3625Q325.96875 34.3625 326.82812 35.346874Q327.70312 36.33125 329.03125 36.33125Q330.34375 36.33125 331.20312 35.346874Q332.07812 34.346874 332.07812 32.3Q332.07812 30.378124 331.20312 29.39375Q330.32812 28.39375 329.03125 28.39375Q327.70312 28.39375 326.82812 29.39375Q325.96875 30.378124 325.96875 32.3625ZM342.60938 37.55L342.60938 36.01875Q341.40625 37.784374 339.32812 37.784374Q338.40625 37.784374 337.60938 37.440624Q336.8125 37.08125 336.42188 36.55Q336.04688 36.01875 335.89062 35.2375Q335.78125 34.721874 335.78125 33.596874L335.78125 27.175L337.53125 27.175L337.53125 32.925Q337.53125 34.3 337.64062 34.784374Q337.8125 35.471874 338.34375 35.878124Q338.89062 36.26875 339.67188 36.26875Q340.46875 36.26875 341.15625 35.8625Q341.85938 35.45625 342.14062 34.76875Q342.4375 34.065624 342.4375 32.7375L342.4375 27.175L344.1875 27.175L344.1875 37.55L342.60938 37.55ZM345.10938 34.45625L346.85938 34.175Q347.0 35.221874 347.67188 35.784374Q348.34375 36.33125 349.54688 36.33125Q350.75 36.33125 351.32812 35.846874Q351.92188 35.346874 351.92188 34.690624Q351.92188 34.096874 351.40625 33.753124Q351.04688 33.51875 349.60938 33.159374Q347.67188 32.659374 346.92188 32.315624Q346.1875 31.95625 345.79688 31.33125Q345.40625 30.690624 345.40625 29.925Q345.40625 29.2375 345.71875 28.64375Q346.04688 28.05 346.59375 27.659374Q347.0 27.3625 347.70312 27.159374Q348.42188 26.940624 349.23438 26.940624Q350.45312 26.940624 351.375 27.3Q352.29688 27.64375 352.73438 28.253124Q353.17188 28.846874 353.34375 29.846874L351.625 30.08125Q351.5 29.284374 350.9375 28.846874Q350.375 28.39375 349.35938 28.39375Q348.14062 28.39375 347.625 28.8Q347.10938 29.190624 347.10938 29.721874Q347.10938 30.065624 347.32812 30.346874Q347.53125 30.628124 348.0 30.815624Q348.26562 30.909374 349.54688 31.253124Q351.42188 31.753124 352.15625 32.08125Q352.89062 32.39375 353.3125 33.003124Q353.73438 33.596874 353.73438 34.503124Q353.73438 35.378124 353.21875 36.159374Q352.70312 36.940624 351.73438 37.3625Q350.76562 37.784374 349.54688 37.784374Q347.53125 37.784374 346.46875 36.940624Q345.40625 36.096874 345.10938 34.45625ZM355.14062 33.253124L355.14062 31.4875L360.53125 31.4875L360.53125 33.253124L355.14062 33.253124ZM362.10938 34.45625L363.85938 34.175Q364.0 35.221874 364.67188 35.784374Q365.34375 36.33125 366.54688 36.33125Q367.75 36.33125 368.32812 35.846874Q368.92188 35.346874 368.92188 34.690624Q368.92188 34.096874 368.40625 33.753124Q368.04688 33.51875 366.60938 33.159374Q364.67188 32.659374 363.92188 32.315624Q363.1875 31.95625 362.79688 31.33125Q362.40625 30.690624 362.40625 29.925Q362.40625 29.2375 362.71875 28.64375Q363.04688 28.05 363.59375 27.659374Q364.0 27.3625 364.70312 27.159374Q365.42188 26.940624 366.23438 26.940624Q367.45312 26.940624 368.375 27.3Q369.29688 27.64375 369.73438 28.253124Q370.17188 28.846874 370.34375 29.846874L368.625 30.08125Q368.5 29.284374 367.9375 28.846874Q367.375 28.39375 366.35938 28.39375Q365.14062 28.39375 364.625 28.8Q364.10938 29.190624 364.10938 29.721874Q364.10938 30.065624 364.32812 30.346874Q364.53125 30.628124 365.0 30.815624Q365.26562 30.909374 366.54688 31.253124Q368.42188 31.753124 369.15625 32.08125Q369.89062 32.39375 370.3125 33.003124Q370.73438 33.596874 370.73438 34.503124Q370.73438 35.378124 370.21875 36.159374Q369.70312 36.940624 368.73438 37.3625Q367.76562 37.784374 366.54688 37.784374Q364.53125 37.784374 363.46875 36.940624Q362.40625 36.096874 362.10938 34.45625ZM372.82812 25.253124L372.82812 23.2375L374.59375 23.2375L374.59375 25.253124L372.82812 25.253124ZM372.82812 37.55L372.82812 27.175L374.59375 27.175L374.59375 37.55L372.82812 37.55ZM375.89062 37.55L375.89062 36.128124L382.5 28.55Q381.375 28.596874 380.51562 28.596874L376.28125 28.596874L376.28125 27.175L384.76562 27.175L384.76562 28.346874L379.14062 34.925L378.0625 36.128124Q379.23438 36.034374 380.28125 36.034374L385.07812 36.034374L385.07812 37.55L375.89062 37.55ZM392.92188 34.20625L394.73438 34.440624Q394.3125 36.01875 393.14062 36.909374Q391.98438 37.784374 390.17188 37.784374Q387.90625 37.784374 386.5625 36.39375Q385.23438 34.9875 385.23438 32.45625Q385.23438 29.83125 386.57812 28.39375Q387.92188 26.940624 390.07812 26.940624Q392.15625 26.940624 393.46875 28.3625Q394.79688 29.76875 394.79688 32.346874Q394.79688 32.503124 394.78125 32.815624L387.04688 32.815624Q387.14062 34.51875 388.01562 35.425Q388.89062 36.33125 390.1875 36.33125Q391.15625 36.33125 391.82812 35.83125Q392.51562 35.315624 392.92188 34.20625ZM387.14062 31.3625L392.9375 31.3625Q392.82812 30.065624 392.28125 29.409374Q391.4375 28.39375 390.09375 28.39375Q388.89062 28.39375 388.0625 29.20625Q387.23438 30.003124 387.14062 31.3625ZM403.54688 37.55L403.54688 36.2375Q402.5625 37.784374 400.64062 37.784374Q399.40625 37.784374 398.35938 37.096874Q397.32812 36.409374 396.75 35.190624Q396.1875 33.971874 396.1875 32.378124Q396.1875 30.815624 396.70312 29.55Q397.21875 28.284374 398.25 27.6125Q399.29688 26.940624 400.5625 26.940624Q401.5 26.940624 402.23438 27.346874Q402.96875 27.7375 403.4375 28.3625L403.4375 23.2375L405.17188 23.2375L405.17188 37.55L403.54688 37.55ZM397.98438 32.378124Q397.98438 34.3625 398.82812 35.346874Q399.67188 36.33125 400.8125 36.33125Q401.96875 36.33125 402.76562 35.39375Q403.57812 34.45625 403.57812 32.51875Q403.57812 30.39375 402.75 29.39375Q401.9375 28.39375 400.73438 28.39375Q399.5625 28.39375 398.76562 29.3625Q397.98438 30.315624 397.98438 32.378124ZM420.59375 36.26875Q419.60938 37.096874 418.70312 37.440624Q417.79688 37.784374 416.76562 37.784374Q415.0625 37.784374 414.14062 36.95625Q413.21875 36.1125 413.21875 34.815624Q413.21875 34.05 413.5625 33.425Q413.92188 32.8 414.48438 32.425Q415.04688 32.034374 415.75 31.83125Q416.26562 31.70625 417.3125 31.565624Q419.4375 31.315624 420.4375 30.971874Q420.45312 30.6125 420.45312 30.503124Q420.45312 29.440624 419.95312 28.9875Q419.28125 28.39375 417.95312 28.39375Q416.70312 28.39375 416.10938 28.83125Q415.53125 29.26875 415.25 30.378124L413.53125 30.14375Q413.76562 29.034374 414.29688 28.3625Q414.82812 27.675 415.84375 27.315624Q416.85938 26.940624 418.20312 26.940624Q419.53125 26.940624 420.35938 27.253124Q421.1875 27.565624 421.57812 28.05Q421.96875 28.51875 422.125 29.2375Q422.21875 29.690624 422.21875 30.8625L422.21875 33.20625Q422.21875 35.659374 422.32812 36.315624Q422.4375 36.95625 422.78125 37.55L420.9375 37.55Q420.67188 37.003124 420.59375 36.26875ZM420.4375 32.346874Q419.48438 32.7375 417.5625 33.003124Q416.48438 33.159374 416.03125 33.3625Q415.59375 33.55 415.34375 33.925Q415.09375 34.3 415.09375 34.76875Q415.09375 35.471874 415.625 35.940624Q416.15625 36.409374 417.1875 36.409374Q418.20312 36.409374 418.98438 35.971874Q419.78125 35.51875 420.15625 34.753124Q420.4375 34.14375 420.4375 32.9875L420.4375 32.346874ZM424.79688 37.55L424.79688 27.175L426.375 27.175L426.375 28.753124Q426.98438 27.64375 427.5 27.3Q428.01562 26.940624 428.625 26.940624Q429.51562 26.940624 430.4375 27.503124L429.82812 29.14375Q429.1875 28.753124 428.54688 28.753124Q427.96875 28.753124 427.5 29.1125Q427.04688 29.45625 426.84375 30.065624Q426.5625 31.003124 426.5625 32.1125L426.5625 37.55L424.79688 37.55ZM431.79688 37.55L431.79688 27.175L433.375 27.175L433.375 28.753124Q433.98438 27.64375 434.5 27.3Q435.01562 26.940624 435.625 26.940624Q436.51562 26.940624 437.4375 27.503124L436.82812 29.14375Q436.1875 28.753124 435.54688 28.753124Q434.96875 28.753124 434.5 29.1125Q434.04688 29.45625 433.84375 30.065624Q433.5625 31.003124 433.5625 32.1125L433.5625 37.55L431.79688 37.55ZM445.59375 36.26875Q444.60938 37.096874 443.70312 37.440624Q442.79688 37.784374 441.76562 37.784374Q440.0625 37.784374 439.14062 36.95625Q438.21875 36.1125 438.21875 34.815624Q438.21875 34.05 438.5625 33.425Q438.92188 32.8 439.48438 32.425Q440.04688 32.034374 440.75 31.83125Q441.26562 31.70625 442.3125 31.565624Q444.4375 31.315624 445.4375 30.971874Q445.45312 30.6125 445.45312 30.503124Q445.45312 29.440624 444.95312 28.9875Q444.28125 28.39375 442.95312 28.39375Q441.70312 28.39375 441.10938 28.83125Q440.53125 29.26875 440.25 30.378124L438.53125 30.14375Q438.76562 29.034374 439.29688 28.3625Q439.82812 27.675 440.84375 27.315624Q441.85938 26.940624 443.20312 26.940624Q444.53125 26.940624 445.35938 27.253124Q446.1875 27.565624 446.57812 28.05Q446.96875 28.51875 447.125 29.2375Q447.21875 29.690624 447.21875 30.8625L447.21875 33.20625Q447.21875 35.659374 447.32812 36.315624Q447.4375 36.95625 447.78125 37.55L445.9375 37.55Q445.67188 37.003124 445.59375 36.26875ZM445.4375 32.346874Q444.48438 32.7375 442.5625 33.003124Q441.48438 33.159374 441.03125 33.3625Q440.59375 33.55 440.34375 33.925Q440.09375 34.3 440.09375 34.76875Q440.09375 35.471874 440.625 35.940624Q441.15625 36.409374 442.1875 36.409374Q443.20312 36.409374 443.98438 35.971874Q444.78125 35.51875 445.15625 34.753124Q445.4375 34.14375 445.4375 32.9875L445.4375 32.346874ZM449.73438 41.55L449.54688 39.89375Q450.125 40.05 450.54688 40.05Q451.14062 40.05 451.48438 39.846874Q451.84375 39.659374 452.0625 39.315624Q452.23438 39.05 452.60938 38.003124Q452.65625 37.846874 452.76562 37.565624L448.82812 27.175L450.71875 27.175L452.875 33.190624Q453.29688 34.33125 453.625 35.58125Q453.9375 34.378124 454.34375 33.221874L456.5625 27.175L458.32812 27.175L454.375 37.721874Q453.75 39.440624 453.39062 40.08125Q452.92188 40.95625 452.3125 41.346874Q451.71875 41.753124 450.875 41.753124Q450.35938 41.753124 449.73438 41.55ZM459.10938 34.45625L460.85938 34.175Q461.0 35.221874 461.67188 35.784374Q462.34375 36.33125 463.54688 36.33125Q464.75 36.33125 465.32812 35.846874Q465.92188 35.346874 465.92188 34.690624Q465.92188 34.096874 465.40625 33.753124Q465.04688 33.51875 463.60938 33.159374Q461.67188 32.659374 460.92188 32.315624Q460.1875 31.95625 459.79688 31.33125Q459.40625 30.690624 459.40625 29.925Q459.40625 29.2375 459.71875 28.64375Q460.04688 28.05 460.59375 27.659374Q461.0 27.3625 461.70312 27.159374Q462.42188 26.940624 463.23438 26.940624Q464.45312 26.940624 465.375 27.3Q466.29688 27.64375 466.73438 28.253124Q467.17188 28.846874 467.34375 29.846874L465.625 30.08125Q465.5 29.284374 464.9375 28.846874Q464.375 28.39375 463.35938 28.39375Q462.14062 28.39375 461.625 28.8Q461.10938 29.190624 461.10938 29.721874Q461.10938 30.065624 461.32812 30.346874Q461.53125 30.628124 462.0 30.815624Q462.26562 30.909374 463.54688 31.253124Q465.42188 31.753124 466.15625 32.08125Q466.89062 32.39375 467.3125 33.003124Q467.73438 33.596874 467.73438 34.503124Q467.73438 35.378124 467.21875 36.159374Q466.70312 36.940624 465.73438 37.3625Q464.76562 37.784374 463.54688 37.784374Q461.53125 37.784374 460.46875 36.940624Q459.40625 36.096874 459.10938 34.45625Z" fill-rule="nonzero"/></svg>