<?xml version="1.0" encoding="UTF-8" standalone="no"?><svg xmlns="http://www.w3.org/2000/svg" xmlns:xlink= "http://www.w3.org/1999/xlink" width="600" height="390" aria-label="A chart." style="overflow: hidden;"><defs id="_ABSTRACT_RENDERER_ID_330"><clipPath id="_ABSTRACT_RENDERER_ID_331"><rect x="115" y="75" width="371" height="241"></rect></clipPath></defs><rect x="0" y="0" width="600" height="390" stroke="none" stroke-width="0" fill="#ffffff"></rect><g><text text-anchor="start" x="115" y="35.05" font-family="Arial" font-size="13" font-weight="bold" stroke="none" stroke-width="0" fill="#000000">The execution time of radix sort on CPU and GPU with</text><text text-anchor="start" x="115" y="52.05" font-family="Arial" font-size="13" font-weight="bold" stroke="none" stroke-width="0" fill="#000000">different number of inputs</text><rect x="115" y="24" width="371" height="30" stroke="none" stroke-width="0" fill-opacity="0" fill="#ffffff"></rect></g><g><rect x="499" y="75" width="88" height="34" stroke="none" stroke-width="0" fill-opacity="0" fill="#ffffff"></rect><g><rect x="499" y="75" width="88" height="13" stroke="none" stroke-width="0" fill-opacity="0" fill="#ffffff"></rect><g><text text-anchor="start" x="530" y="86.05" font-family="Arial" font-size="13" stroke="none" stroke-width="0" fill="#222222">CPU</text></g><path d="M499,81.5L525,81.5" stroke="#3366cc" stroke-width="3" fill-opacity="1" fill="none"></path><circle cx="512" cy="81.5" r="2.5" stroke="none" stroke-width="0" fill="#3366cc"></circle></g><g><rect x="499" y="96" width="88" height="13" stroke="none" stroke-width="0" fill-opacity="0" fill="#ffffff"></rect><g><text text-anchor="start" x="530" y="107.05" font-family="Arial" font-size="13" stroke="none" stroke-width="0" fill="#222222">GPU</text></g><path d="M499,102.5L525,102.5" stroke="#dc3912" stroke-width="3" fill-opacity="1" fill="none"></path><circle cx="512" cy="102.5" r="2.5" stroke="none" stroke-width="0" fill="#dc3912"></circle></g></g><g><rect x="115" y="75" width="371" height="241" stroke="none" stroke-width="0" fill-opacity="0" fill="#ffffff"></rect><g clip-path="url(https://www.rapidtables.com/tools/line-graph.html#_ABSTRACT_RENDERER_ID_331)"><g><rect x="115" y="75" width="1" height="241" stroke="none" stroke-width="0" fill="#cccccc"></rect><rect x="208" y="75" width="1" height="241" stroke="none" stroke-width="0" fill="#cccccc"></rect><rect x="300" y="75" width="1" height="241" stroke="none" stroke-width="0" fill="#cccccc"></rect><rect x="393" y="75" width="1" height="241" stroke="none" stroke-width="0" fill="#cccccc"></rect><rect x="485" y="75" width="1" height="241" stroke="none" stroke-width="0" fill="#cccccc"></rect><rect x="161" y="75" width="1" height="241" stroke="none" stroke-width="0" fill="#ebebeb"></rect><rect x="254" y="75" width="1" height="241" stroke="none" stroke-width="0" fill="#ebebeb"></rect><rect x="346" y="75" width="1" height="241" stroke="none" stroke-width="0" fill="#ebebeb"></rect><rect x="439" y="75" width="1" height="241" stroke="none" stroke-width="0" fill="#ebebeb"></rect><rect x="115" y="315" width="371" height="1" stroke="none" stroke-width="0" fill="#cccccc"></rect><rect x="115" y="255" width="371" height="1" stroke="none" stroke-width="0" fill="#cccccc"></rect><rect x="115" y="195" width="371" height="1" stroke="none" stroke-width="0" fill="#cccccc"></rect><rect x="115" y="135" width="371" height="1" stroke="none" stroke-width="0" fill="#cccccc"></rect><rect x="115" y="75" width="371" height="1" stroke="none" stroke-width="0" fill="#cccccc"></rect><rect x="115" y="285" width="371" height="1" stroke="none" stroke-width="0" fill="#ebebeb"></rect><rect x="115" y="225" width="371" height="1" stroke="none" stroke-width="0" fill="#ebebeb"></rect><rect x="115" y="165" width="371" height="1" stroke="none" stroke-width="0" fill="#ebebeb"></rect><rect x="115" y="105" width="371" height="1" stroke="none" stroke-width="0" fill="#ebebeb"></rect></g><g><rect x="115" y="315" width="371" height="1" stroke="none" stroke-width="0" fill="#333333"></rect></g><g><path d="M115.5,314.6L208,308.3L300.5,298.4L393,260L485.5,110.6" stroke="#3366cc" stroke-width="3" fill-opacity="1" fill="none"></path><path d="M115.5,314.6L208,314.3L300.5,307.4L393,284.9L485.5,199.7" stroke="#dc3912" stroke-width="3" fill-opacity="1" fill="none"></path></g></g><g><circle cx="115.5" cy="314.6" r="2.5" stroke="none" stroke-width="0" fill="#3366cc"></circle><circle cx="208" cy="308.3" r="2.5" stroke="none" stroke-width="0" fill="#3366cc"></circle><circle cx="300.5" cy="298.4" r="2.5" stroke="none" stroke-width="0" fill="#3366cc"></circle><circle cx="393" cy="260" r="2.5" stroke="none" stroke-width="0" fill="#3366cc"></circle><circle cx="485.5" cy="110.6" r="2.5" stroke="none" stroke-width="0" fill="#3366cc"></circle><circle cx="115.5" cy="314.6" r="2.5" stroke="none" stroke-width="0" fill="#dc3912"></circle><circle cx="208" cy="314.3" r="2.5" stroke="none" stroke-width="0" fill="#dc3912"></circle><circle cx="300.5" cy="307.4" r="2.5" stroke="none" stroke-width="0" fill="#dc3912"></circle><circle cx="393" cy="284.9" r="2.5" stroke="none" stroke-width="0" fill="#dc3912"></circle><circle cx="485.5" cy="199.7" r="2.5" stroke="none" stroke-width="0" fill="#dc3912"></circle></g><g><g><text text-anchor="middle" x="115.5" y="335.05" font-family="Arial" font-size="13" stroke="none" stroke-width="0" fill="#444444">16</text></g><g><text text-anchor="middle" x="208" y="335.05" font-family="Arial" font-size="13" stroke="none" stroke-width="0" fill="#444444">18</text></g><g><text text-anchor="middle" x="300.5" y="335.05" font-family="Arial" font-size="13" stroke="none" stroke-width="0" fill="#444444">20</text></g><g><text text-anchor="middle" x="393" y="335.05" font-family="Arial" font-size="13" stroke="none" stroke-width="0" fill="#444444">22</text></g><g><text text-anchor="middle" x="485.5" y="335.05" font-family="Arial" font-size="13" stroke="none" stroke-width="0" fill="#444444">24</text></g><g><text text-anchor="end" x="102" y="320.05" font-family="Arial" font-size="13" stroke="none" stroke-width="0" fill="#444444">0</text></g><g><text text-anchor="end" x="102" y="260.05" font-family="Arial" font-size="13" stroke="none" stroke-width="0" fill="#444444">200</text></g><g><text text-anchor="end" x="102" y="200.05" font-family="Arial" font-size="13" stroke="none" stroke-width="0" fill="#444444">400</text></g><g><text text-anchor="end" x="102" y="140.05" font-family="Arial" font-size="13" stroke="none" stroke-width="0" fill="#444444">600</text></g><g><text text-anchor="end" x="102" y="80.05" font-family="Arial" font-size="13" stroke="none" stroke-width="0" fill="#444444">800</text></g></g></g><g><g><text text-anchor="middle" x="300.5" y="368.05" font-family="Arial" font-size="13" font-style="italic" stroke="none" stroke-width="0" fill="#222222">Number of inputs(2^n))</text><rect x="115" y="357" width="371" height="13" stroke="none" stroke-width="0" fill-opacity="0" fill="#ffffff"></rect></g><g><text text-anchor="middle" x="44.55" y="195.5" font-family="Arial" font-size="13" font-style="italic" transform="rotate(-90 44.55 195.5)" stroke="none" stroke-width="0" fill="#222222">Execution time(ms))</text><path d="M33.49999999999999,316L33.50000000000001,75L46.50000000000001,75L46.49999999999999,316Z" stroke="none" stroke-width="0" fill-opacity="0" fill="#ffffff"></path></g></g><g></g></svg>