<svg version="1.1" viewBox="0.0 0.0 600.0 371.0" fill="none" stroke="none" stroke-linecap="square" stroke-miterlimit="10" width="600" height="371" xmlns:xlink="http://www.w3.org/1999/xlink" xmlns="http://www.w3.org/2000/svg"><path fill="#ffffff" d="M0 0L600.0 0L600.0 371.0L0 371.0L0 0Z" fill-rule="nonzero"/><path stroke="#333333" stroke-width="1.0" stroke-linecap="butt" d="M77.5 300.5L581.5 300.5" fill-rule="nonzero"/><path stroke="#cccccc" stroke-width="1.0" stroke-linecap="butt" d="M77.5 270.5L581.5 270.5" fill-rule="nonzero"/><path stroke="#cccccc" stroke-width="1.0" stroke-linecap="butt" d="M77.5 239.5L581.5 239.5" fill-rule="nonzero"/><path stroke="#cccccc" stroke-width="1.0" stroke-linecap="butt" d="M77.5 209.5L581.5 209.5" fill-rule="nonzero"/><path stroke="#cccccc" stroke-width="1.0" stroke-linecap="butt" d="M77.5 178.5L581.5 178.5" fill-rule="nonzero"/><path stroke="#cccccc" stroke-width="1.0" stroke-linecap="butt" d="M77.5 148.5L581.5 148.5" fill-rule="nonzero"/><path stroke="#cccccc" stroke-width="1.0" stroke-linecap="butt" d="M77.5 117.5L581.5 117.5" fill-rule="nonzero"/><path stroke="#e6e6e6" stroke-width="1.0" stroke-linecap="butt" d="M77.5 294.5L581.5 294.5" fill-rule="nonzero"/><path stroke="#e6e6e6" stroke-width="1.0" stroke-linecap="butt" d="M77.5 288.5L581.5 288.5" fill-rule="nonzero"/><path stroke="#e6e6e6" stroke-width="1.0" stroke-linecap="butt" d="M77.5 282.5L581.5 282.5" fill-rule="nonzero"/><path stroke="#e6e6e6" stroke-width="1.0" stroke-linecap="butt" d="M77.5 276.5L581.5 276.5" fill-rule="nonzero"/><path stroke="#e6e6e6" stroke-width="1.0" stroke-linecap="butt" d="M77.5 263.5L581.5 263.5" fill-rule="nonzero"/><path stroke="#e6e6e6" stroke-width="1.0" stroke-linecap="butt" d="M77.5 257.5L581.5 257.5" fill-rule="nonzero"/><path stroke="#e6e6e6" stroke-width="1.0" stroke-linecap="butt" d="M77.5 251.5L581.5 251.5" fill-rule="nonzero"/><path stroke="#e6e6e6" stroke-width="1.0" stroke-linecap="butt" d="M77.5 245.5L581.5 245.5" fill-rule="nonzero"/><path stroke="#e6e6e6" stroke-width="1.0" stroke-linecap="butt" d="M77.5 233.5L581.5 233.5" fill-rule="nonzero"/><path stroke="#e6e6e6" stroke-width="1.0" stroke-linecap="butt" d="M77.5 227.5L581.5 227.5" fill-rule="nonzero"/><path stroke="#e6e6e6" stroke-width="1.0" stroke-linecap="butt" d="M77.5 221.5L581.5 221.5" fill-rule="nonzero"/><path stroke="#e6e6e6" stroke-width="1.0" stroke-linecap="butt" d="M77.5 215.5L581.5 215.5" fill-rule="nonzero"/><path stroke="#e6e6e6" stroke-width="1.0" stroke-linecap="butt" d="M77.5 203.5L581.5 203.5" fill-rule="nonzero"/><path stroke="#e6e6e6" stroke-width="1.0" stroke-linecap="butt" d="M77.5 196.5L581.5 196.5" fill-rule="nonzero"/><path stroke="#e6e6e6" stroke-width="1.0" stroke-linecap="butt" d="M77.5 190.5L581.5 190.5" fill-rule="nonzero"/><path stroke="#e6e6e6" stroke-width="1.0" stroke-linecap="butt" d="M77.5 184.5L581.5 184.5" fill-rule="nonzero"/><path stroke="#e6e6e6" stroke-width="1.0" stroke-linecap="butt" d="M77.5 172.5L581.5 172.5" fill-rule="nonzero"/><path stroke="#e6e6e6" stroke-width="1.0" stroke-linecap="butt" d="M77.5 166.5L581.5 166.5" fill-rule="nonzero"/><path stroke="#e6e6e6" stroke-width="1.0" stroke-linecap="butt" d="M77.5 160.5L581.5 160.5" fill-rule="nonzero"/><path stroke="#e6e6e6" stroke-width="1.0" stroke-linecap="butt" d="M77.5 154.5L581.5 154.5" fill-rule="nonzero"/><path stroke="#e6e6e6" stroke-width="1.0" stroke-linecap="butt" d="M77.5 142.5L581.5 142.5" fill-rule="nonzero"/><path stroke="#e6e6e6" stroke-width="1.0" stroke-linecap="butt" d="M77.5 136.5L581.5 136.5" fill-rule="nonzero"/><path stroke="#e6e6e6" stroke-width="1.0" stroke-linecap="butt" d="M77.5 130.5L581.5 130.5" fill-rule="nonzero"/><path stroke="#e6e6e6" stroke-width="1.0" stroke-linecap="butt" d="M77.5 123.5L581.5 123.5" fill-rule="nonzero"/><path stroke="#e6e6e6" stroke-width="1.0" stroke-linecap="butt" d="M77.5 111.5L581.5 111.5" fill-rule="nonzero"/><clipPath id="id_0"><path d="M77.55 111.78333L581.45 111.78333L581.45 300.45L77.55 300.45L77.55 111.78333Z" clip-rule="nonzero"/></clipPath><path stroke="#4285f4" stroke-width="1.0" stroke-linecap="butt" clip-path="url(#id_0)" d="M127.94 137.02145L228.72 218.27837L329.5 258.69684L430.28 279.17023L531.06 289.5974" fill-rule="nonzero"/><path stroke="#ea4335" stroke-width="1.0" stroke-linecap="butt" clip-path="url(#id_0)" d="M127.94 114.34981L228.72 213.04013L329.5 247.73178L430.28 280.50732L531.06 290.7778" fill-rule="nonzero"/><path stroke="#fbbc04" stroke-width="1.0" stroke-linecap="butt" clip-path="url(#id_0)" d="M127.94 131.76495L228.72 215.52565L329.5 255.48318L430.28 280.64444L531.06 290.3988" fill-rule="nonzero"/><path stroke="#34a853" stroke-width="1.0" stroke-linecap="butt" clip-path="url(#id_0)" d="M127.94 293.52167L228.72 295.5027L329.5 297.99457L430.28 298.82965L531.06 299.5193" fill-rule="nonzero"/><path fill="#000000" fill-opacity="0.0" clip-path="url(#id_0)" d="M130.94 137.02145C130.94 138.67831 129.59685 140.02145 127.94 140.02145C126.28314 140.02145 124.94 138.67831 124.94 137.02145C124.94 135.36461 126.28314 134.02145 127.94 134.02145C129.59685 134.02145 130.94 135.36461 130.94 137.02145Z" fill-rule="nonzero"/><path fill="#000000" fill-opacity="0.0" clip-path="url(#id_0)" d="M231.72 218.27837C231.72 219.93521 230.37686 221.27837 228.72 221.27837C227.06314 221.27837 225.72 219.93521 225.72 218.27837C225.72 216.6215 227.06314 215.27837 228.72 215.27837C230.37686 215.27837 231.72 216.6215 231.72 218.27837Z" fill-rule="nonzero"/><path fill="#000000" fill-opacity="0.0" clip-path="url(#id_0)" d="M332.5 258.69684C332.5 260.3537 331.15686 261.69684 329.5 261.69684C327.84314 261.69684 326.5 260.3537 326.5 258.69684C326.5 257.04 327.84314 255.69685 329.5 255.69685C331.15686 255.69685 332.5 257.04 332.5 258.69684Z" fill-rule="nonzero"/><path fill="#000000" fill-opacity="0.0" clip-path="url(#id_0)" d="M433.28 279.17023C433.28 280.8271 431.93686 282.17023 430.28 282.17023C428.62314 282.17023 427.28 280.8271 427.28 279.17023C427.28 277.51337 428.62314 276.17023 430.28 276.17023C431.93686 276.17023 433.28 277.51337 433.28 279.17023Z" fill-rule="nonzero"/><path fill="#000000" fill-opacity="0.0" clip-path="url(#id_0)" d="M534.06 289.5974C534.06 291.25427 532.71686 292.5974 531.06 292.5974C529.40314 292.5974 528.06 291.25427 528.06 289.5974C528.06 287.94055 529.40314 286.5974 531.06 286.5974C532.71686 286.5974 534.06 287.94055 534.06 289.5974Z" fill-rule="nonzero"/><path fill="#000000" fill-opacity="0.0" clip-path="url(#id_0)" d="M130.94 114.34981C130.94 116.00666 129.59685 117.34981 127.94 117.34981C126.28314 117.34981 124.94 116.00666 124.94 114.34981C124.94 112.692955 126.28314 111.34981 127.94 111.34981C129.59685 111.34981 130.94 112.692955 130.94 114.34981Z" fill-rule="nonzero"/><path fill="#000000" fill-opacity="0.0" clip-path="url(#id_0)" d="M231.72 213.04013C231.72 214.69698 230.37686 216.04013 228.72 216.04013C227.06314 216.04013 225.72 214.69698 225.72 213.04013C225.72 211.38327 227.06314 210.04013 228.72 210.04013C230.37686 210.04013 231.72 211.38327 231.72 213.04013Z" fill-rule="nonzero"/><path fill="#000000" fill-opacity="0.0" clip-path="url(#id_0)" d="M332.5 247.73178C332.5 249.38864 331.15686 250.73178 329.5 250.73178C327.84314 250.73178 326.5 249.38864 326.5 247.73178C326.5 246.07494 327.84314 244.73178 329.5 244.73178C331.15686 244.73178 332.5 246.07494 332.5 247.73178Z" fill-rule="nonzero"/><path fill="#000000" fill-opacity="0.0" clip-path="url(#id_0)" d="M433.28 280.50732C433.28 282.16418 431.93686 283.50732 430.28 283.50732C428.62314 283.50732 427.28 282.16418 427.28 280.50732C427.28 278.85046 428.62314 277.50732 430.28 277.50732C431.93686 277.50732 433.28 278.85046 433.28 280.50732Z" fill-rule="nonzero"/><path fill="#000000" fill-opacity="0.0" clip-path="url(#id_0)" d="M534.06 290.7778C534.06 292.43463 532.71686 293.7778 531.06 293.7778C529.40314 293.7778 528.06 292.43463 528.06 290.7778C528.06 289.12094 529.40314 287.7778 531.06 287.7778C532.71686 287.7778 534.06 289.12094 534.06 290.7778Z" fill-rule="nonzero"/><path fill="#000000" fill-opacity="0.0" clip-path="url(#id_0)" d="M130.94 131.76495C130.94 133.42181 129.59685 134.76495 127.94 134.76495C126.28314 134.76495 124.94 133.42181 124.94 131.76495C124.94 130.10811 126.28314 128.76495 127.94 128.76495C129.59685 128.76495 130.94 130.10811 130.94 131.76495Z" fill-rule="nonzero"/><path fill="#000000" fill-opacity="0.0" clip-path="url(#id_0)" d="M231.72 215.52565C231.72 217.18251 230.37686 218.52565 228.72 218.52565C227.06314 218.52565 225.72 217.18251 225.72 215.52565C225.72 213.8688 227.06314 212.52565 228.72 212.52565C230.37686 212.52565 231.72 213.8688 231.72 215.52565Z" fill-rule="nonzero"/><path fill="#000000" fill-opacity="0.0" clip-path="url(#id_0)" d="M332.5 255.48318C332.5 257.14005 331.15686 258.4832 329.5 258.4832C327.84314 258.4832 326.5 257.14005 326.5 255.48318C326.5 253.82634 327.84314 252.48318 329.5 252.48318C331.15686 252.48318 332.5 253.82634 332.5 255.48318Z" fill-rule="nonzero"/><path fill="#000000" fill-opacity="0.0" clip-path="url(#id_0)" d="M433.28 280.64444C433.28 282.3013 431.93686 283.64444 430.28 283.64444C428.62314 283.64444 427.28 282.3013 427.28 280.64444C427.28 278.98758 428.62314 277.64444 430.28 277.64444C431.93686 277.64444 433.28 278.98758 433.28 280.64444Z" fill-rule="nonzero"/><path fill="#000000" fill-opacity="0.0" clip-path="url(#id_0)" d="M534.06 290.3988C534.06 292.05566 532.71686 293.3988 531.06 293.3988C529.40314 293.3988 528.06 292.05566 528.06 290.3988C528.06 288.74197 529.40314 287.3988 531.06 287.3988C532.71686 287.3988 534.06 288.74197 534.06 290.3988Z" fill-rule="nonzero"/><path fill="#000000" fill-opacity="0.0" clip-path="url(#id_0)" d="M130.94 293.52167C130.94 295.17853 129.59685 296.52167 127.94 296.52167C126.28314 296.52167 124.94 295.17853 124.94 293.52167C124.94 291.8648 126.28314 290.52167 127.94 290.52167C129.59685 290.52167 130.94 291.8648 130.94 293.52167Z" fill-rule="nonzero"/><path fill="#000000" fill-opacity="0.0" clip-path="url(#id_0)" d="M231.72 295.5027C231.72 297.15955 230.37686 298.5027 228.72 298.5027C227.06314 298.5027 225.72 297.15955 225.72 295.5027C225.72 293.84586 227.06314 292.5027 228.72 292.5027C230.37686 292.5027 231.72 293.84586 231.72 295.5027Z" fill-rule="nonzero"/><path fill="#000000" fill-opacity="0.0" clip-path="url(#id_0)" d="M332.5 297.99457C332.5 299.6514 331.15686 300.99457 329.5 300.99457C327.84314 300.99457 326.5 299.6514 326.5 297.99457C326.5 296.3377 327.84314 294.99457 329.5 294.99457C331.15686 294.99457 332.5 296.3377 332.5 297.99457Z" fill-rule="nonzero"/><path fill="#000000" fill-opacity="0.0" clip-path="url(#id_0)" d="M433.28 298.82965C433.28 300.4865 431.93686 301.82965 430.28 301.82965C428.62314 301.82965 427.28 300.4865 427.28 298.82965C427.28 297.1728 428.62314 295.82965 430.28 295.82965C431.93686 295.82965 433.28 297.1728 433.28 298.82965Z" fill-rule="nonzero"/><path fill="#000000" fill-opacity="0.0" clip-path="url(#id_0)" d="M534.06 299.5193C534.06 301.17612 532.71686 302.5193 531.06 302.5193C529.40314 302.5193 528.06 301.17612 528.06 299.5193C528.06 297.86243 529.40314 296.5193 531.06 296.5193C532.71686 296.5193 534.06 297.86243 534.06 299.5193Z" fill-rule="nonzero"/><path fill="#000000" d="M302.98438 349.45L306.28125 340.85626L307.5 340.85626L311.01562 349.45L309.73438 349.45L308.71875 346.84064L305.14062 346.84064L304.1875 349.45L302.98438 349.45ZM305.46875 345.91876L308.375 345.91876L307.48438 343.54376Q307.0625 342.46564 306.875 341.7625Q306.70312 342.59064 306.40625 343.40314L305.46875 345.91876ZM310.78125 349.45L310.78125 343.23126L311.73438 343.23126L311.73438 344.16876Q312.09375 343.5125 312.39062 343.3094Q312.70312 343.09064 313.07812 343.09064Q313.60938 343.09064 314.15625 343.41876L313.79688 344.40314Q313.40625 344.16876 313.03125 344.16876Q312.67188 344.16876 312.39062 344.3875Q312.125 344.59064 312.01562 344.96564Q311.82812 345.52814 311.82812 346.1844L311.82812 349.45L310.78125 349.45ZM314.78125 349.45L314.78125 343.23126L315.73438 343.23126L315.73438 344.16876Q316.09375 343.5125 316.39062 343.3094Q316.70312 343.09064 317.07812 343.09064Q317.60938 343.09064 318.15625 343.41876L317.79688 344.40314Q317.40625 344.16876 317.03125 344.16876Q316.67188 344.16876 316.39062 344.3875Q316.125 344.59064 316.01562 344.96564Q315.82812 345.52814 315.82812 346.1844L315.82812 349.45L314.78125 349.45ZM322.85938 348.6844Q322.26562 349.1844 321.71875 349.3875Q321.1875 349.59064 320.5625 349.59064Q319.53125 349.59064 318.98438 349.09064Q318.4375 348.59064 318.4375 347.8094Q318.4375 347.35626 318.64062 346.98126Q318.84375 346.59064 319.1875 346.3719Q319.53125 346.1375 319.95312 346.02814Q320.25 345.9344 320.89062 345.85626Q322.15625 345.71564 322.76562 345.4969Q322.76562 345.27814 322.76562 345.23126Q322.76562 344.575 322.46875 344.3094Q322.0625 343.96564 321.26562 343.96564Q320.53125 343.96564 320.17188 344.23126Q319.8125 344.48126 319.64062 345.1375L318.60938 344.9969Q318.75 344.34064 319.07812 343.9344Q319.40625 343.52814 320.01562 343.3094Q320.625 343.09064 321.42188 343.09064Q322.21875 343.09064 322.71875 343.27814Q323.21875 343.46564 323.45312 343.7469Q323.6875 344.02814 323.78125 344.46564Q323.82812 344.73126 323.82812 345.4344L323.82812 346.84064Q323.82812 348.3094 323.89062 348.7Q323.96875 349.09064 324.17188 349.45L323.0625 349.45Q322.90625 349.1219 322.85938 348.6844ZM322.76562 346.325Q322.1875 346.5594 321.04688 346.73126Q320.39062 346.825 320.125 346.95Q319.85938 347.0594 319.70312 347.27814Q319.5625 347.4969 319.5625 347.77814Q319.5625 348.2 319.875 348.48126Q320.20312 348.7625 320.8125 348.7625Q321.42188 348.7625 321.89062 348.4969Q322.375 348.23126 322.59375 347.7625Q322.76562 347.40314 322.76562 346.71564L322.76562 346.325ZM325.75 351.84064L325.625 350.85626Q325.96875 350.95 326.23438 350.95Q326.57812 350.95 326.78125 350.825Q327.0 350.71564 327.14062 350.5125Q327.23438 350.34064 327.46875 349.71564Q327.48438 349.6375 327.5625 349.46564L325.1875 343.23126L326.32812 343.23126L327.625 346.825Q327.875 347.5125 328.07812 348.27814Q328.26562 347.54376 328.51562 346.85626L329.84375 343.23126L330.89062 343.23126L328.53125 349.5594Q328.14062 350.575 327.9375 350.96564Q327.65625 351.4969 327.28125 351.73126Q326.92188 351.98126 326.42188 351.98126Q326.125 351.98126 325.75 351.84064ZM333.54688 346.6844L334.60938 346.59064Q334.6875 347.2469 334.96875 347.65314Q335.25 348.0594 335.82812 348.325Q336.42188 348.575 337.15625 348.575Q337.79688 348.575 338.29688 348.3875Q338.79688 348.1844 339.03125 347.85626Q339.28125 347.5125 339.28125 347.1219Q339.28125 346.71564 339.04688 346.41876Q338.8125 346.10626 338.28125 345.90314Q337.92188 345.7625 336.73438 345.48126Q335.5625 345.2 335.09375 344.95Q334.46875 344.6219 334.17188 344.15314Q333.875 343.66876 333.875 343.075Q333.875 342.4344 334.23438 341.8719Q334.60938 341.29376 335.3125 341.0125Q336.03125 340.71564 336.89062 340.71564Q337.84375 340.71564 338.57812 341.02814Q339.3125 341.325 339.70312 341.9344Q340.09375 342.52814 340.125 343.27814L339.03125 343.35626Q338.9375 342.54376 338.42188 342.1375Q337.92188 341.71564 336.9375 341.71564Q335.90625 341.71564 335.4375 342.09064Q334.96875 342.46564 334.96875 342.9969Q334.96875 343.46564 335.29688 343.7625Q335.625 344.0594 337.0 344.3719Q338.39062 344.6844 338.90625 344.91876Q339.65625 345.27814 340.01562 345.8094Q340.375 346.325 340.375 347.02814Q340.375 347.71564 339.98438 348.325Q339.59375 348.91876 338.85938 349.2625Q338.125 349.59064 337.20312 349.59064Q336.03125 349.59064 335.23438 349.2625Q334.45312 348.91876 334.0 348.23126Q333.5625 347.54376 333.54688 346.6844ZM341.79688 342.075L341.79688 340.85626L342.85938 340.85626L342.85938 342.075L341.79688 342.075ZM341.79688 349.45L341.79688 343.23126L342.85938 343.23126L342.85938 349.45L341.79688 349.45ZM344.23438 349.45L344.23438 348.59064L348.20312 344.04376Q347.51562 344.075 347.0 344.075L344.46875 344.075L344.46875 343.23126L349.5625 343.23126L349.5625 343.91876L346.1875 347.8719L345.53125 348.59064Q346.25 348.54376 346.85938 348.54376L349.75 348.54376L349.75 349.45L344.23438 349.45ZM354.04688 347.45L355.14062 347.575Q354.89062 348.52814 354.1875 349.0594Q353.48438 349.59064 352.40625 349.59064Q351.04688 349.59064 350.23438 348.7469Q349.4375 347.90314 349.4375 346.3875Q349.4375 344.825 350.25 343.96564Q351.0625 343.09064 352.34375 343.09064Q353.59375 343.09064 354.375 343.9344Q355.17188 344.77814 355.17188 346.325Q355.17188 346.41876 355.17188 346.60626L350.53125 346.60626Q350.59375 347.6375 351.10938 348.1844Q351.625 348.71564 352.40625 348.71564Q352.98438 348.71564 353.39062 348.41876Q353.8125 348.10626 354.04688 347.45ZM350.59375 345.7469L354.0625 345.7469Q354.0 344.95 353.67188 344.5594Q353.15625 343.95 352.35938 343.95Q351.625 343.95 351.125 344.4344Q350.64062 344.91876 350.59375 345.7469Z" fill-rule="nonzero"/><path fill="#000000" d="M29.550013 253.17917L20.956263 253.17917L20.956263 249.36667Q20.956263 248.21042 21.190638 247.61667Q21.425013 247.02292 22.018763 246.66354Q22.596888 246.30417 23.300013 246.30417Q24.221888 246.30417 24.846888 246.89792Q25.471888 247.49167 25.643763 248.72604Q25.862513 248.27292 26.065638 248.03854Q26.518763 247.53854 27.206263 247.10104L29.550013 245.60104L29.550013 247.03854L27.768763 248.16354Q26.987513 248.66354 26.581263 248.99167Q26.175013 249.30417 26.018763 249.5698Q25.846888 249.8198 25.768763 250.08542Q25.737513 250.27292 25.737513 250.71042L25.737513 252.03854L29.550013 252.03854L29.550013 253.17917ZM24.753138 252.03854L24.753138 249.58542Q24.753138 248.8198 24.596888 248.3823Q24.425013 247.92917 24.081263 247.71042Q23.721888 247.47604 23.300013 247.47604Q22.690638 247.47604 22.300013 247.92917Q21.909388 248.36667 21.909388 249.3198L21.909388 252.03854L24.753138 252.03854ZM29.550013 240.24167L28.628138 240.24167Q29.690638 240.97604 29.690638 242.22604Q29.690638 242.77292 29.487513 243.2573Q29.268763 243.72604 28.956263 243.96042Q28.628138 244.1948 28.159388 244.28854Q27.862513 244.35104 27.175013 244.35104L23.331263 244.35104L23.331263 243.28854L26.784388 243.28854Q27.596888 243.28854 27.893763 243.22604Q28.300013 243.1323 28.550013 242.8198Q28.784388 242.49167 28.784388 242.0073Q28.784388 241.53854 28.550013 241.1323Q28.300013 240.71042 27.878138 240.53854Q27.456263 240.35104 26.659388 240.35104L23.331263 240.35104L23.331263 239.30417L29.550013 239.30417L29.550013 240.24167ZM29.550013 237.3198L23.331263 237.3198L23.331263 236.3823L24.206263 236.3823Q23.190638 235.6948 23.190638 234.39792Q23.190638 233.83542 23.393763 233.36667Q23.596888 232.8823 23.925013 232.64792Q24.253138 232.41354 24.690638 232.3198Q24.987513 232.27292 25.721888 232.27292L29.550013 232.27292L29.550013 233.3198L25.768763 233.3198Q25.112513 233.3198 24.800013 233.4448Q24.487513 233.5698 24.300013 233.8823Q24.096888 234.1948 24.096888 234.61667Q24.096888 235.28854 24.534388 235.78854Q24.956263 236.27292 26.143763 236.27292L29.550013 236.27292L29.550013 237.3198ZM27.550013 226.0698L27.675013 224.97604Q28.628138 225.22604 29.159388 225.92917Q29.690638 226.6323 29.690638 227.71042Q29.690638 229.0698 28.846888 229.8823Q28.003138 230.67917 26.487513 230.67917Q24.925013 230.67917 24.065638 229.86667Q23.190638 229.05417 23.190638 227.77292Q23.190638 226.52292 24.034388 225.74167Q24.878138 224.9448 26.425013 224.9448Q26.518763 224.9448 26.706263 224.9448L26.706263 229.58542Q27.737513 229.52292 28.284388 229.0073Q28.815638 228.49167 28.815638 227.71042Q28.815638 227.1323 28.518763 226.72604Q28.206263 226.30417 27.550013 226.0698ZM25.846888 229.52292L25.846888 226.05417Q25.050013 226.11667 24.659388 226.4448Q24.050013 226.96042 24.050013 227.7573Q24.050013 228.49167 24.534388 228.99167Q25.018763 229.47604 25.846888 229.52292ZM28.612513 221.02292L29.534388 220.86667Q29.628138 221.3198 29.628138 221.66354Q29.628138 222.24167 29.456263 222.55417Q29.268763 222.86667 28.971888 223.0073Q28.675013 223.1323 27.721888 223.1323L24.143763 223.1323L24.143763 223.89792L23.331263 223.89792L23.331263 223.1323L21.784388 223.1323L21.159388 222.08542L23.331263 222.08542L23.331263 221.02292L24.143763 221.02292L24.143763 222.08542L27.784388 222.08542Q28.237513 222.08542 28.362513 222.03854Q28.487513 221.97604 28.565638 221.85104Q28.643763 221.72604 28.643763 221.49167Q28.643763 221.30417 28.612513 221.02292ZM22.175013 220.3198L20.956263 220.3198L20.956263 219.2573L22.175013 219.2573L22.175013 220.3198ZM29.550013 220.3198L23.331263 220.3198L23.331263 219.2573L29.550013 219.2573L29.550013 220.3198ZM29.550013 217.3198L23.331263 217.3198L23.331263 216.3823L24.206263 216.3823Q23.737513 216.08542 23.471888 215.60104Q23.190638 215.11667 23.190638 214.49167Q23.190638 213.80417 23.471888 213.36667Q23.753138 212.91354 24.268763 212.74167Q23.190638 211.99167 23.190638 210.8198Q23.190638 209.8823 23.706263 209.39792Q24.206263 208.89792 25.284388 208.89792L29.550013 208.89792L29.550013 209.9448L25.628138 209.9448Q25.003138 209.9448 24.721888 210.05417Q24.440638 210.14792 24.268763 210.41354Q24.096888 210.67917 24.096888 211.05417Q24.096888 211.71042 24.534388 212.14792Q24.971888 212.5698 25.940638 212.5698L29.550013 212.5698L29.550013 213.6323L25.503138 213.6323Q24.800013 213.6323 24.456263 213.89792Q24.096888 214.14792 24.096888 214.72604Q24.096888 215.17917 24.331263 215.55417Q24.565638 215.92917 25.018763 216.10104Q25.471888 216.27292 26.315638 216.27292L29.550013 216.27292L29.550013 217.3198ZM27.550013 202.0698L27.675013 200.97604Q28.628138 201.22604 29.159388 201.92917Q29.690638 202.6323 29.690638 203.71042Q29.690638 205.0698 28.846888 205.8823Q28.003138 206.67917 26.487513 206.67917Q24.925013 206.67917 24.065638 205.86667Q23.190638 205.05417 23.190638 203.77292Q23.190638 202.52292 24.034388 201.74167Q24.878138 200.9448 26.425013 200.9448Q26.518763 200.9448 26.706263 200.9448L26.706263 205.58542Q27.737513 205.52292 28.284388 205.0073Q28.815638 204.49167 28.815638 203.71042Q28.815638 203.1323 28.518763 202.72604Q28.206263 202.30417 27.550013 202.0698ZM25.846888 205.52292L25.846888 202.05417Q25.050013 202.11667 24.659388 202.4448Q24.050013 202.96042 24.050013 203.7573Q24.050013 204.49167 24.534388 204.99167Q25.018763 205.47604 25.846888 205.52292ZM32.08126 194.30417Q30.971888 195.17917 29.503138 195.78854Q28.018763 196.3823 26.440638 196.3823Q25.050013 196.3823 23.768763 195.9448Q22.284388 195.41354 20.815638 194.30417L20.815638 193.55417Q22.034388 194.2573 22.550013 194.49167Q23.362513 194.85104 24.237513 195.05417Q25.331263 195.30417 26.440638 195.30417Q29.268763 195.30417 32.08126 193.55417L32.08126 194.30417ZM29.550013 192.3198L23.331263 192.3198L23.331263 191.3823L24.206263 191.3823Q23.737513 191.08542 23.471888 190.60104Q23.190638 190.11667 23.190638 189.49167Q23.190638 188.80417 23.471888 188.36667Q23.753138 187.91354 24.268763 187.74167Q23.190638 186.99167 23.190638 185.8198Q23.190638 184.8823 23.706263 184.39792Q24.206263 183.89792 25.284388 183.89792L29.550013 183.89792L29.550013 184.9448L25.628138 184.9448Q25.003138 184.9448 24.721888 185.05417Q24.440638 185.14792 24.268763 185.41354Q24.096888 185.67917 24.096888 186.05417Q24.096888 186.71042 24.534388 187.14792Q24.971888 187.5698 25.940638 187.5698L29.550013 187.5698L29.550013 188.6323L25.503138 188.6323Q24.800013 188.6323 24.456263 188.89792Q24.096888 189.14792 24.096888 189.72604Q24.096888 190.17917 24.331263 190.55417Q24.565638 190.92917 25.018763 191.10104Q25.471888 191.27292 26.315638 191.27292L29.550013 191.27292L29.550013 192.3198ZM27.690638 181.74167L27.534388 180.71042Q28.159388 180.61667 28.487513 180.22604Q28.815638 179.8198 28.815638 179.08542Q28.815638 178.36667 28.534388 178.02292Q28.237513 177.66354 27.831263 177.66354Q27.471888 177.66354 27.268763 177.97604Q27.128138 178.1948 26.909388 179.05417Q26.612513 180.21042 26.409388 180.66354Q26.190638 181.10104 25.815638 181.33542Q25.440638 181.5698 24.971888 181.5698Q24.565638 181.5698 24.206263 181.3823Q23.846888 181.1948 23.612513 180.86667Q23.440638 180.61667 23.315638 180.1948Q23.190638 179.77292 23.190638 179.27292Q23.190638 178.55417 23.409388 178.0073Q23.612513 177.4448 23.971888 177.17917Q24.331263 176.91354 24.925013 176.8198L25.065638 177.85104Q24.596888 177.91354 24.331263 178.2573Q24.050013 178.58542 24.050013 179.21042Q24.050013 179.92917 24.300013 180.24167Q24.534388 180.55417 24.862513 180.55417Q25.065638 180.55417 25.221888 180.42917Q25.393763 180.28854 25.503138 180.02292Q25.565638 179.86667 25.768763 179.08542Q26.081263 177.96042 26.268763 177.52292Q26.456263 177.08542 26.815638 176.83542Q27.175013 176.58542 27.721888 176.58542Q28.253138 176.58542 28.721888 176.89792Q29.175013 177.1948 29.440638 177.77292Q29.690638 178.35104 29.690638 179.08542Q29.690638 180.30417 29.190638 180.9448Q28.675013 181.5698 27.690638 181.74167ZM32.08126 173.6323L32.08126 174.3823Q29.268763 172.6323 26.440638 172.6323Q25.346888 172.6323 24.253138 172.8823Q23.378138 173.08542 22.565638 173.4448Q22.050013 173.67917 20.815638 174.3823L20.815638 173.6323Q22.284388 172.53854 23.768763 172.0073Q25.050013 171.55417 26.440638 171.55417Q28.018763 171.55417 29.503138 172.16354Q30.971888 172.77292 32.08126 173.6323Z" fill-rule="nonzero"/><path fill="#000000" d="M65.05 300.21564Q65.05 298.6844 65.3625 297.7625Q65.675 296.825 66.28438 296.325Q66.90938 295.825 67.84688 295.825Q68.53438 295.825 69.05 296.10626Q69.58125 296.3875 69.925 296.91876Q70.26875 297.4344 70.45625 298.1844Q70.64375 298.9344 70.64375 300.21564Q70.64375 301.73126 70.33125 302.65314Q70.03438 303.575 69.40938 304.09064Q68.8 304.59064 67.84688 304.59064Q66.6125 304.59064 65.89375 303.7Q65.05 302.6375 65.05 300.21564ZM66.12813 300.21564Q66.12813 302.325 66.62813 303.02814Q67.12813 303.73126 67.84688 303.73126Q68.58125 303.73126 69.06563 303.02814Q69.56563 302.325 69.56563 300.21564Q69.56563 298.09064 69.06563 297.40314Q68.58125 296.7 67.83125 296.7Q67.1125 296.7 66.675 297.3094Q66.12813 298.09064 66.12813 300.21564Z" fill-rule="nonzero"/><path fill="#000000" d="M65.05 271.7699L66.15938 271.67615Q66.28438 272.48865 66.72188 272.8949Q67.175 273.30115 67.81563 273.30115Q68.56563 273.30115 69.09688 272.72302Q69.62813 272.1449 69.62813 271.2074Q69.62813 270.30115 69.1125 269.78552Q68.6125 269.25427 67.78438 269.25427Q67.28438 269.25427 66.8625 269.48865Q66.45625 269.72302 66.22188 270.0824L65.2375 269.9574L66.06563 265.55115L70.34688 265.55115L70.34688 266.55115L66.90938 266.55115L66.45625 268.86365Q67.22188 268.31677 68.06563 268.31677Q69.19063 268.31677 69.95625 269.09802Q70.7375 269.87927 70.7375 271.11365Q70.7375 272.2699 70.06563 273.12927Q69.2375 274.16052 67.81563 274.16052Q66.64375 274.16052 65.89375 273.50427Q65.15938 272.84802 65.05 271.7699Z" fill-rule="nonzero"/><path fill="#000000" d="M62.01875 243.58978L60.971874 243.58978L60.971874 236.87103Q60.58125 237.23041 59.95625 237.60541Q59.346874 237.96478 58.8625 238.13666L58.8625 237.12103Q59.7375 236.69916 60.39375 236.12103Q61.065624 235.52728 61.346874 234.96478L62.01875 234.96478L62.01875 243.58978ZM65.05 239.35541Q65.05 237.82416 65.3625 236.90228Q65.675 235.96478 66.28438 235.46478Q66.90938 234.96478 67.84688 234.96478Q68.53438 234.96478 69.05 235.24603Q69.58125 235.52728 69.925 236.05853Q70.26875 236.57416 70.45625 237.32416Q70.64375 238.07416 70.64375 239.35541Q70.64375 240.87103 70.33125 241.79291Q70.03438 242.71478 69.40938 243.23041Q68.8 243.73041 67.84688 243.73041Q66.6125 243.73041 65.89375 242.83978Q65.05 241.77728 65.05 239.35541ZM66.12813 239.35541Q66.12813 241.46478 66.62813 242.16791Q67.12813 242.87103 67.84688 242.87103Q68.58125 242.87103 69.06563 242.16791Q69.56563 241.46478 69.56563 239.35541Q69.56563 237.23041 69.06563 236.54291Q68.58125 235.83978 67.83125 235.83978Q67.1125 235.83978 66.675 236.44916Q66.12813 237.23041 66.12813 239.35541Z" fill-rule="nonzero"/><path fill="#000000" d="M62.01875 213.15968L60.971874 213.15968L60.971874 206.44093Q60.58125 206.80031 59.95625 207.17531Q59.346874 207.53468 58.8625 207.70656L58.8625 206.69093Q59.7375 206.26906 60.39375 205.69093Q61.065624 205.09718 61.346874 204.53468L62.01875 204.53468L62.01875 213.15968ZM65.05 210.90968L66.15938 210.81593Q66.28438 211.62843 66.72188 212.03468Q67.175 212.44093 67.81563 212.44093Q68.56563 212.44093 69.09688 211.86281Q69.62813 211.28468 69.62813 210.34718Q69.62813 209.44093 69.1125 208.92531Q68.6125 208.39406 67.78438 208.39406Q67.28438 208.39406 66.8625 208.62843Q66.45625 208.86281 66.22188 209.22218L65.2375 209.09718L66.06563 204.69093L70.34688 204.69093L70.34688 205.69093L66.90938 205.69093L66.45625 208.00343Q67.22188 207.45656 68.06563 207.45656Q69.19063 207.45656 69.95625 208.23781Q70.7375 209.01906 70.7375 210.25343Q70.7375 211.40968 70.06563 212.26906Q69.2375 213.30031 67.81563 213.30031Q66.64375 213.30031 65.89375 212.64406Q65.15938 211.98781 65.05 210.90968Z" fill-rule="nonzero"/><path fill="#000000" d="M63.596874 181.71394L63.596874 182.72957L57.909374 182.72957Q57.909374 182.35457 58.034374 181.9952Q58.253124 181.41707 58.721874 180.85457Q59.20625 180.29207 60.1125 179.5577Q61.51875 178.40144 62.003124 177.72957Q62.503124 177.0577 62.503124 176.46394Q62.503124 175.83894 62.05 175.41707Q61.596874 174.97957 60.878124 174.97957Q60.1125 174.97957 59.659374 175.4327Q59.20625 175.88582 59.190624 176.69832L58.1125 176.58894Q58.221874 175.3702 58.940624 174.7452Q59.675 174.10457 60.909374 174.10457Q62.14375 174.10457 62.8625 174.79207Q63.58125 175.47957 63.58125 176.4952Q63.58125 177.01082 63.3625 177.51082Q63.159374 177.9952 62.659374 178.5577Q62.175 179.10457 61.05 180.0577Q60.096874 180.85457 59.815624 181.15144Q59.55 181.4327 59.378124 181.71394L63.596874 181.71394ZM65.05 178.4952Q65.05 176.96394 65.3625 176.04207Q65.675 175.10457 66.28438 174.60457Q66.90938 174.10457 67.84688 174.10457Q68.53438 174.10457 69.05 174.38582Q69.58125 174.66707 69.925 175.19832Q70.26875 175.71394 70.45625 176.46394Q70.64375 177.21394 70.64375 178.4952Q70.64375 180.01082 70.33125 180.9327Q70.03438 181.85457 69.40938 182.3702Q68.8 182.8702 67.84688 182.8702Q66.6125 182.8702 65.89375 181.97957Q65.05 180.91707 65.05 178.4952ZM66.12813 178.4952Q66.12813 180.60457 66.62813 181.3077Q67.12813 182.01082 67.84688 182.01082Q68.58125 182.01082 69.06563 181.3077Q69.56563 180.60457 69.56563 178.4952Q69.56563 176.3702 69.06563 175.6827Q68.58125 174.97957 67.83125 174.97957Q67.1125 174.97957 66.675 175.58894Q66.12813 176.3702 66.12813 178.4952Z" fill-rule="nonzero"/><path fill="#000000" d="M63.596874 151.28384L63.596874 152.29947L57.909374 152.29947Q57.909374 151.92447 58.034374 151.5651Q58.253124 150.98697 58.721874 150.42447Q59.20625 149.86197 60.1125 149.1276Q61.51875 147.97134 62.003124 147.29947Q62.503124 146.6276 62.503124 146.03384Q62.503124 145.40884 62.05 144.98697Q61.596874 144.54947 60.878124 144.54947Q60.1125 144.54947 59.659374 145.0026Q59.20625 145.45572 59.190624 146.26822L58.1125 146.15884Q58.221874 144.9401 58.940624 144.3151Q59.675 143.67447 60.909374 143.67447Q62.14375 143.67447 62.8625 144.36197Q63.58125 145.04947 63.58125 146.0651Q63.58125 146.58072 63.3625 147.08072Q63.159374 147.5651 62.659374 148.1276Q62.175 148.67447 61.05 149.6276Q60.096874 150.42447 59.815624 150.72134Q59.55 151.0026 59.378124 151.28384L63.596874 151.28384ZM65.05 150.04947L66.15938 149.95572Q66.28438 150.76822 66.72188 151.17447Q67.175 151.58072 67.81563 151.58072Q68.56563 151.58072 69.09688 151.0026Q69.62813 150.42447 69.62813 149.48697Q69.62813 148.58072 69.1125 148.0651Q68.6125 147.53384 67.78438 147.53384Q67.28438 147.53384 66.8625 147.76822Q66.45625 148.0026 66.22188 148.36197L65.2375 148.23697L66.06563 143.83072L70.34688 143.83072L70.34688 144.83072L66.90938 144.83072L66.45625 147.14322Q67.22188 146.59634 68.06563 146.59634Q69.19063 146.59634 69.95625 147.3776Q70.7375 148.15884 70.7375 149.39322Q70.7375 150.54947 70.06563 151.40884Q69.2375 152.4401 67.81563 152.4401Q66.64375 152.4401 65.89375 151.78384Q65.15938 151.1276 65.05 150.04947Z" fill-rule="nonzero"/><path fill="#000000" d="M58.05 119.60373L59.1125 119.463104Q59.284374 120.35373 59.721874 120.75998Q60.159374 121.150604 60.784374 121.150604Q61.534374 121.150604 62.05 120.63498Q62.565624 120.119354 62.565624 119.35373Q62.565624 118.63498 62.08125 118.16623Q61.6125 117.681854 60.878124 117.681854Q60.58125 117.681854 60.128124 117.806854L60.253124 116.869354Q60.3625 116.88498 60.425 116.88498Q61.096874 116.88498 61.628124 116.54123Q62.175 116.181854 62.175 115.44748Q62.175 114.869354 61.784374 114.494354Q61.39375 114.10373 60.76875 114.10373Q60.159374 114.10373 59.7375 114.494354Q59.33125 114.88498 59.221874 115.650604L58.159374 115.463104Q58.346874 114.41623 59.034374 113.838104Q59.721874 113.244354 60.7375 113.244354Q61.440624 113.244354 62.034374 113.556854Q62.628124 113.85373 62.940624 114.369354Q63.253124 114.88498 63.253124 115.47873Q63.253124 116.025604 62.95625 116.494354Q62.659374 116.94748 62.08125 117.213104Q62.83125 117.38498 63.253124 117.94748Q63.675 118.494354 63.675 119.338104Q63.675 120.463104 62.846874 121.244354Q62.034374 122.025604 60.784374 122.025604Q59.659374 122.025604 58.909374 121.35373Q58.159374 120.66623 58.05 119.60373ZM65.05 117.63498Q65.05 116.10373 65.3625 115.181854Q65.675 114.244354 66.28438 113.744354Q66.90938 113.244354 67.84688 113.244354Q68.53438 113.244354 69.05 113.525604Q69.58125 113.806854 69.925 114.338104Q70.26875 114.85373 70.45625 115.60373Q70.64375 116.35373 70.64375 117.63498Q70.64375 119.150604 70.33125 120.07248Q70.03438 120.994354 69.40938 121.50998Q68.8 122.00998 67.84688 122.00998Q66.6125 122.00998 65.89375 121.119354Q65.05 120.056854 65.05 117.63498ZM66.12813 117.63498Q66.12813 119.744354 66.62813 120.44748Q67.12813 121.150604 67.84688 121.150604Q68.58125 121.150604 69.06563 120.44748Q69.56563 119.744354 69.56563 117.63498Q69.56563 115.50998 69.06563 114.82248Q68.58125 114.119354 67.83125 114.119354Q67.1125 114.119354 66.675 114.72873Q66.12813 115.50998 66.12813 117.63498Z" fill-rule="nonzero"/><path fill="#000000" d="M120.98688 316.4344L120.98688 317.45L115.29938 317.45Q115.29938 317.075 115.42438 316.71564Q115.64313 316.1375 116.11188 315.575Q116.59625 315.0125 117.5025 314.27814Q118.90875 313.1219 119.39313 312.45Q119.89313 311.77814 119.89313 311.1844Q119.89313 310.5594 119.44 310.1375Q118.98688 309.7 118.26813 309.7Q117.5025 309.7 117.04938 310.15314Q116.59625 310.60626 116.58063 311.41876L115.5025 311.3094Q115.61188 310.09064 116.33063 309.46564Q117.065 308.825 118.29938 308.825Q119.53375 308.825 120.2525 309.5125Q120.97125 310.2 120.97125 311.21564Q120.97125 311.73126 120.7525 312.23126Q120.54938 312.71564 120.04938 313.27814Q119.565 313.825 118.44 314.77814Q117.48688 315.575 117.20563 315.8719Q116.94 316.15314 116.76813 316.4344L120.98688 316.4344ZM123.34625 313.40314L122.2525 313.40314L124.33063 308.71564L125.17438 308.71564L127.2525 313.40314L126.19 313.40314L124.7525 309.90314L123.34625 313.40314ZM132.98688 316.4344L132.98688 317.45L127.29938 317.45Q127.29938 317.075 127.42438 316.71564Q127.64313 316.1375 128.11188 315.575Q128.59625 315.0125 129.5025 314.27814Q130.90875 313.1219 131.39313 312.45Q131.89313 311.77814 131.89313 311.1844Q131.89313 310.5594 131.44 310.1375Q130.98688 309.7 130.26813 309.7Q129.5025 309.7 129.04938 310.15314Q128.59625 310.60626 128.58063 311.41876L127.5025 311.3094Q127.61188 310.09064 128.33063 309.46564Q129.065 308.825 130.29938 308.825Q131.53375 308.825 132.2525 309.5125Q132.97125 310.2 132.97125 311.21564Q132.97125 311.73126 132.7525 312.23126Q132.54938 312.71564 132.04938 313.27814Q131.565 313.825 130.44 314.77814Q129.48688 315.575 129.20563 315.8719Q128.94 316.15314 128.76813 316.4344L132.98688 316.4344ZM137.815 317.45L137.815 315.3875L134.09625 315.3875L134.09625 314.41876L138.01813 308.85626L138.8775 308.85626L138.8775 314.41876L140.03375 314.41876L140.03375 315.3875L138.8775 315.3875L138.8775 317.45L137.815 317.45ZM137.815 314.41876L137.815 310.5594L135.1275 314.41876L137.815 314.41876Z" fill-rule="nonzero"/><path fill="#000000" d="M221.76688 316.4344L221.76688 317.45L216.07938 317.45Q216.07938 317.075 216.20438 316.71564Q216.42313 316.1375 216.89188 315.575Q217.37625 315.0125 218.2825 314.27814Q219.68875 313.1219 220.17313 312.45Q220.67313 311.77814 220.67313 311.1844Q220.67313 310.5594 220.22 310.1375Q219.76688 309.7 219.04813 309.7Q218.2825 309.7 217.82938 310.15314Q217.37625 310.60626 217.36063 311.41876L216.2825 311.3094Q216.39188 310.09064 217.11063 309.46564Q217.845 308.825 219.07938 308.825Q220.31375 308.825 221.0325 309.5125Q221.75125 310.2 221.75125 311.21564Q221.75125 311.73126 221.5325 312.23126Q221.32938 312.71564 220.82938 313.27814Q220.345 313.825 219.22 314.77814Q218.26688 315.575 217.98563 315.8719Q217.72 316.15314 217.54813 316.4344L221.76688 316.4344ZM224.12625 313.40314L223.0325 313.40314L225.11063 308.71564L225.95438 308.71564L228.0325 313.40314L226.97 313.40314L225.5325 309.90314L224.12625 313.40314ZM233.76688 316.4344L233.76688 317.45L228.07938 317.45Q228.07938 317.075 228.20438 316.71564Q228.42313 316.1375 228.89188 315.575Q229.37625 315.0125 230.2825 314.27814Q231.68875 313.1219 232.17313 312.45Q232.67313 311.77814 232.67313 311.1844Q232.67313 310.5594 232.22 310.1375Q231.76688 309.7 231.04813 309.7Q230.2825 309.7 229.82938 310.15314Q229.37625 310.60626 229.36063 311.41876L228.2825 311.3094Q228.39188 310.09064 229.11063 309.46564Q229.845 308.825 231.07938 308.825Q232.31375 308.825 233.0325 309.5125Q233.75125 310.2 233.75125 311.21564Q233.75125 311.73126 233.5325 312.23126Q233.32938 312.71564 232.82938 313.27814Q232.345 313.825 231.22 314.77814Q230.26688 315.575 229.98563 315.8719Q229.72 316.15314 229.54813 316.4344L233.76688 316.4344ZM235.22 315.1844L236.2825 315.04376Q236.45438 315.9344 236.89188 316.34064Q237.32938 316.73126 237.95438 316.73126Q238.70438 316.73126 239.22 316.21564Q239.73563 315.7 239.73563 314.9344Q239.73563 314.21564 239.25125 313.7469Q238.7825 313.2625 238.04813 313.2625Q237.75125 313.2625 237.29813 313.3875L237.42313 312.45Q237.5325 312.46564 237.595 312.46564Q238.26688 312.46564 238.79813 312.1219Q239.345 311.7625 239.345 311.02814Q239.345 310.45 238.95438 310.075Q238.56375 309.6844 237.93875 309.6844Q237.32938 309.6844 236.9075 310.075Q236.50125 310.46564 236.39188 311.23126L235.32938 311.04376Q235.51688 309.9969 236.20438 309.41876Q236.89188 308.825 237.9075 308.825Q238.61063 308.825 239.20438 309.1375Q239.79813 309.4344 240.11063 309.95Q240.42313 310.46564 240.42313 311.0594Q240.42313 311.60626 240.12625 312.075Q239.82938 312.52814 239.25125 312.79376Q240.00125 312.96564 240.42313 313.52814Q240.845 314.075 240.845 314.91876Q240.845 316.04376 240.01688 316.825Q239.20438 317.60626 237.95438 317.60626Q236.82938 317.60626 236.07938 316.9344Q235.32938 316.2469 235.22 315.1844Z" fill-rule="nonzero"/><path fill="#000000" d="M322.54688 316.4344L322.54688 317.45L316.85938 317.45Q316.85938 317.075 316.98438 316.71564Q317.20312 316.1375 317.67188 315.575Q318.15625 315.0125 319.0625 314.27814Q320.46875 313.1219 320.95312 312.45Q321.45312 311.77814 321.45312 311.1844Q321.45312 310.5594 321.0 310.1375Q320.54688 309.7 319.82812 309.7Q319.0625 309.7 318.60938 310.15314Q318.15625 310.60626 318.14062 311.41876L317.0625 311.3094Q317.17188 310.09064 317.89062 309.46564Q318.625 308.825 319.85938 308.825Q321.09375 308.825 321.8125 309.5125Q322.53125 310.2 322.53125 311.21564Q322.53125 311.73126 322.3125 312.23126Q322.10938 312.71564 321.60938 313.27814Q321.125 313.825 320.0 314.77814Q319.04688 315.575 318.76562 315.8719Q318.5 316.15314 318.32812 316.4344L322.54688 316.4344ZM324.90625 313.40314L323.8125 313.40314L325.89062 308.71564L326.73438 308.71564L328.8125 313.40314L327.75 313.40314L326.3125 309.90314L324.90625 313.40314ZM334.54688 316.4344L334.54688 317.45L328.85938 317.45Q328.85938 317.075 328.98438 316.71564Q329.20312 316.1375 329.67188 315.575Q330.15625 315.0125 331.0625 314.27814Q332.46875 313.1219 332.95312 312.45Q333.45312 311.77814 333.45312 311.1844Q333.45312 310.5594 333.0 310.1375Q332.54688 309.7 331.82812 309.7Q331.0625 309.7 330.60938 310.15314Q330.15625 310.60626 330.14062 311.41876L329.0625 311.3094Q329.17188 310.09064 329.89062 309.46564Q330.625 308.825 331.85938 308.825Q333.09375 308.825 333.8125 309.5125Q334.53125 310.2 334.53125 311.21564Q334.53125 311.73126 334.3125 312.23126Q334.10938 312.71564 333.60938 313.27814Q333.125 313.825 332.0 314.77814Q331.04688 315.575 330.76562 315.8719Q330.5 316.15314 330.32812 316.4344L334.54688 316.4344ZM341.54688 316.4344L341.54688 317.45L335.85938 317.45Q335.85938 317.075 335.98438 316.71564Q336.20312 316.1375 336.67188 315.575Q337.15625 315.0125 338.0625 314.27814Q339.46875 313.1219 339.95312 312.45Q340.45312 311.77814 340.45312 311.1844Q340.45312 310.5594 340.0 310.1375Q339.54688 309.7 338.82812 309.7Q338.0625 309.7 337.60938 310.15314Q337.15625 310.60626 337.14062 311.41876L336.0625 311.3094Q336.17188 310.09064 336.89062 309.46564Q337.625 308.825 338.85938 308.825Q340.09375 308.825 340.8125 309.5125Q341.53125 310.2 341.53125 311.21564Q341.53125 311.73126 341.3125 312.23126Q341.10938 312.71564 340.60938 313.27814Q340.125 313.825 339.0 314.77814Q338.04688 315.575 337.76562 315.8719Q337.5 316.15314 337.32812 316.4344L341.54688 316.4344Z" fill-rule="nonzero"/><path fill="#000000" d="M423.32687 316.4344L423.32687 317.45L417.63937 317.45Q417.63937 317.075 417.76437 316.71564Q417.98312 316.1375 418.45187 315.575Q418.93625 315.0125 419.8425 314.27814Q421.24875 313.1219 421.73312 312.45Q422.23312 311.77814 422.23312 311.1844Q422.23312 310.5594 421.78 310.1375Q421.32687 309.7 420.60812 309.7Q419.8425 309.7 419.38937 310.15314Q418.93625 310.60626 418.92062 311.41876L417.8425 311.3094Q417.95187 310.09064 418.67062 309.46564Q419.405 308.825 420.63937 308.825Q421.87375 308.825 422.5925 309.5125Q423.31125 310.2 423.31125 311.21564Q423.31125 311.73126 423.0925 312.23126Q422.88937 312.71564 422.38937 313.27814Q421.905 313.825 420.78 314.77814Q419.82687 315.575 419.54562 315.8719Q419.28 316.15314 419.10812 316.4344L423.32687 316.4344ZM425.68625 313.40314L424.5925 313.40314L426.67062 308.71564L427.51437 308.71564L429.5925 313.40314L428.53 313.40314L427.0925 309.90314L425.68625 313.40314ZM435.32687 316.4344L435.32687 317.45L429.63937 317.45Q429.63937 317.075 429.76437 316.71564Q429.98312 316.1375 430.45187 315.575Q430.93625 315.0125 431.8425 314.27814Q433.24875 313.1219 433.73312 312.45Q434.23312 311.77814 434.23312 311.1844Q434.23312 310.5594 433.78 310.1375Q433.32687 309.7 432.60812 309.7Q431.8425 309.7 431.38937 310.15314Q430.93625 310.60626 430.92062 311.41876L429.8425 311.3094Q429.95187 310.09064 430.67062 309.46564Q431.405 308.825 432.63937 308.825Q433.87375 308.825 434.5925 309.5125Q435.31125 310.2 435.31125 311.21564Q435.31125 311.73126 435.0925 312.23126Q434.88937 312.71564 434.38937 313.27814Q433.905 313.825 432.78 314.77814Q431.82687 315.575 431.54562 315.8719Q431.28 316.15314 431.10812 316.4344L435.32687 316.4344ZM440.74875 317.45L439.70187 317.45L439.70187 310.73126Q439.31125 311.09064 438.68625 311.46564Q438.07687 311.825 437.5925 311.9969L437.5925 310.98126Q438.4675 310.5594 439.12375 309.98126Q439.79562 309.3875 440.07687 308.825L440.74875 308.825L440.74875 317.45Z" fill-rule="nonzero"/><path fill="#000000" d="M524.1069 316.4344L524.1069 317.45L518.4194 317.45Q518.4194 317.075 518.5444 316.71564Q518.7631 316.1375 519.2319 315.575Q519.71625 315.0125 520.6225 314.27814Q522.02875 313.1219 522.5131 312.45Q523.0131 311.77814 523.0131 311.1844Q523.0131 310.5594 522.56 310.1375Q522.1069 309.7 521.3881 309.7Q520.6225 309.7 520.1694 310.15314Q519.71625 310.60626 519.7006 311.41876L518.6225 311.3094Q518.7319 310.09064 519.4506 309.46564Q520.185 308.825 521.4194 308.825Q522.65375 308.825 523.3725 309.5125Q524.09125 310.2 524.09125 311.21564Q524.09125 311.73126 523.8725 312.23126Q523.6694 312.71564 523.1694 313.27814Q522.685 313.825 521.56 314.77814Q520.6069 315.575 520.3256 315.8719Q520.06 316.15314 519.8881 316.4344L524.1069 316.4344ZM526.46625 313.40314L525.3725 313.40314L527.4506 308.71564L528.2944 308.71564L530.3725 313.40314L529.31 313.40314L527.8725 309.90314L526.46625 313.40314ZM536.1069 316.4344L536.1069 317.45L530.4194 317.45Q530.4194 317.075 530.5444 316.71564Q530.7631 316.1375 531.2319 315.575Q531.71625 315.0125 532.6225 314.27814Q534.02875 313.1219 534.5131 312.45Q535.0131 311.77814 535.0131 311.1844Q535.0131 310.5594 534.56 310.1375Q534.1069 309.7 533.3881 309.7Q532.6225 309.7 532.1694 310.15314Q531.71625 310.60626 531.7006 311.41876L530.6225 311.3094Q530.7319 310.09064 531.4506 309.46564Q532.185 308.825 533.4194 308.825Q534.65375 308.825 535.3725 309.5125Q536.09125 310.2 536.09125 311.21564Q536.09125 311.73126 535.8725 312.23126Q535.6694 312.71564 535.1694 313.27814Q534.685 313.825 533.56 314.77814Q532.6069 315.575 532.3256 315.8719Q532.06 316.15314 531.8881 316.4344L536.1069 316.4344ZM537.56 313.21564Q537.56 311.6844 537.8725 310.7625Q538.185 309.825 538.7944 309.325Q539.4194 308.825 540.3569 308.825Q541.0444 308.825 541.56 309.10626Q542.09125 309.3875 542.435 309.91876Q542.77875 310.4344 542.96625 311.1844Q543.15375 311.9344 543.15375 313.21564Q543.15375 314.73126 542.84125 315.65314Q542.5444 316.575 541.9194 317.09064Q541.31 317.59064 540.3569 317.59064Q539.1225 317.59064 538.40375 316.7Q537.56 315.6375 537.56 313.21564ZM538.6381 313.21564Q538.6381 315.325 539.1381 316.02814Q539.6381 316.73126 540.3569 316.73126Q541.09125 316.73126 541.5756 316.02814Q542.0756 315.325 542.0756 313.21564Q542.0756 311.09064 541.5756 310.40314Q541.09125 309.7 540.34125 309.7Q539.6225 309.7 539.185 310.3094Q538.6381 311.09064 538.6381 313.21564Z" fill-rule="nonzero"/><path stroke="#4285f4" stroke-width="4.0" stroke-linecap="butt" d="M152.5 85.416664L164.5 85.416664" fill-rule="nonzero"/><path fill="#1a1a1a" d="M179.5625 86.40104L180.6875 86.697914Q180.32812 88.08854 179.40625 88.822914Q178.48438 89.55729 177.14062 89.55729Q175.75 89.55729 174.875 88.99479Q174.0 88.43229 173.54688 87.36979Q173.09375 86.291664 173.09375 85.05729Q173.09375 83.71354 173.60938 82.71354Q174.125 81.71354 175.0625 81.197914Q176.01562 80.68229 177.15625 80.68229Q178.4375 80.68229 179.3125 81.33854Q180.20312 81.99479 180.54688 83.18229L179.42188 83.447914Q179.125 82.510414 178.54688 82.08854Q177.98438 81.65104 177.125 81.65104Q176.14062 81.65104 175.46875 82.135414Q174.8125 82.604164 174.53125 83.40104Q174.26562 84.197914 174.26562 85.05729Q174.26562 86.15104 174.57812 86.96354Q174.90625 87.77604 175.57812 88.18229Q176.25 88.58854 177.04688 88.58854Q178.0 88.58854 178.65625 88.041664Q179.32812 87.49479 179.5625 86.40104ZM182.42188 89.416664L182.42188 80.822914L185.67188 80.822914Q186.51562 80.822914 186.96875 80.90104Q187.60938 81.010414 188.03125 81.30729Q188.46875 81.604164 188.71875 82.135414Q188.98438 82.666664 188.98438 83.30729Q188.98438 84.40104 188.28125 85.166664Q187.59375 85.916664 185.76562 85.916664L183.5625 85.916664L183.5625 89.416664L182.42188 89.416664ZM183.5625 84.916664L185.78125 84.916664Q186.89062 84.916664 187.34375 84.510414Q187.8125 84.08854 187.8125 83.33854Q187.8125 82.80729 187.53125 82.43229Q187.26562 82.041664 186.82812 81.916664Q186.53125 81.83854 185.76562 81.83854L183.5625 81.83854L183.5625 84.916664ZM196.0625 80.822914L197.20312 80.822914L197.20312 85.791664Q197.20312 87.08854 196.90625 87.854164Q196.60938 88.604164 195.84375 89.08854Q195.07812 89.55729 193.84375 89.55729Q192.64062 89.55729 191.85938 89.15104Q191.09375 88.729164 190.76562 87.947914Q190.4375 87.15104 190.4375 85.791664L190.4375 80.822914L191.57812 80.822914L191.57812 85.77604Q191.57812 86.90104 191.78125 87.43229Q192.0 87.96354 192.5 88.260414Q193.01562 88.541664 193.75 88.541664Q195.0 88.541664 195.53125 87.979164Q196.0625 87.40104 196.0625 85.77604L196.0625 80.822914Z" fill-rule="nonzero"/><path stroke="#ea4335" stroke-width="4.0" stroke-linecap="butt" d="M214.5 85.416664L226.5 85.416664" fill-rule="nonzero"/><path fill="#1a1a1a" d="M235.42188 89.416664L235.42188 80.822914L236.57812 80.822914L241.09375 87.572914L241.09375 80.822914L242.1875 80.822914L242.1875 89.416664L241.01562 89.416664L236.5 82.666664L236.5 89.416664L235.42188 89.416664ZM248.35938 88.65104Q247.76562 89.15104 247.21875 89.354164Q246.6875 89.55729 246.0625 89.55729Q245.03125 89.55729 244.48438 89.05729Q243.9375 88.55729 243.9375 87.77604Q243.9375 87.322914 244.14062 86.947914Q244.34375 86.55729 244.6875 86.33854Q245.03125 86.104164 245.45312 85.99479Q245.75 85.90104 246.39062 85.822914Q247.65625 85.68229 248.26562 85.46354Q248.26562 85.24479 248.26562 85.197914Q248.26562 84.541664 247.96875 84.27604Q247.5625 83.93229 246.76562 83.93229Q246.03125 83.93229 245.67188 84.197914Q245.3125 84.447914 245.14062 85.104164L244.10938 84.96354Q244.25 84.30729 244.57812 83.90104Q244.90625 83.49479 245.51562 83.27604Q246.125 83.05729 246.92188 83.05729Q247.71875 83.05729 248.21875 83.24479Q248.71875 83.43229 248.95312 83.71354Q249.1875 83.99479 249.28125 84.43229Q249.32812 84.697914 249.32812 85.40104L249.32812 86.80729Q249.32812 88.27604 249.39062 88.666664Q249.46875 89.05729 249.67188 89.416664L248.5625 89.416664Q248.40625 89.08854 248.35938 88.65104ZM248.26562 86.291664Q247.6875 86.52604 246.54688 86.697914Q245.89062 86.791664 245.625 86.916664Q245.35938 87.02604 245.20312 87.24479Q245.0625 87.46354 245.0625 87.74479Q245.0625 88.166664 245.375 88.447914Q245.70312 88.729164 246.3125 88.729164Q246.92188 88.729164 247.39062 88.46354Q247.875 88.197914 248.09375 87.729164Q248.26562 87.36979 248.26562 86.68229L248.26562 86.291664ZM251.29688 82.041664L251.29688 80.822914L252.35938 80.822914L252.35938 82.041664L251.29688 82.041664ZM251.29688 89.416664L251.29688 83.197914L252.35938 83.197914L252.35938 89.416664L251.29688 89.416664ZM256.01562 89.416664L253.65625 83.197914L254.76562 83.197914L256.10938 86.916664Q256.3125 87.52604 256.5 88.166664Q256.64062 87.68229 256.89062 86.99479L258.28125 83.197914L259.35938 83.197914L257.0 89.416664L256.01562 89.416664ZM263.54688 87.416664L264.64062 87.541664Q264.39062 88.49479 263.6875 89.02604Q262.98438 89.55729 261.90625 89.55729Q260.54688 89.55729 259.73438 88.71354Q258.9375 87.86979 258.9375 86.354164Q258.9375 84.791664 259.75 83.93229Q260.5625 83.05729 261.84375 83.05729Q263.09375 83.05729 263.875 83.90104Q264.67188 84.74479 264.67188 86.291664Q264.67188 86.385414 264.67188 86.572914L260.03125 86.572914Q260.09375 87.604164 260.60938 88.15104Q261.125 88.68229 261.90625 88.68229Q262.48438 88.68229 262.89062 88.385414Q263.3125 88.072914 263.54688 87.416664ZM260.09375 85.71354L263.5625 85.71354Q263.5 84.916664 263.17188 84.52604Q262.65625 83.916664 261.85938 83.916664Q261.125 83.916664 260.625 84.40104Q260.14062 84.885414 260.09375 85.71354Z" fill-rule="nonzero"/><path stroke="#fbbc04" stroke-width="4.0" stroke-linecap="butt" d="M281.5 85.416664L293.5 85.416664" fill-rule="nonzero"/><path fill="#1a1a1a" d="M303.92188 89.416664L301.64062 80.822914L302.8125 80.822914L304.125 86.46354Q304.32812 87.33854 304.48438 88.21354Q304.8125 86.83854 304.875 86.61979L306.5 80.822914L307.875 80.822914L309.10938 85.166664Q309.5625 86.791664 309.78125 88.21354Q309.9375 87.40104 310.20312 86.33854L311.54688 80.822914L312.6875 80.822914L310.34375 89.416664L309.23438 89.416664L307.4375 82.86979Q307.20312 82.05729 307.15625 81.86979Q307.03125 82.447914 306.90625 82.86979L305.09375 89.416664L303.92188 89.416664ZM312.90625 86.30729Q312.90625 84.572914 313.85938 83.74479Q314.65625 83.05729 315.8125 83.05729Q317.09375 83.05729 317.90625 83.90104Q318.73438 84.729164 318.73438 86.21354Q318.73438 87.416664 318.375 88.104164Q318.01562 88.791664 317.3125 89.18229Q316.625 89.55729 315.8125 89.55729Q314.51562 89.55729 313.70312 88.729164Q312.90625 87.885414 312.90625 86.30729ZM313.98438 86.30729Q313.98438 87.49479 314.5 88.08854Q315.03125 88.68229 315.8125 88.68229Q316.60938 88.68229 317.125 88.08854Q317.64062 87.49479 317.64062 86.27604Q317.64062 85.11979 317.10938 84.52604Q316.59375 83.93229 315.8125 83.93229Q315.03125 83.93229 314.5 84.52604Q313.98438 85.104164 313.98438 86.30729ZM320.28125 89.416664L320.28125 83.197914L321.23438 83.197914L321.23438 84.135414Q321.59375 83.479164 321.89062 83.27604Q322.20312 83.05729 322.57812 83.05729Q323.10938 83.05729 323.65625 83.385414L323.29688 84.36979Q322.90625 84.135414 322.53125 84.135414Q322.17188 84.135414 321.89062 84.354164Q321.625 84.55729 321.51562 84.93229Q321.32812 85.49479 321.32812 86.15104L321.32812 89.416664L320.28125 89.416664ZM324.29688 89.416664L324.29688 80.822914L325.35938 80.822914L325.35938 85.729164L327.84375 83.197914L329.21875 83.197914L326.82812 85.49479L329.45312 89.416664L328.15625 89.416664L326.09375 86.229164L325.35938 86.947914L325.35938 89.416664L324.29688 89.416664ZM329.875 86.83854L329.875 85.77604L333.125 85.77604L333.125 86.83854L329.875 86.83854ZM334.45312 89.416664L334.45312 80.822914L340.65625 80.822914L340.65625 81.83854L335.59375 81.83854L335.59375 84.46354L340.34375 84.46354L340.34375 85.479164L335.59375 85.479164L335.59375 88.40104L340.85938 88.40104L340.85938 89.416664L334.45312 89.416664ZM342.54688 89.416664L342.54688 84.010414L341.60938 84.010414L341.60938 83.197914L342.54688 83.197914L342.54688 82.52604Q342.54688 81.90104 342.65625 81.604164Q342.8125 81.18229 343.1875 80.93229Q343.57812 80.68229 344.26562 80.68229Q344.71875 80.68229 345.25 80.791664L345.09375 81.697914Q344.76562 81.65104 344.46875 81.65104Q343.98438 81.65104 343.78125 81.854164Q343.59375 82.05729 343.59375 82.61979L343.59375 83.197914L344.8125 83.197914L344.8125 84.010414L343.59375 84.010414L343.59375 89.416664L342.54688 89.416664ZM345.54688 89.416664L345.54688 84.010414L344.60938 84.010414L344.60938 83.197914L345.54688 83.197914L345.54688 82.52604Q345.54688 81.90104 345.65625 81.604164Q345.8125 81.18229 346.1875 80.93229Q346.57812 80.68229 347.26562 80.68229Q347.71875 80.68229 348.25 80.791664L348.09375 81.697914Q347.76562 81.65104 347.46875 81.65104Q346.98438 81.65104 346.78125 81.854164Q346.59375 82.05729 346.59375 82.61979L346.59375 83.197914L347.8125 83.197914L347.8125 84.010414L346.59375 84.010414L346.59375 89.416664L345.54688 89.416664ZM348.29688 82.041664L348.29688 80.822914L349.35938 80.822914L349.35938 82.041664L348.29688 82.041664ZM348.29688 89.416664L348.29688 83.197914L349.35938 83.197914L349.35938 89.416664L348.29688 89.416664ZM355.35938 87.135414L356.39062 87.27604Q356.21875 88.33854 355.51562 88.947914Q354.8125 89.55729 353.79688 89.55729Q352.51562 89.55729 351.73438 88.729164Q350.96875 87.885414 350.96875 86.322914Q350.96875 85.322914 351.29688 84.572914Q351.64062 83.80729 352.3125 83.43229Q353.0 83.05729 353.8125 83.05729Q354.8125 83.05729 355.45312 83.572914Q356.10938 84.072914 356.29688 85.02604L355.26562 85.18229Q355.125 84.55729 354.75 84.24479Q354.375 83.916664 353.84375 83.916664Q353.04688 83.916664 352.54688 84.49479Q352.04688 85.05729 352.04688 86.291664Q352.04688 87.55729 352.53125 88.11979Q353.01562 88.68229 353.78125 88.68229Q354.40625 88.68229 354.8125 88.30729Q355.23438 87.93229 355.35938 87.135414ZM357.29688 82.041664L357.29688 80.822914L358.35938 80.822914L358.35938 82.041664L357.29688 82.041664ZM357.29688 89.416664L357.29688 83.197914L358.35938 83.197914L358.35938 89.416664L357.29688 89.416664ZM364.54688 87.416664L365.64062 87.541664Q365.39062 88.49479 364.6875 89.02604Q363.98438 89.55729 362.90625 89.55729Q361.54688 89.55729 360.73438 88.71354Q359.9375 87.86979 359.9375 86.354164Q359.9375 84.791664 360.75 83.93229Q361.5625 83.05729 362.84375 83.05729Q364.09375 83.05729 364.875 83.90104Q365.67188 84.74479 365.67188 86.291664Q365.67188 86.385414 365.67188 86.572914L361.03125 86.572914Q361.09375 87.604164 361.60938 88.15104Q362.125 88.68229 362.90625 88.68229Q363.48438 88.68229 363.89062 88.385414Q364.3125 88.072914 364.54688 87.416664ZM361.09375 85.71354L364.5625 85.71354Q364.5 84.916664 364.17188 84.52604Q363.65625 83.916664 362.85938 83.916664Q362.125 83.916664 361.625 84.40104Q361.14062 84.885414 361.09375 85.71354ZM367.29688 89.416664L367.29688 83.197914L368.23438 83.197914L368.23438 84.072914Q368.92188 83.05729 370.21875 83.05729Q370.78125 83.05729 371.25 83.260414Q371.73438 83.46354 371.96875 83.791664Q372.20312 84.11979 372.29688 84.55729Q372.34375 84.854164 372.34375 85.58854L372.34375 89.416664L371.29688 89.416664L371.29688 85.635414Q371.29688 84.979164 371.17188 84.666664Q371.04688 84.354164 370.73438 84.166664Q370.42188 83.96354 370.0 83.96354Q369.32812 83.96354 368.82812 84.40104Q368.34375 84.822914 368.34375 86.010414L368.34375 89.416664L367.29688 89.416664ZM376.59375 88.479164L376.75 89.40104Q376.29688 89.49479 375.95312 89.49479Q375.375 89.49479 375.0625 89.322914Q374.75 89.135414 374.60938 88.83854Q374.48438 88.541664 374.48438 87.58854L374.48438 84.010414L373.71875 84.010414L373.71875 83.197914L374.48438 83.197914L374.48438 81.65104L375.53125 81.02604L375.53125 83.197914L376.59375 83.197914L376.59375 84.010414L375.53125 84.010414L375.53125 87.65104Q375.53125 88.104164 375.57812 88.229164Q375.64062 88.354164 375.76562 88.43229Q375.89062 88.510414 376.125 88.510414Q376.3125 88.510414 376.59375 88.479164Z" fill-rule="nonzero"/><path stroke="#34a853" stroke-width="4.0" stroke-linecap="butt" d="M392.5 85.416664L404.5 85.416664" fill-rule="nonzero"/><path fill="#1a1a1a" d="M415.60938 89.416664L415.60938 81.83854L412.78125 81.83854L412.78125 80.822914L419.59375 80.822914L419.59375 81.83854L416.75 81.83854L416.75 89.416664L415.60938 89.416664ZM420.29688 89.416664L420.29688 80.822914L421.34375 80.822914L421.34375 83.90104Q422.07812 83.05729 423.20312 83.05729Q423.90625 83.05729 424.40625 83.33854Q424.92188 83.604164 425.14062 84.08854Q425.35938 84.55729 425.35938 85.479164L425.35938 89.416664L424.3125 89.416664L424.3125 85.479164Q424.3125 84.68229 423.96875 84.322914Q423.625 83.96354 423.0 83.96354Q422.53125 83.96354 422.10938 84.21354Q421.70312 84.447914 421.51562 84.86979Q421.34375 85.27604 421.34375 86.010414L421.34375 89.416664L420.29688 89.416664ZM427.28125 89.416664L427.28125 83.197914L428.23438 83.197914L428.23438 84.135414Q428.59375 83.479164 428.89062 83.27604Q429.20312 83.05729 429.57812 83.05729Q430.10938 83.05729 430.65625 83.385414L430.29688 84.36979Q429.90625 84.135414 429.53125 84.135414Q429.17188 84.135414 428.89062 84.354164Q428.625 84.55729 428.51562 84.93229Q428.32812 85.49479 428.32812 86.15104L428.32812 89.416664L427.28125 89.416664ZM435.375 89.416664L435.375 88.49479Q434.64062 89.55729 433.39062 89.55729Q432.84375 89.55729 432.35938 89.354164Q431.89062 89.135414 431.65625 88.822914Q431.42188 88.49479 431.32812 88.02604Q431.26562 87.729164 431.26562 87.041664L431.26562 83.197914L432.32812 83.197914L432.32812 86.65104Q432.32812 87.46354 432.39062 87.760414Q432.48438 88.166664 432.79688 88.416664Q433.125 88.65104 433.60938 88.65104Q434.07812 88.65104 434.48438 88.416664Q434.90625 88.166664 435.07812 87.74479Q435.26562 87.322914 435.26562 86.52604L435.26562 83.197914L436.3125 83.197914L436.3125 89.416664L435.375 89.416664ZM437.875 87.55729L438.90625 87.40104Q439.0 88.02604 439.39062 88.354164Q439.79688 88.68229 440.53125 88.68229Q441.25 88.68229 441.59375 88.40104Q441.95312 88.104164 441.95312 87.697914Q441.95312 87.33854 441.64062 87.135414Q441.42188 86.99479 440.5625 86.77604Q439.40625 86.479164 438.95312 86.27604Q438.51562 86.05729 438.28125 85.68229Q438.04688 85.30729 438.04688 84.83854Q438.04688 84.43229 438.23438 84.072914Q438.42188 83.71354 438.75 83.479164Q439.0 83.30729 439.42188 83.18229Q439.84375 83.05729 440.34375 83.05729Q441.0625 83.05729 441.60938 83.27604Q442.17188 83.479164 442.4375 83.83854Q442.70312 84.197914 442.79688 84.791664L441.76562 84.93229Q441.70312 84.46354 441.35938 84.197914Q441.03125 83.916664 440.40625 83.916664Q439.6875 83.916664 439.375 84.166664Q439.0625 84.40104 439.0625 84.729164Q439.0625 84.93229 439.1875 85.08854Q439.32812 85.260414 439.59375 85.36979Q439.75 85.43229 440.53125 85.635414Q441.65625 85.947914 442.09375 86.135414Q442.53125 86.322914 442.78125 86.68229Q443.03125 87.041664 443.03125 87.58854Q443.03125 88.11979 442.71875 88.58854Q442.42188 89.041664 441.84375 89.30729Q441.26562 89.55729 440.53125 89.55729Q439.3125 89.55729 438.67188 89.05729Q438.04688 88.541664 437.875 87.55729ZM447.59375 88.479164L447.75 89.40104Q447.29688 89.49479 446.95312 89.49479Q446.375 89.49479 446.0625 89.322914Q445.75 89.135414 445.60938 88.83854Q445.48438 88.541664 445.48438 87.58854L445.48438 84.010414L444.71875 84.010414L444.71875 83.197914L445.48438 83.197914L445.48438 81.65104L446.53125 81.02604L446.53125 83.197914L447.59375 83.197914L447.59375 84.010414L446.53125 84.010414L446.53125 87.65104Q446.53125 88.104164 446.57812 88.229164Q446.64062 88.354164 446.76562 88.43229Q446.89062 88.510414 447.125 88.510414Q447.3125 88.510414 447.59375 88.479164Z" fill-rule="nonzero"/><path fill="#999999" d="M18.534374 63.05L22.378124 53.034374L23.8 53.034374L27.909374 63.05L26.39375 63.05L25.221874 60.01875L21.034374 60.01875L19.940624 63.05L18.534374 63.05ZM21.425 58.940624L24.815624 58.940624L23.76875 56.159374Q23.3 54.89375 23.065624 54.08125Q22.878124 55.05 22.51875 55.9875L21.425 58.940624ZM28.45625 63.05L28.45625 55.784374L29.565624 55.784374L29.565624 56.89375Q29.9875 56.1125 30.346874 55.878124Q30.70625 55.628124 31.14375 55.628124Q31.76875 55.628124 32.409374 56.01875L31.9875 57.159374Q31.534374 56.89375 31.08125 56.89375Q30.675 56.89375 30.346874 57.14375Q30.034374 57.378124 29.89375 57.815624Q29.690624 58.471874 29.690624 59.253124L29.690624 63.05L28.45625 63.05ZM33.45625 63.05L33.45625 55.784374L34.565624 55.784374L34.565624 56.89375Q34.9875 56.1125 35.346874 55.878124Q35.70625 55.628124 36.14375 55.628124Q36.76875 55.628124 37.409374 56.01875L36.9875 57.159374Q36.534374 56.89375 36.08125 56.89375Q35.675 56.89375 35.346874 57.14375Q35.034374 57.378124 34.89375 57.815624Q34.690624 58.471874 34.690624 59.253124L34.690624 63.05L33.45625 63.05ZM43.20625 62.159374Q42.534374 62.7375 41.89375 62.9875Q41.26875 63.221874 40.534374 63.221874Q39.346874 63.221874 38.690624 62.64375Q38.05 62.05 38.05 61.128124Q38.05 60.596874 38.284374 60.159374Q38.534374 59.721874 38.925 59.45625Q39.33125 59.190624 39.815624 59.05Q40.175 58.95625 40.909374 58.8625Q42.409374 58.690624 43.1125 58.440624Q43.1125 58.190624 43.1125 58.128124Q43.1125 57.3625 42.76875 57.065624Q42.3 56.64375 41.3625 56.64375Q40.503124 56.64375 40.08125 56.95625Q39.675 57.253124 39.471874 58.01875L38.26875 57.8625Q38.425 57.08125 38.8 56.6125Q39.190624 56.14375 39.89375 55.89375Q40.6125 55.628124 41.55 55.628124Q42.471874 55.628124 43.05 55.846874Q43.628124 56.065624 43.89375 56.39375Q44.175 56.721874 44.284374 57.2375Q44.346874 57.55 44.346874 58.3625L44.346874 60.003124Q44.346874 61.721874 44.425 62.175Q44.503124 62.628124 44.7375 63.05L43.45625 63.05Q43.26875 62.659374 43.20625 62.159374ZM43.1125 59.409374Q42.440624 59.675 41.096874 59.878124Q40.346874 59.9875 40.01875 60.128124Q39.70625 60.253124 39.534374 60.51875Q39.3625 60.784374 39.3625 61.096874Q39.3625 61.596874 39.7375 61.925Q40.1125 62.253124 40.83125 62.253124Q41.55 62.253124 42.096874 61.940624Q42.64375 61.628124 42.909374 61.08125Q43.1125 60.675 43.1125 59.8625L43.1125 59.409374ZM46.425 65.84688L46.284374 64.69063Q46.690624 64.8 46.9875 64.8Q47.39375 64.8 47.64375 64.65938Q47.89375 64.53438 48.05 64.28438Q48.159374 64.09688 48.425 63.3625Q48.45625 63.26875 48.534374 63.065624L45.76875 55.784374L47.096874 55.784374L48.6125 59.9875Q48.909374 60.8 49.14375 61.675Q49.346874 60.83125 49.64375 60.01875L51.190624 55.784374L52.425 55.784374L49.659374 63.175Q49.221874 64.3625 48.971874 64.81563Q48.64375 65.425 48.221874 65.70625Q47.8 66.00313 47.20625 66.00313Q46.8625 66.00313 46.425 65.84688ZM57.175 59.83125L58.425 59.721874Q58.51875 60.471874 58.846874 60.95625Q59.175 61.440624 59.846874 61.7375Q60.534374 62.034374 61.39375 62.034374Q62.14375 62.034374 62.721874 61.815624Q63.315624 61.58125 63.596874 61.190624Q63.878124 60.8 63.878124 60.33125Q63.878124 59.8625 63.596874 59.51875Q63.33125 59.159374 62.70625 58.909374Q62.3 58.753124 60.909374 58.425Q59.534374 58.096874 58.9875 57.8Q58.26875 57.425 57.909374 56.878124Q57.565624 56.315624 57.565624 55.6125Q57.565624 54.8625 57.9875 54.20625Q58.425 53.534374 59.253124 53.20625Q60.08125 52.8625 61.096874 52.8625Q62.20625 52.8625 63.05 53.221874Q63.909374 53.58125 64.3625 54.284374Q64.81563 54.971874 64.8625 55.846874L63.58125 55.940624Q63.4875 55.003124 62.89375 54.51875Q62.3 54.01875 61.14375 54.01875Q59.940624 54.01875 59.39375 54.471874Q58.846874 54.909374 58.846874 55.534374Q58.846874 56.065624 59.2375 56.425Q59.6125 56.76875 61.221874 57.14375Q62.846874 57.503124 63.440624 57.76875Q64.31563 58.175 64.7375 58.8Q65.15938 59.409374 65.15938 60.221874Q65.15938 61.01875 64.69063 61.7375Q64.2375 62.440624 63.378124 62.83125Q62.51875 63.221874 61.45625 63.221874Q60.096874 63.221874 59.175 62.83125Q58.253124 62.425 57.721874 61.628124Q57.20625 60.83125 57.175 59.83125ZM66.4875 54.440624L66.4875 53.034374L67.70625 53.034374L67.70625 54.440624L66.4875 54.440624ZM66.4875 63.05L66.4875 55.784374L67.70625 55.784374L67.70625 63.05L66.4875 63.05ZM68.83125 63.05L68.83125 62.05L73.44063 56.753124Q72.65938 56.784374 72.05 56.784374L69.09688 56.784374L69.09688 55.784374L75.03438 55.784374L75.03438 56.596874L71.09688 61.20625L70.34688 62.05Q71.175 61.9875 71.89375 61.9875L75.25313 61.9875L75.25313 63.05L68.83125 63.05ZM80.44063 60.70625L81.72188 60.8625Q81.40938 61.9875 80.59688 62.6125Q79.78438 63.221874 78.51875 63.221874Q76.925 63.221874 75.9875 62.2375Q75.06563 61.253124 75.06563 59.4875Q75.06563 57.64375 76.00313 56.64375Q76.95625 55.628124 78.45625 55.628124Q79.90938 55.628124 80.83125 56.628124Q81.75313 57.6125 81.75313 59.409374Q81.75313 59.51875 81.75313 59.7375L76.33125 59.7375Q76.40938 60.925 77.00313 61.565624Q77.6125 62.20625 78.53438 62.20625Q79.20625 62.20625 79.675 61.846874Q80.15938 61.4875 80.44063 60.70625ZM76.40938 58.721874L80.45625 58.721874Q80.37813 57.8 79.9875 57.346874Q79.40938 56.64375 78.47188 56.64375Q77.6125 56.64375 77.03438 57.20625Q76.47188 57.76875 76.40938 58.721874ZM83.81563 57.190624L83.81563 55.784374L85.22188 55.784374L85.22188 57.190624L83.81563 57.190624ZM83.81563 63.05L83.81563 61.64375L85.22188 61.64375L85.22188 63.05L83.81563 63.05ZM91.6125 63.05L91.6125 53.034374L92.97188 53.034374L98.2375 60.89375L98.2375 53.034374L99.51875 53.034374L99.51875 63.05L98.15938 63.05L92.89375 55.175L92.89375 63.05L91.6125 63.05ZM100.01875 59.425Q100.01875 57.409374 101.14375 56.425Q102.06563 55.628124 103.425 55.628124Q104.90938 55.628124 105.8625 56.6125Q106.81563 57.58125 106.81563 59.315624Q106.81563 60.721874 106.39375 61.534374Q105.97188 62.33125 105.15938 62.784374Q104.3625 63.221874 103.425 63.221874Q101.89375 63.221874 100.95625 62.2375Q100.01875 61.253124 100.01875 59.425ZM101.28438 59.425Q101.28438 60.815624 101.89375 61.51875Q102.50313 62.20625 103.425 62.20625Q104.33125 62.20625 104.94063 61.503124Q105.55 60.8 105.55 59.378124Q105.55 58.034374 104.94063 57.346874Q104.33125 56.64375 103.425 56.64375Q102.50313 56.64375 101.89375 57.33125Q101.28438 58.01875 101.28438 59.425ZM111.15938 61.95625L111.33125 63.034374Q110.81563 63.14375 110.40938 63.14375Q109.7375 63.14375 109.3625 62.940624Q109.00313 62.721874 108.84688 62.378124Q108.70625 62.034374 108.70625 60.925L108.70625 56.753124L107.8 56.753124L107.8 55.784374L108.70625 55.784374L108.70625 53.9875L109.925 53.253124L109.925 55.784374L111.15938 55.784374L111.15938 56.753124L109.925 56.753124L109.925 60.9875Q109.925 61.51875 109.9875 61.675Q110.05 61.815624 110.19063 61.909374Q110.34688 62.003124 110.6125 62.003124Q110.83125 62.003124 111.15938 61.95625ZM116.62813 63.05L116.62813 53.034374L120.40938 53.034374Q121.40938 53.034374 121.94063 53.128124Q122.675 53.253124 123.175 53.596874Q123.675 53.940624 123.97188 54.565624Q124.28438 55.175 124.28438 55.925Q124.28438 57.20625 123.47188 58.096874Q122.65938 58.971874 120.53438 58.971874L117.95625 58.971874L117.95625 63.05L116.62813 63.05ZM117.95625 57.8L120.55 57.8Q121.83125 57.8 122.3625 57.315624Q122.90938 56.83125 122.90938 55.971874Q122.90938 55.33125 122.59688 54.89375Q122.28438 54.440624 121.75313 54.3Q121.425 54.20625 120.51875 54.20625L117.95625 54.20625L117.95625 57.8ZM125.01875 59.425Q125.01875 57.409374 126.14375 56.425Q127.06563 55.628124 128.425 55.628124Q129.90938 55.628124 130.8625 56.6125Q131.81563 57.58125 131.81563 59.315624Q131.81563 60.721874 131.39375 61.534374Q130.97188 62.33125 130.15938 62.784374Q129.3625 63.221874 128.425 63.221874Q126.89375 63.221874 125.95625 62.2375Q125.01875 61.253124 125.01875 59.425ZM126.28438 59.425Q126.28438 60.815624 126.89375 61.51875Q127.50313 62.20625 128.425 62.20625Q129.33125 62.20625 129.94063 61.503124Q130.55 60.8 130.55 59.378124Q130.55 58.034374 129.94063 57.346874Q129.33125 56.64375 128.425 56.64375Q127.50313 56.64375 126.89375 57.33125Q126.28438 58.01875 126.28438 59.425ZM134.81563 63.05L132.59688 55.784374L133.8625 55.784374L135.01875 59.9875L135.45625 61.534374Q135.47188 61.425 135.83125 60.034374L136.9875 55.784374L138.2375 55.784374L139.33125 60.003124L139.69063 61.39375L140.1125 59.9875L141.3625 55.784374L142.55 55.784374L140.28438 63.05L139.00313 63.05L137.84688 58.70625L137.56563 57.471874L136.09688 63.05L134.81563 63.05ZM147.44063 60.70625L148.72188 60.8625Q148.40938 61.9875 147.59688 62.6125Q146.78438 63.221874 145.51875 63.221874Q143.925 63.221874 142.9875 62.2375Q142.06563 61.253124 142.06563 59.4875Q142.06563 57.64375 143.00313 56.64375Q143.95625 55.628124 145.45625 55.628124Q146.90938 55.628124 147.83125 56.628124Q148.75313 57.6125 148.75313 59.409374Q148.75313 59.51875 148.75313 59.7375L143.33125 59.7375Q143.40938 60.925 144.00313 61.565624Q144.6125 62.20625 145.53438 62.20625Q146.20625 62.20625 146.675 61.846874Q147.15938 61.4875 147.44063 60.70625ZM143.40938 58.721874L147.45625 58.721874Q147.37813 57.8 146.9875 57.346874Q146.40938 56.64375 145.47188 56.64375Q144.6125 56.64375 144.03438 57.20625Q143.47188 57.76875 143.40938 58.721874ZM150.45625 63.05L150.45625 55.784374L151.56563 55.784374L151.56563 56.89375Q151.9875 56.1125 152.34688 55.878124Q152.70625 55.628124 153.14375 55.628124Q153.76875 55.628124 154.40938 56.01875L153.9875 57.159374Q153.53438 56.89375 153.08125 56.89375Q152.675 56.89375 152.34688 57.14375Q152.03438 57.378124 151.89375 57.815624Q151.69063 58.471874 151.69063 59.253124L151.69063 63.05L150.45625 63.05ZM154.9875 60.034374L154.9875 58.8L158.76875 58.8L158.76875 60.034374L154.9875 60.034374ZM160.01875 59.425Q160.01875 57.409374 161.14375 56.425Q162.06563 55.628124 163.425 55.628124Q164.90938 55.628124 165.8625 56.6125Q166.81563 57.58125 166.81563 59.315624Q166.81563 60.721874 166.39375 61.534374Q165.97188 62.33125 165.15938 62.784374Q164.3625 63.221874 163.425 63.221874Q161.89375 63.221874 160.95625 62.2375Q160.01875 61.253124 160.01875 59.425ZM161.28438 59.425Q161.28438 60.815624 161.89375 61.51875Q162.50313 62.20625 163.425 62.20625Q164.33125 62.20625 164.94063 61.503124Q165.55 60.8 165.55 59.378124Q165.55 58.034374 164.94063 57.346874Q164.33125 56.64375 163.425 56.64375Q162.50313 56.64375 161.89375 57.33125Q161.28438 58.01875 161.28438 59.425ZM168.76875 63.05L168.76875 56.753124L167.675 56.753124L167.675 55.784374L168.76875 55.784374L168.76875 55.01875Q168.76875 54.284374 168.89375 53.925Q169.08125 53.45625 169.51875 53.159374Q169.97188 52.8625 170.78438 52.8625Q171.3 52.8625 171.925 52.9875L171.7375 54.05Q171.3625 53.9875 171.01875 53.9875Q170.45625 53.9875 170.22188 54.221874Q169.9875 54.45625 169.9875 55.1125L169.9875 55.784374L171.40938 55.784374L171.40938 56.753124L169.9875 56.753124L169.9875 63.05L168.76875 63.05ZM171.9875 60.034374L171.9875 58.8L175.76875 58.8L175.76875 60.034374L171.9875 60.034374ZM180.175 63.05L180.175 54.20625L176.87813 54.20625L176.87813 53.034374L184.81563 53.034374L184.81563 54.20625L181.50313 54.20625L181.50313 63.05L180.175 63.05ZM187.81563 63.05L185.59688 55.784374L186.8625 55.784374L188.01875 59.9875L188.45625 61.534374Q188.47188 61.425 188.83125 60.034374L189.9875 55.784374L191.2375 55.784374L192.33125 60.003124L192.69063 61.39375L193.1125 59.9875L194.3625 55.784374L195.55 55.784374L193.28438 63.05L192.00313 63.05L190.84688 58.70625L190.56563 57.471874L189.09688 63.05L187.81563 63.05ZM195.01875 59.425Q195.01875 57.409374 196.14375 56.425Q197.06563 55.628124 198.425 55.628124Q199.90938 55.628124 200.8625 56.6125Q201.81563 57.58125 201.81563 59.315624Q201.81563 60.721874 201.39375 61.534374Q200.97188 62.33125 200.15938 62.784374Q199.3625 63.221874 198.425 63.221874Q196.89375 63.221874 195.95625 62.2375Q195.01875 61.253124 195.01875 59.425ZM196.28438 59.425Q196.28438 60.815624 196.89375 61.51875Q197.50313 62.20625 198.425 62.20625Q199.33125 62.20625 199.94063 61.503124Q200.55 60.8 200.55 59.378124Q200.55 58.034374 199.94063 57.346874Q199.33125 56.64375 198.425 56.64375Q197.50313 56.64375 196.89375 57.33125Q196.28438 58.01875 196.28438 59.425Z" fill-rule="nonzero"/><path fill="#757575" d="M20.45625 31.95625L22.2375 31.8Q22.3625 32.8625 22.815624 33.55Q23.284374 34.2375 24.253124 34.675Q25.2375 35.096874 26.471874 35.096874Q27.55 35.096874 28.378124 34.784374Q29.20625 34.45625 29.6125 33.89375Q30.01875 33.33125 30.01875 32.659374Q30.01875 31.9875 29.628124 31.4875Q29.2375 30.9875 28.346874 30.64375Q27.76875 30.409374 25.784374 29.940624Q23.815624 29.471874 23.034374 29.05Q22.003124 28.51875 21.503124 27.721874Q21.003124 26.925 21.003124 25.940624Q21.003124 24.846874 21.6125 23.909374Q22.221874 22.971874 23.409374 22.4875Q24.596874 21.9875 26.034374 21.9875Q27.628124 21.9875 28.846874 22.503124Q30.065624 23.01875 30.70625 24.01875Q31.3625 25.003124 31.409374 26.26875L29.596874 26.409374Q29.45625 25.05 28.6125 24.3625Q27.76875 23.659374 26.1125 23.659374Q24.39375 23.659374 23.596874 24.3Q22.815624 24.925 22.815624 25.8Q22.815624 26.58125 23.378124 27.08125Q23.925 27.58125 26.2375 28.096874Q28.55 28.6125 29.409374 29.003124Q30.659374 29.58125 31.253124 30.471874Q31.846874 31.346874 31.846874 32.503124Q31.846874 33.64375 31.190624 34.659374Q30.534374 35.675 29.3 36.2375Q28.08125 36.8 26.55 36.8Q24.6125 36.8 23.3 36.2375Q21.9875 35.659374 21.2375 34.51875Q20.4875 33.378124 20.45625 31.95625ZM40.64375 32.753124L42.3625 32.971874Q42.08125 34.76875 40.909374 35.784374Q39.753124 36.784374 38.05 36.784374Q35.925 36.784374 34.628124 35.39375Q33.33125 34.003124 33.33125 31.409374Q33.33125 29.721874 33.878124 28.471874Q34.440624 27.20625 35.58125 26.58125Q36.721874 25.940624 38.065624 25.940624Q39.753124 25.940624 40.815624 26.8Q41.89375 27.659374 42.20625 29.221874L40.4875 29.4875Q40.253124 28.440624 39.628124 27.925Q39.003124 27.39375 38.128124 27.39375Q36.8 27.39375 35.971874 28.346874Q35.14375 29.3 35.14375 31.346874Q35.14375 33.440624 35.940624 34.39375Q36.7375 35.33125 38.034374 35.33125Q39.065624 35.33125 39.753124 34.70625Q40.45625 34.065624 40.64375 32.753124ZM50.64375 35.26875Q49.659374 36.096874 48.753124 36.440624Q47.846874 36.784374 46.815624 36.784374Q45.1125 36.784374 44.190624 35.95625Q43.26875 35.1125 43.26875 33.815624Q43.26875 33.05 43.6125 32.425Q43.971874 31.8 44.534374 31.425Q45.096874 31.034374 45.8 30.83125Q46.315624 30.70625 47.3625 30.565624Q49.4875 30.315624 50.4875 29.971874Q50.503124 29.6125 50.503124 29.503124Q50.503124 28.440624 50.003124 27.9875Q49.33125 27.39375 48.003124 27.39375Q46.753124 27.39375 46.159374 27.83125Q45.58125 28.26875 45.3 29.378124L43.58125 29.14375Q43.815624 28.034374 44.346874 27.3625Q44.878124 26.675 45.89375 26.315624Q46.909374 25.940624 48.253124 25.940624Q49.58125 25.940624 50.409374 26.253124Q51.2375 26.565624 51.628124 27.05Q52.01875 27.51875 52.175 28.2375Q52.26875 28.690624 52.26875 29.8625L52.26875 32.20625Q52.26875 34.659374 52.378124 35.315624Q52.4875 35.95625 52.83125 36.55L50.9875 36.55Q50.721874 36.003124 50.64375 35.26875ZM50.4875 31.346874Q49.534374 31.7375 47.6125 32.003124Q46.534374 32.159374 46.08125 32.3625Q45.64375 32.55 45.39375 32.925Q45.14375 33.3 45.14375 33.76875Q45.14375 34.471874 45.675 34.940624Q46.20625 35.409374 47.2375 35.409374Q48.253124 35.409374 49.034374 34.971874Q49.83125 34.51875 50.20625 33.753124Q50.4875 33.14375 50.4875 31.9875L50.4875 31.346874ZM54.8625 36.55L54.8625 26.175L56.45625 26.175L56.45625 27.659374Q57.596874 25.940624 59.753124 25.940624Q60.690624 25.940624 61.471874 26.284374Q62.26875 26.6125 62.659374 27.159374Q63.05 27.70625 63.20625 28.45625Q63.3 28.95625 63.3 30.175L63.3 36.55L61.534374 36.55L61.534374 30.2375Q61.534374 29.159374 61.33125 28.628124Q61.128124 28.096874 60.596874 27.784374Q60.08125 27.471874 59.378124 27.471874Q58.253124 27.471874 57.440624 28.190624Q56.628124 28.89375 56.628124 30.878124L56.628124 36.55L54.8625 36.55ZM71.40938 36.55L71.40938 22.2375L73.31563 22.2375L73.31563 36.55L71.40938 36.55ZM76.8625 36.55L76.8625 26.175L78.44063 26.175L78.44063 27.628124Q78.925 26.878124 79.7375 26.409374Q80.55 25.940624 81.58125 25.940624Q82.7375 25.940624 83.47188 26.425Q84.20625 26.89375 84.51875 27.753124Q85.75313 25.940624 87.72188 25.940624Q89.26875 25.940624 90.09688 26.8Q90.925 27.659374 90.925 29.425L90.925 36.55L89.175 36.55L89.175 30.01875Q89.175 28.95625 89.00313 28.503124Q88.83125 28.034374 88.37813 27.753124Q87.94063 27.471874 87.33125 27.471874Q86.2375 27.471874 85.50313 28.20625Q84.78438 28.925 84.78438 30.51875L84.78438 36.55L83.03438 36.55L83.03438 29.815624Q83.03438 28.64375 82.59688 28.065624Q82.175 27.471874 81.19063 27.471874Q80.45625 27.471874 79.81563 27.8625Q79.19063 28.253124 78.90938 29.003124Q78.62813 29.753124 78.62813 31.175L78.62813 36.55L76.8625 36.55ZM92.8625 40.51875L92.8625 26.175L94.47188 26.175L94.47188 27.51875Q95.03438 26.7375 95.7375 26.346874Q96.45625 25.940624 97.47188 25.940624Q98.8 25.940624 99.81563 26.628124Q100.83125 27.315624 101.34688 28.565624Q101.87813 29.8 101.87813 31.284374Q101.87813 32.878124 101.3 34.159374Q100.7375 35.425 99.64375 36.1125Q98.55 36.784374 97.34688 36.784374Q96.47188 36.784374 95.76875 36.409374Q95.08125 36.034374 94.62813 35.471874L94.62813 40.51875L92.8625 40.51875ZM94.45625 31.425Q94.45625 33.425 95.26875 34.378124Q96.08125 35.33125 97.2375 35.33125Q98.40938 35.33125 99.2375 34.346874Q100.08125 33.3625 100.08125 31.26875Q100.08125 29.3 99.25313 28.315624Q98.44063 27.315624 97.31563 27.315624Q96.19063 27.315624 95.31563 28.378124Q94.45625 29.425 94.45625 31.425ZM103.83125 36.55L103.83125 22.2375L105.58125 22.2375L105.58125 36.55L103.83125 36.55ZM114.97188 33.20625L116.78438 33.440624Q116.3625 35.01875 115.19063 35.909374Q114.03438 36.784374 112.22188 36.784374Q109.95625 36.784374 108.6125 35.39375Q107.28438 33.9875 107.28438 31.45625Q107.28438 28.83125 108.62813 27.39375Q109.97188 25.940624 112.12813 25.940624Q114.20625 25.940624 115.51875 27.3625Q116.84688 28.76875 116.84688 31.346874Q116.84688 31.503124 116.83125 31.815624L109.09688 31.815624Q109.19063 33.51875 110.06563 34.425Q110.94063 35.33125 112.2375 35.33125Q113.20625 35.33125 113.87813 34.83125Q114.56563 34.315624 114.97188 33.20625ZM109.19063 30.3625L114.9875 30.3625Q114.87813 29.065624 114.33125 28.409374Q113.4875 27.39375 112.14375 27.39375Q110.94063 27.39375 110.1125 28.20625Q109.28438 29.003124 109.19063 30.3625ZM118.8625 36.55L118.8625 26.175L120.44063 26.175L120.44063 27.628124Q120.925 26.878124 121.7375 26.409374Q122.55 25.940624 123.58125 25.940624Q124.7375 25.940624 125.47188 26.425Q126.20625 26.89375 126.51875 27.753124Q127.75313 25.940624 129.72188 25.940624Q131.26875 25.940624 132.09688 26.8Q132.925 27.659374 132.925 29.425L132.925 36.55L131.175 36.55L131.175 30.01875Q131.175 28.95625 131.00313 28.503124Q130.83125 28.034374 130.37813 27.753124Q129.94063 27.471874 129.33125 27.471874Q128.2375 27.471874 127.50313 28.20625Q126.78438 28.925 126.78438 30.51875L126.78438 36.55L125.03438 36.55L125.03438 29.815624Q125.03438 28.64375 124.59688 28.065624Q124.175 27.471874 123.19063 27.471874Q122.45625 27.471874 121.81563 27.8625Q121.19063 28.253124 120.90938 29.003124Q120.62813 29.753124 120.62813 31.175L120.62813 36.55L118.8625 36.55ZM141.97188 33.20625L143.78438 33.440624Q143.3625 35.01875 142.19063 35.909374Q141.03438 36.784374 139.22188 36.784374Q136.95625 36.784374 135.6125 35.39375Q134.28438 33.9875 134.28438 31.45625Q134.28438 28.83125 135.62813 27.39375Q136.97188 25.940624 139.12813 25.940624Q141.20625 25.940624 142.51875 27.3625Q143.84688 28.76875 143.84688 31.346874Q143.84688 31.503124 143.83125 31.815624L136.09688 31.815624Q136.19063 33.51875 137.06563 34.425Q137.94063 35.33125 139.2375 35.33125Q140.20625 35.33125 140.87813 34.83125Q141.56563 34.315624 141.97188 33.20625ZM136.19063 30.3625L141.9875 30.3625Q141.87813 29.065624 141.33125 28.409374Q140.4875 27.39375 139.14375 27.39375Q137.94063 27.39375 137.1125 28.20625Q136.28438 29.003124 136.19063 30.3625ZM145.8625 36.55L145.8625 26.175L147.45625 26.175L147.45625 27.659374Q148.59688 25.940624 150.75313 25.940624Q151.69063 25.940624 152.47188 26.284374Q153.26875 26.6125 153.65938 27.159374Q154.05 27.70625 154.20625 28.45625Q154.3 28.95625 154.3 30.175L154.3 36.55L152.53438 36.55L152.53438 30.2375Q152.53438 29.159374 152.33125 28.628124Q152.12813 28.096874 151.59688 27.784374Q151.08125 27.471874 150.37813 27.471874Q149.25313 27.471874 148.44063 28.190624Q147.62813 28.89375 147.62813 30.878124L147.62813 36.55L145.8625 36.55ZM159.70625 34.971874L159.95625 36.534374Q159.22188 36.690624 158.62813 36.690624Q157.675 36.690624 157.14375 36.39375Q156.62813 36.08125 156.40938 35.596874Q156.19063 35.096874 156.19063 33.51875L156.19063 27.55L154.90938 27.55L154.90938 26.175L156.19063 26.175L156.19063 23.6125L157.94063 22.55L157.94063 26.175L159.70625 26.175L159.70625 27.55L157.94063 27.55L157.94063 33.6125Q157.94063 34.3625 158.03438 34.58125Q158.12813 34.784374 158.33125 34.925Q158.55 35.05 158.94063 35.05Q159.22188 35.05 159.70625 34.971874ZM168.64375 35.26875Q167.65938 36.096874 166.75313 36.440624Q165.84688 36.784374 164.81563 36.784374Q163.1125 36.784374 162.19063 35.95625Q161.26875 35.1125 161.26875 33.815624Q161.26875 33.05 161.6125 32.425Q161.97188 31.8 162.53438 31.425Q163.09688 31.034374 163.8 30.83125Q164.31563 30.70625 165.3625 30.565624Q167.4875 30.315624 168.4875 29.971874Q168.50313 29.6125 168.50313 29.503124Q168.50313 28.440624 168.00313 27.9875Q167.33125 27.39375 166.00313 27.39375Q164.75313 27.39375 164.15938 27.83125Q163.58125 28.26875 163.3 29.378124L161.58125 29.14375Q161.81563 28.034374 162.34688 27.3625Q162.87813 26.675 163.89375 26.315624Q164.90938 25.940624 166.25313 25.940624Q167.58125 25.940624 168.40938 26.253124Q169.2375 26.565624 169.62813 27.05Q170.01875 27.51875 170.175 28.2375Q170.26875 28.690624 170.26875 29.8625L170.26875 32.20625Q170.26875 34.659374 170.37813 35.315624Q170.4875 35.95625 170.83125 36.55L168.9875 36.55Q168.72188 36.003124 168.64375 35.26875ZM168.4875 31.346874Q167.53438 31.7375 165.6125 32.003124Q164.53438 32.159374 164.08125 32.3625Q163.64375 32.55 163.39375 32.925Q163.14375 33.3 163.14375 33.76875Q163.14375 34.471874 163.675 34.940624Q164.20625 35.409374 165.2375 35.409374Q166.25313 35.409374 167.03438 34.971874Q167.83125 34.51875 168.20625 33.753124Q168.4875 33.14375 168.4875 31.9875L168.4875 31.346874ZM176.70625 34.971874L176.95625 36.534374Q176.22188 36.690624 175.62813 36.690624Q174.675 36.690624 174.14375 36.39375Q173.62813 36.08125 173.40938 35.596874Q173.19063 35.096874 173.19063 33.51875L173.19063 27.55L171.90938 27.55L171.90938 26.175L173.19063 26.175L173.19063 23.6125L174.94063 22.55L174.94063 26.175L176.70625 26.175L176.70625 27.55L174.94063 27.55L174.94063 33.6125Q174.94063 34.3625 175.03438 34.58125Q175.12813 34.784374 175.33125 34.925Q175.55 35.05 175.94063 35.05Q176.22188 35.05 176.70625 34.971874ZM178.87813 24.253124L178.87813 22.2375L180.64375 22.2375L180.64375 24.253124L178.87813 24.253124ZM178.87813 36.55L178.87813 26.175L180.64375 26.175L180.64375 36.55L178.87813 36.55ZM182.22188 31.3625Q182.22188 28.4875 183.81563 27.096874Q185.15938 25.940624 187.08125 25.940624Q189.22188 25.940624 190.56563 27.346874Q191.925 28.753124 191.925 31.221874Q191.925 33.221874 191.33125 34.378124Q190.7375 35.51875 189.58125 36.159374Q188.44063 36.784374 187.08125 36.784374Q184.89375 36.784374 183.55 35.39375Q182.22188 33.9875 182.22188 31.3625ZM184.01875 31.3625Q184.01875 33.3625 184.87813 34.346874Q185.75313 35.33125 187.08125 35.33125Q188.39375 35.33125 189.25313 34.346874Q190.12813 33.346874 190.12813 31.3Q190.12813 29.378124 189.25313 28.39375Q188.37813 27.39375 187.08125 27.39375Q185.75313 27.39375 184.87813 28.39375Q184.01875 29.378124 184.01875 31.3625ZM193.8625 36.55L193.8625 26.175L195.45625 26.175L195.45625 27.659374Q196.59688 25.940624 198.75313 25.940624Q199.69063 25.940624 200.47188 26.284374Q201.26875 26.6125 201.65938 27.159374Q202.05 27.70625 202.20625 28.45625Q202.3 28.95625 202.3 30.175L202.3 36.55L200.53438 36.55L200.53438 30.2375Q200.53438 29.159374 200.33125 28.628124Q200.12813 28.096874 199.59688 27.784374Q199.08125 27.471874 198.37813 27.471874Q197.25313 27.471874 196.44063 28.190624Q195.62813 28.89375 195.62813 30.878124L195.62813 36.55L193.8625 36.55ZM220.31563 31.534374L222.20625 32.003124Q221.6125 34.346874 220.06563 35.58125Q218.51875 36.8 216.26875 36.8Q213.95625 36.8 212.50313 35.8625Q211.06563 34.909374 210.3 33.128124Q209.55 31.33125 209.55 29.284374Q209.55 27.05 210.39375 25.39375Q211.25313 23.721874 212.83125 22.8625Q214.40938 21.9875 216.3 21.9875Q218.45625 21.9875 219.90938 23.08125Q221.37813 24.175 221.95625 26.159374L220.09688 26.596874Q219.59688 25.034374 218.64375 24.33125Q217.70625 23.6125 216.26875 23.6125Q214.6125 23.6125 213.50313 24.409374Q212.39375 25.190624 211.94063 26.534374Q211.50313 27.8625 211.50313 29.26875Q211.50313 31.096874 212.03438 32.471874Q212.56563 33.83125 213.69063 34.503124Q214.81563 35.175 216.1125 35.175Q217.70625 35.175 218.81563 34.253124Q219.925 33.33125 220.31563 31.534374ZM223.22188 31.3625Q223.22188 28.4875 224.81563 27.096874Q226.15938 25.940624 228.08125 25.940624Q230.22188 25.940624 231.56563 27.346874Q232.925 28.753124 232.925 31.221874Q232.925 33.221874 232.33125 34.378124Q231.7375 35.51875 230.58125 36.159374Q229.44063 36.784374 228.08125 36.784374Q225.89375 36.784374 224.55 35.39375Q223.22188 33.9875 223.22188 31.3625ZM225.01875 31.3625Q225.01875 33.3625 225.87813 34.346874Q226.75313 35.33125 228.08125 35.33125Q229.39375 35.33125 230.25313 34.346874Q231.12813 33.346874 231.12813 31.3Q231.12813 29.378124 230.25313 28.39375Q229.37813 27.39375 228.08125 27.39375Q226.75313 27.39375 225.87813 28.39375Q225.01875 29.378124 225.01875 31.3625ZM234.8625 36.55L234.8625 26.175L236.44063 26.175L236.44063 27.628124Q236.925 26.878124 237.7375 26.409374Q238.55 25.940624 239.58125 25.940624Q240.7375 25.940624 241.47188 26.425Q242.20625 26.89375 242.51875 27.753124Q243.75313 25.940624 245.72188 25.940624Q247.26875 25.940624 248.09688 26.8Q248.925 27.659374 248.925 29.425L248.925 36.55L247.175 36.55L247.175 30.01875Q247.175 28.95625 247.00313 28.503124Q246.83125 28.034374 246.37813 27.753124Q245.94063 27.471874 245.33125 27.471874Q244.2375 27.471874 243.50313 28.20625Q242.78438 28.925 242.78438 30.51875L242.78438 36.55L241.03438 36.55L241.03438 29.815624Q241.03438 28.64375 240.59688 28.065624Q240.175 27.471874 239.19063 27.471874Q238.45625 27.471874 237.81563 27.8625Q237.19063 28.253124 236.90938 29.003124Q236.62813 29.753124 236.62813 31.175L236.62813 36.55L234.8625 36.55ZM250.8625 40.51875L250.8625 26.175L252.47188 26.175L252.47188 27.51875Q253.03438 26.7375 253.7375 26.346874Q254.45625 25.940624 255.47188 25.940624Q256.8 25.940624 257.8156 26.628124Q258.83124 27.315624 259.34686 28.565624Q259.8781 29.8 259.8781 31.284374Q259.8781 32.878124 259.3 34.159374Q258.7375 35.425 257.64374 36.1125Q256.55 36.784374 255.34688 36.784374Q254.47188 36.784374 253.76875 36.409374Q253.08125 36.034374 252.62813 35.471874L252.62813 40.51875L250.8625 40.51875ZM252.45625 31.425Q252.45625 33.425 253.26875 34.378124Q254.08125 35.33125 255.2375 35.33125Q256.40936 35.33125 257.2375 34.346874Q258.08124 33.3625 258.08124 31.26875Q258.08124 29.3 257.2531 28.315624Q256.4406 27.315624 255.31563 27.315624Q254.19063 27.315624 253.31563 28.378124Q252.45625 29.425 252.45625 31.425ZM268.64374 35.26875Q267.65936 36.096874 266.7531 36.440624Q265.84686 36.784374 264.8156 36.784374Q263.1125 36.784374 262.1906 35.95625Q261.26874 35.1125 261.26874 33.815624Q261.26874 33.05 261.6125 32.425Q261.97186 31.8 262.53436 31.425Q263.09686 31.034374 263.8 30.83125Q264.3156 30.70625 265.3625 30.565624Q267.4875 30.315624 268.4875 29.971874Q268.5031 29.6125 268.5031 29.503124Q268.5031 28.440624 268.0031 27.9875Q267.33124 27.39375 266.0031 27.39375Q264.7531 27.39375 264.15936 27.83125Q263.58124 28.26875 263.3 29.378124L261.58124 29.14375Q261.8156 28.034374 262.34686 27.3625Q262.8781 26.675 263.89374 26.315624Q264.90936 25.940624 266.2531 25.940624Q267.58124 25.940624 268.40936 26.253124Q269.2375 26.565624 269.6281 27.05Q270.01874 27.51875 270.175 28.2375Q270.26874 28.690624 270.26874 29.8625L270.26874 32.20625Q270.26874 34.659374 270.3781 35.315624Q270.4875 35.95625 270.83124 36.55L268.9875 36.55Q268.72186 36.003124 268.64374 35.26875ZM268.4875 31.346874Q267.53436 31.7375 265.6125 32.003124Q264.53436 32.159374 264.08124 32.3625Q263.64374 32.55 263.39374 32.925Q263.14374 33.3 263.14374 33.76875Q263.14374 34.471874 263.675 34.940624Q264.20624 35.409374 265.2375 35.409374Q266.2531 35.409374 267.03436 34.971874Q267.83124 34.51875 268.20624 33.753124Q268.4875 33.14375 268.4875 31.9875L268.4875 31.346874ZM272.84686 36.55L272.84686 26.175L274.425 26.175L274.425 27.753124Q275.03436 26.64375 275.55 26.3Q276.0656 25.940624 276.675 25.940624Q277.5656 25.940624 278.4875 26.503124L277.8781 28.14375Q277.2375 27.753124 276.59686 27.753124Q276.01874 27.753124 275.55 28.1125Q275.09686 28.45625 274.89374 29.065624Q274.6125 30.003124 274.6125 31.1125L274.6125 36.55L272.84686 36.55ZM279.8781 24.253124L279.8781 22.2375L281.64374 22.2375L281.64374 24.253124L279.8781 24.253124ZM279.8781 36.55L279.8781 26.175L281.64374 26.175L281.64374 36.55L279.8781 36.55ZM283.15936 33.45625L284.90936 33.175Q285.05 34.221874 285.72186 34.784374Q286.39374 35.33125 287.59686 35.33125Q288.8 35.33125 289.3781 34.846874Q289.97186 34.346874 289.97186 33.690624Q289.97186 33.096874 289.45624 32.753124Q289.09686 32.51875 287.65936 32.159374Q285.72186 31.659374 284.97186 31.315624Q284.2375 30.95625 283.84686 30.33125Q283.45624 29.690624 283.45624 28.925Q283.45624 28.2375 283.76874 27.64375Q284.09686 27.05 284.64374 26.659374Q285.05 26.3625 285.7531 26.159374Q286.47186 25.940624 287.28436 25.940624Q288.5031 25.940624 289.425 26.3Q290.34686 26.64375 290.78436 27.253124Q291.22186 27.846874 291.39374 28.846874L289.675 29.08125Q289.55 28.284374 288.9875 27.846874Q288.425 27.39375 287.40936 27.39375Q286.1906 27.39375 285.675 27.8Q285.15936 28.190624 285.15936 28.721874Q285.15936 29.065624 285.3781 29.346874Q285.58124 29.628124 286.05 29.815624Q286.3156 29.909374 287.59686 30.253124Q289.47186 30.753124 290.20624 31.08125Q290.9406 31.39375 291.3625 32.003124Q291.78436 32.596874 291.78436 33.503124Q291.78436 34.378124 291.26874 35.159374Q290.7531 35.940624 289.78436 36.3625Q288.8156 36.784374 287.59686 36.784374Q285.58124 36.784374 284.51874 35.940624Q283.45624 35.096874 283.15936 33.45625ZM293.22186 31.3625Q293.22186 28.4875 294.8156 27.096874Q296.15936 25.940624 298.08124 25.940624Q300.22186 25.940624 301.5656 27.346874Q302.925 28.753124 302.925 31.221874Q302.925 33.221874 302.33124 34.378124Q301.7375 35.51875 300.58124 36.159374Q299.4406 36.784374 298.08124 36.784374Q295.89374 36.784374 294.55 35.39375Q293.22186 33.9875 293.22186 31.3625ZM295.01874 31.3625Q295.01874 33.3625 295.8781 34.346874Q296.7531 35.33125 298.08124 35.33125Q299.39374 35.33125 300.2531 34.346874Q301.1281 33.346874 301.1281 31.3Q301.1281 29.378124 300.2531 28.39375Q299.3781 27.39375 298.08124 27.39375Q296.7531 27.39375 295.8781 28.39375Q295.01874 29.378124 295.01874 31.3625ZM304.8625 36.55L304.8625 26.175L306.45624 26.175L306.45624 27.659374Q307.59686 25.940624 309.7531 25.940624Q310.6906 25.940624 311.47186 26.284374Q312.26874 26.6125 312.65936 27.159374Q313.05 27.70625 313.20624 28.45625Q313.3 28.95625 313.3 30.175L313.3 36.55L311.53436 36.55L311.53436 30.2375Q311.53436 29.159374 311.33124 28.628124Q311.1281 28.096874 310.59686 27.784374Q310.08124 27.471874 309.3781 27.471874Q308.2531 27.471874 307.4406 28.190624Q306.6281 28.89375 306.6281 30.878124L306.6281 36.55L304.8625 36.55Z" fill-rule="nonzero"/></svg>