<?xml version="1.0" encoding="UTF-8" standalone="no"?><svg xmlns="http://www.w3.org/2000/svg" xmlns:xlink= "http://www.w3.org/1999/xlink" width="600" height="390" aria-label="A chart." style="overflow: hidden;"><defs id="_ABSTRACT_RENDERER_ID_166"><clipPath id="_ABSTRACT_RENDERER_ID_167"><rect x="115" y="75" width="371" height="241"></rect></clipPath></defs><rect x="0" y="0" width="600" height="390" stroke="none" stroke-width="0" fill="#ffffff"></rect><g><text text-anchor="start" x="115" y="52.05" font-family="Arial" font-size="13" font-weight="bold" stroke="none" stroke-width="0" fill="#000000">Execution time of different scan functions with 2^n inputs</text><rect x="115" y="41" width="371" height="13" stroke="none" stroke-width="0" fill-opacity="0" fill="#ffffff"></rect></g><g><rect x="499" y="75" width="88" height="76" stroke="none" stroke-width="0" fill-opacity="0" fill="#ffffff"></rect><g><rect x="499" y="75" width="88" height="13" stroke="none" stroke-width="0" fill-opacity="0" fill="#ffffff"></rect><g><text text-anchor="start" x="530" y="86.05" font-family="Arial" font-size="13" stroke="none" stroke-width="0" fill="#222222">CPU</text></g><path d="M499,81.5L525,81.5" stroke="#3366cc" stroke-width="3" fill-opacity="1" fill="none"></path><circle cx="512" cy="81.5" r="4.5" stroke="none" stroke-width="0" fill="#3366cc"></circle></g><g><rect x="499" y="96" width="88" height="13" stroke="none" stroke-width="0" fill-opacity="0" fill="#ffffff"></rect><g><text text-anchor="start" x="530" y="107.05" font-family="Arial" font-size="13" stroke="none" stroke-width="0" fill="#222222">Naive</text></g><path d="M499,102.5L525,102.5" stroke="#dc3912" stroke-width="3" fill-opacity="1" fill="none"></path><circle cx="512" cy="102.5" r="4.5" stroke="none" stroke-width="0" fill="#dc3912"></circle></g><g><rect x="499" y="117" width="88" height="13" stroke="none" stroke-width="0" fill-opacity="0" fill="#ffffff"></rect><g><text text-anchor="start" x="530" y="128.05" font-family="Arial" font-size="13" stroke="none" stroke-width="0" fill="#222222">Effiecient</text></g><path d="M499,123.5L525,123.5" stroke="#ff9900" stroke-width="3" fill-opacity="1" fill="none"></path><circle cx="512" cy="123.5" r="4.5" stroke="none" stroke-width="0" fill="#ff9900"></circle></g><g><rect x="499" y="138" width="88" height="13" stroke="none" stroke-width="0" fill-opacity="0" fill="#ffffff"></rect><g><text text-anchor="start" x="530" y="149.05" font-family="Arial" font-size="13" stroke="none" stroke-width="0" fill="#222222">Thrust</text></g><path d="M499,144.5L525,144.5" stroke="#109618" stroke-width="3" fill-opacity="1" fill="none"></path><circle cx="512" cy="144.5" r="4.5" stroke="none" stroke-width="0" fill="#109618"></circle></g></g><g><rect x="115" y="75" width="371" height="241" stroke="none" stroke-width="0" fill-opacity="0" fill="#ffffff"></rect><g clip-path="url(https://www.rapidtables.com/tools/line-graph.html#_ABSTRACT_RENDERER_ID_167)"><g><rect x="115" y="315" width="371" height="1" stroke="none" stroke-width="0" fill="#cccccc"></rect><rect x="115" y="235" width="371" height="1" stroke="none" stroke-width="0" fill="#cccccc"></rect><rect x="115" y="155" width="371" height="1" stroke="none" stroke-width="0" fill="#cccccc"></rect><rect x="115" y="75" width="371" height="1" stroke="none" stroke-width="0" fill="#cccccc"></rect><rect x="115" y="275" width="371" height="1" stroke="none" stroke-width="0" fill="#ebebeb"></rect><rect x="115" y="195" width="371" height="1" stroke="none" stroke-width="0" fill="#ebebeb"></rect><rect x="115" y="115" width="371" height="1" stroke="none" stroke-width="0" fill="#ebebeb"></rect></g><g><rect x="115" y="315" width="371" height="1" stroke="none" stroke-width="0" fill="#333333"></rect></g><g><path d="M146.33333333333334,315.3616L208,314.94L269.66666666666663,313.34L331.3333333333333,307.02L393,281.65999999999997L454.66666666666663,182.7" stroke="#3366cc" stroke-width="3" fill-opacity="1" fill="none"></path><path d="M146.33333333333334,315.4424L208,315.304L269.66666666666663,314.684L331.3333333333333,311.964L393,300.14L454.66666666666663,94.06" stroke="#dc3912" stroke-width="3" fill-opacity="1" fill="none"></path><path d="M146.33333333333334,315.4336L208,315.3464L269.66666666666663,315.044L331.3333333333333,313.78L393,308.94L454.66666666666663,227.57999999999998" stroke="#ff9900" stroke-width="3" fill-opacity="1" fill="none"></path><path d="M146.33333333333334,315.4944L208,315.4888L269.66666666666663,315.4504L331.3333333333333,315.372L393,315.004L454.66666666666663,306.38" stroke="#109618" stroke-width="3" fill-opacity="1" fill="none"></path></g></g><g><circle cx="146.33333333333334" cy="315.3616" r="4.5" stroke="none" stroke-width="0" fill="#3366cc"></circle><circle cx="208" cy="314.94" r="4.5" stroke="none" stroke-width="0" fill="#3366cc"></circle><circle cx="269.66666666666663" cy="313.34" r="4.5" stroke="none" stroke-width="0" fill="#3366cc"></circle><circle cx="331.3333333333333" cy="307.02" r="4.5" stroke="none" stroke-width="0" fill="#3366cc"></circle><circle cx="393" cy="281.65999999999997" r="4.5" stroke="none" stroke-width="0" fill="#3366cc"></circle><circle cx="454.66666666666663" cy="182.7" r="4.5" stroke="none" stroke-width="0" fill="#3366cc"></circle><circle cx="146.33333333333334" cy="315.4424" r="4.5" stroke="none" stroke-width="0" fill="#dc3912"></circle><circle cx="208" cy="315.304" r="4.5" stroke="none" stroke-width="0" fill="#dc3912"></circle><circle cx="269.66666666666663" cy="314.684" r="4.5" stroke="none" stroke-width="0" fill="#dc3912"></circle><circle cx="331.3333333333333" cy="311.964" r="4.5" stroke="none" stroke-width="0" fill="#dc3912"></circle><circle cx="393" cy="300.14" r="4.5" stroke="none" stroke-width="0" fill="#dc3912"></circle><circle cx="454.66666666666663" cy="94.06" r="4.5" stroke="none" stroke-width="0" fill="#dc3912"></circle><circle cx="146.33333333333334" cy="315.4336" r="4.5" stroke="none" stroke-width="0" fill="#ff9900"></circle><circle cx="208" cy="315.3464" r="4.5" stroke="none" stroke-width="0" fill="#ff9900"></circle><circle cx="269.66666666666663" cy="315.044" r="4.5" stroke="none" stroke-width="0" fill="#ff9900"></circle><circle cx="331.3333333333333" cy="313.78" r="4.5" stroke="none" stroke-width="0" fill="#ff9900"></circle><circle cx="393" cy="308.94" r="4.5" stroke="none" stroke-width="0" fill="#ff9900"></circle><circle cx="454.66666666666663" cy="227.57999999999998" r="4.5" stroke="none" stroke-width="0" fill="#ff9900"></circle><circle cx="146.33333333333334" cy="315.4944" r="4.5" stroke="none" stroke-width="0" fill="#109618"></circle><circle cx="208" cy="315.4888" r="4.5" stroke="none" stroke-width="0" fill="#109618"></circle><circle cx="269.66666666666663" cy="315.4504" r="4.5" stroke="none" stroke-width="0" fill="#109618"></circle><circle cx="331.3333333333333" cy="315.372" r="4.5" stroke="none" stroke-width="0" fill="#109618"></circle><circle cx="393" cy="315.004" r="4.5" stroke="none" stroke-width="0" fill="#109618"></circle><circle cx="454.66666666666663" cy="306.38" r="4.5" stroke="none" stroke-width="0" fill="#109618"></circle></g><g><g><text text-anchor="middle" x="146.33333333333334" y="335.05" font-family="Arial" font-size="13" stroke="none" stroke-width="0" fill="#222222">20</text></g><g><text text-anchor="middle" x="208" y="335.05" font-family="Arial" font-size="13" stroke="none" stroke-width="0" fill="#222222">22</text></g><g><text text-anchor="middle" x="269.66666666666663" y="335.05" font-family="Arial" font-size="13" stroke="none" stroke-width="0" fill="#222222">24</text></g><g><text text-anchor="middle" x="331.3333333333333" y="335.05" font-family="Arial" font-size="13" stroke="none" stroke-width="0" fill="#222222">26</text></g><g><text text-anchor="middle" x="393" y="335.05" font-family="Arial" font-size="13" stroke="none" stroke-width="0" fill="#222222">28</text></g><g><text text-anchor="middle" x="454.66666666666663" y="335.05" font-family="Arial" font-size="13" stroke="none" stroke-width="0" fill="#222222">30</text></g><g><text text-anchor="end" x="102" y="320.05" font-family="Arial" font-size="13" stroke="none" stroke-width="0" fill="#444444">0</text></g><g><text text-anchor="end" x="102" y="240.05" font-family="Arial" font-size="13" stroke="none" stroke-width="0" fill="#444444">1,000</text></g><g><text text-anchor="end" x="102" y="160.05" font-family="Arial" font-size="13" stroke="none" stroke-width="0" fill="#444444">2,000</text></g><g><text text-anchor="end" x="102" y="80.05" font-family="Arial" font-size="13" stroke="none" stroke-width="0" fill="#444444">3,000</text></g></g></g><g><g><text text-anchor="middle" x="300.5" y="368.05" font-family="Arial" font-size="13" font-style="italic" stroke="none" stroke-width="0" fill="#222222">data size (2^n))</text><rect x="115" y="357" width="371" height="13" stroke="none" stroke-width="0" fill-opacity="0" fill="#ffffff"></rect></g><g><text text-anchor="middle" x="39.05" y="195.5" font-family="Arial" font-size="13" font-style="italic" transform="rotate(-90 39.05 195.5)" stroke="none" stroke-width="0" fill="#222222">execution time (ms)</text><path d="M27.999999999999996,316L28.00000000000001,75L41.00000000000001,75L40.99999999999999,316Z" stroke="none" stroke-width="0" fill-opacity="0" fill="#ffffff"></path></g></g><g></g></svg>